<?xml version="1.0" encoding="UTF-8" standalone="no"?>
<svg width="277px" height="61px" viewBox="0 0 277 61" version="1.1" xmlns="http://www.w3.org/2000/svg" xmlns:xlink="http://www.w3.org/1999/xlink">
    <!-- Generator: Sketch 47.1 (45422) - http://www.bohemiancoding.com/sketch -->
    <title>logo</title>
    <desc>Created with Sketch.</desc>
    <defs>
        <polygon id="path-1" points="0 61 277 61 277 0 0 0"></polygon>
    </defs>
    <g id="Page-1" stroke="none" stroke-width="1" fill="none" fill-rule="evenodd">
        <g id="home-02-copy" transform="translate(-63.000000, -45.000000)">
            <g id="elements" transform="translate(63.000000, 45.000000)">
                <g id="nav-container">
                    <g>
                        <g id="logo">
                            <path d="M51.0869657,24.7982974 C49.6624789,26.2846916 48.9503133,28.1852325 48.9503133,30.5000798 C48.9503133,32.8391948 49.6565675,34.7459623 51.0692316,36.220063 C52.4818956,37.6941636 54.2921777,38.4312938 56.5000778,38.4312938 C58.6606868,38.4312938 60.4589906,37.6880967 61.8953001,36.2018622 C63.3317653,34.7153084 64.0499978,32.8149272 64.0499978,30.5000798 C64.0499978,28.1852325 63.3317653,26.2846916 61.8953001,24.7982974 C60.4589906,23.3119033 58.6606868,22.5687062 56.5000778,22.5687062 C54.3158232,22.5687062 52.5114525,23.3119033 51.0869657,24.7982974 Z M65.3319893,21.600235 C67.7774335,24.0003385 69,26.9669002 69,30.5000798 C69,34.0332595 67.7774335,36.9998212 65.3319893,39.399765 C62.8867006,41.7998684 59.9308555,43 56.4644539,43 C52.9982079,43 50.0541856,41.7998684 47.6325425,39.399765 C45.2108993,36.9998212 44,34.0332595 44,30.5000798 C44,26.9669002 45.2108993,24.0003385 47.6325425,21.600235 C50.0541856,19.2001316 52.9982079,18 56.4644539,18 C59.9308555,18 62.8867006,19.2001316 65.3319893,21.600235 Z" id="Fill-1" fill="#FFFFFF"></path>
                            <path d="M13.0869657,24.7982974 C11.6624789,26.2846916 10.9503133,28.1852325 10.9503133,30.5000798 C10.9503133,32.8391948 11.6565675,34.7459623 13.0692316,36.220063 C14.4818956,37.6941636 16.2921777,38.4312938 18.5000778,38.4312938 C20.6606868,38.4312938 22.4589906,37.6880967 23.8953001,36.2018622 C25.3317653,34.7153084 26.0499978,32.8149272 26.0499978,30.5000798 C26.0499978,28.1852325 25.3317653,26.2846916 23.8953001,24.7982974 C22.4589906,23.3119033 20.6606868,22.5687062 18.5000778,22.5687062 C16.3158232,22.5687062 14.5114525,23.3119033 13.0869657,24.7982974 M27.3319893,21.600235 C29.7774335,24.0003385 31,26.9669002 31,30.5000798 C31,34.0332595 29.7774335,36.9998212 27.3319893,39.399765 C24.8867006,41.7998684 21.9308555,43 18.4644539,43 C14.9982079,43 12.0541856,41.7998684 9.63254245,39.399765 C7.21089934,36.9998212 6,34.0332595 6,30.5000798 C6,26.9669002 7.21089934,24.0003385 9.63254245,21.600235 C12.0541856,19.2001316 14.9982079,18 18.4644539,18 C21.9308555,18 24.8867006,19.2001316 27.3319893,21.600235" id="Fill-3" fill="#FFFFFF"></path>
                            <path d="M180.72218,23.3272179 L180.72218,30.2362799 L184.674876,30.2362799 C185.770886,30.2362799 186.627769,29.9150981 187.245832,29.2727345 C187.863741,28.6302121 188.172849,27.7878643 188.172849,26.7453737 C188.172849,25.7271861 187.857935,24.9029465 187.22826,24.2726551 C186.598738,23.6422047 185.747661,23.3272179 184.674876,23.3272179 L180.72218,23.3272179 Z M190.673824,21.1270749 C192.224557,22.5453896 193,24.417997 193,26.7453737 C193,29.0484473 192.224557,30.9212136 190.673824,32.3636725 C189.122938,33.8059725 187.123442,34.5272814 184.674876,34.5272814 L180.72218,34.5272814 L180.72218,43 L176,43 L176,19 L184.674876,19 C187.123442,19 189.122938,19.7090779 190.673824,21.1270749 L190.673824,21.1270749 Z" id="Fill-5" fill="#FFFFFF"></path>
                            <path d="M154,27.0357254 L150.981177,34.9642746 L157.018975,34.9642746 L154,27.0357254 Z M158.684512,38.9285491 L149.315488,38.9285491 L148.031625,42 L143,42 L153.236654,18 L154.798209,18 L165,42 L159.968527,42 L158.684512,38.9285491 Z" id="Fill-7" fill="#FFFFFF"></path>
                            <path d="M102.670555,23.2266472 L99.2214695,26.1140197 C97.544872,23.7504774 95.3412676,22.5687062 92.6106563,22.5687062 C90.335173,22.5687062 88.4969266,23.3119033 87.09576,24.7982974 C85.6945934,26.2845319 84.9940101,28.1852325 84.9940101,30.5000798 C84.9940101,32.8634625 85.7184484,34.8005645 87.1676388,36.311386 C88.6166723,37.8220478 90.5269546,38.5773787 92.8980147,38.5773787 C95.6526379,38.5773787 97.7364966,37.5784133 99.1495906,35.5803228 L99.1495906,33.6068192 L92.7059193,33.6068192 L92.7059193,29.3302828 L104,29.3302828 L104,36.4576306 C102.922131,38.4068665 101.383171,39.9845836 99.3832754,41.1907821 C97.383223,42.3968209 95.149643,43 92.6825351,43 C89.1137035,43 86.1078183,41.7998684 83.6645654,39.399765 C81.2214695,36.9998212 80,34.0332595 80,30.5000798 C80,26.9669002 81.2214695,24.0003385 83.6645654,21.6000754 C86.1078183,19.1999719 89.1137035,18 92.6825351,18 C96.9459862,18 100.275326,19.7423222 102.670555,23.2266472" id="Fill-9" fill="#FFFFFF"></path>
                            <path d="M120.847387,30.2000635 L124.904887,30.2000635 C126.029958,30.2000635 126.909561,29.8849178 127.544012,29.2546263 C128.178305,28.624176 128.495608,27.7878643 128.495608,26.7453737 C128.495608,25.7273449 128.172345,24.9029465 127.525974,24.2728139 C126.87976,23.6423636 126.006117,23.3272179 124.904887,23.3272179 L120.847387,23.3272179 L120.847387,30.2000635 Z M130.542318,43 L124.40219,34.5272814 L120.847387,34.5272814 L120.847387,43 L116,43 L116,19 L124.904887,19 C127.418376,19 129.470889,19.7090779 131.062896,21.1272337 C132.654746,22.5455484 133.45075,24.4181558 133.45075,26.7453737 C133.45075,28.2726551 133.079647,29.6242554 132.3376,30.799857 C131.595395,31.9757763 130.578079,32.8908744 129.285495,33.545469 L136,43 L130.542318,43 Z" id="Fill-11" fill="#FFFFFF"></path>
                            <polygon id="Fill-13" fill="#FFFFFF" points="223 43 218.195753 43 218.195753 32.636407 207.804247 32.636407 207.804247 43 203 43 203 19 207.804247 19 207.804247 28.1999047 218.195753 28.1999047 218.195753 19 223 19"></polygon>
                            <mask id="mask-2" fill="white">
                                <use xlink:href="#path-1"></use>
                            </mask>
                            <g id="Clip-16"></g>
                            <polygon id="Fill-15" fill="#FFFFFF" mask="url(#mask-2)" points="237 43 242 43 242 19 237 19"></polygon>
                            <path d="M272.689687,19.5900107 C274.514062,20.6499646 275.950781,22.1179983 277,23.9942716 L273.351406,26.6257161 C271.682344,23.9211493 269.42875,22.5687062 266.591094,22.5687062 C264.373125,22.5687062 262.549062,23.3119033 261.118125,24.7982974 C259.687344,26.2846916 258.972031,28.1973663 258.972031,30.5364813 C258.972031,32.8514883 259.687344,34.7459623 261.118125,36.220063 C262.549062,37.6943233 264.373125,38.4312938 266.591094,38.4312938 C269.42875,38.4312938 271.682344,37.0790104 273.351406,34.3744436 L277,37.0058881 C275.974531,38.8821614 274.54375,40.3500354 272.707656,41.410149 C270.871406,42.4701029 268.820625,43 266.555156,43 C263.025781,43 260.050938,41.7998684 257.630625,39.399765 C255.210156,36.9998212 254,34.0332595 254,30.5000798 C254,26.9669002 255.216094,24.0003385 257.648438,21.600235 C260.080938,19.2001316 263.061719,18 266.591094,18 C268.8325,18 270.865469,18.5300568 272.689687,19.5900107" id="Fill-17" fill="#FFFFFF" mask="url(#mask-2)"></path>
                            <polygon id="Fill-18" fill="#FFFFFF" mask="url(#mask-2)" points="56 51 56 55.9997518 75 61 75 56.0002482"></polygon>
                            <polygon id="Fill-19" fill="#FFFFFF" mask="url(#mask-2)" points="0 0 0 4.99983452 19 10 19 5.00016548"></polygon>
                        </g>
                    </g>
                </g>
            </g>
        </g>
    </g>
</svg>