<?xml version="1.0" encoding="utf-8"?>
<!-- Generator: Adobe Illustrator 21.1.0, SVG Export Plug-In . SVG Version: 6.00 Build 0)  -->
<svg version="1.1" id="Layer_1" xmlns="http://www.w3.org/2000/svg" xmlns:xlink="http://www.w3.org/1999/xlink" x="0px" y="0px"
	 viewBox="0 0 2000 2000" style="enable-background:new 0 0 2000 2000;" xml:space="preserve">
<style type="text/css">
	.st0{fill:#4F8FFA;}
</style>
<g>
	<path class="st0" d="M456.4,0.7c-1.8,15.1-7.5,28.7-16.4,40.8c-7.2,9.9-15.1,19.2-22.4,29c-5.7,7.7-11.2,15.6-15.9,23.9
		s-10.3,15.6-18.1,21.2c-15,10.8-30.9,20.2-49.1,25c-4.8,1.3-9.5,2.8-14.2,4.3c-12.2,3.7-23,9.9-31.5,19.4
		c-9.2,10.4-20.7,14.1-34.1,14.2c-10.8,0.1-21.2-1.9-31.4-5.2c-5.2-1.8-10.4-3.7-15.6-4.8c-4-0.8-8.3-1.1-12.3-0.4
		c-7.3,1.2-11.6,6.2-11.4,13.6c0.3,15.2,2.9,30.1,9.8,43.9c1.9,3.8,5.4,7,8.7,9.8c7.1,6,14.7,11.5,22.1,17.3
		c17.3,13.5,43.8,11.5,59-4.4c5.3-5.5,7.3-12.5,9.1-19.6c1.2-4.8,2-9.7,3.1-14.5c1.2-4.5,3.3-8.3,8.5-9.1c5.2-0.8,9.3,1.4,12.1,5.5
		c2.8,4,5.1,8.5,7.7,12.7c9.9,15.6,24.1,23,42.6,22.9c8.9,0,15-3.4,18-11.9c0.3-1,0.9-1.9,1.2-2.9c4.7-17.7,17.3-29.3,31.1-39.8
		c6.7-5.2,14.6-8.1,22.9-9.7c12.3-2.2,24.3-5.7,35.8-10.5c20.8-8.7,40.8-5.4,60.3,4.2c12.1,6.1,15.1,17.1,14.6,29.6
		c-0.1,2.8-1.1,5.6-1.8,8.4c-0.5,2.2-1.2,4.6-1.5,6.8c-0.5,3.8-0.3,7.5,3.7,9.4c4,1.9,7.1-0.4,9.7-3c2-2.1,3.6-4.4,5.4-6.7
		c2.1-2.9,4.2-6,6.4-8.8c4.3-5.5,10.1-8.1,16.9-8.3c7.8-0.3,15.1,1.4,21.7,5.5c7.6,4.9,14.8,10.4,22.2,15.8c5.4,4,10.4,8.7,16,12.4
		c9.2,6,18.9,6.5,29,2.1c5.5-2.4,10.9-4.9,16.6-6.8c12.1-4.2,22.7-1.1,31.2,8.3c3.1,3.4,5.9,7.3,8.1,11.4
		c5.2,9.4,10.2,18.8,14.7,28.4c7.9,16.7,5.5,29.9-7.9,42.3c-9.4,8.7-17.9,18.2-24.8,28.9c-6.1,9.2-14.4,15.5-24.4,19.9
		c-12,5.3-24.4,9.3-37.5,10.3c-33.7,2.4-55.6,21.8-70.7,49.7c-8.1,15-14.1,31.3-20.6,47.2c-4.5,11.1-4.1,22.5,0.7,33.4
		c5.5,12.4,10.8,24.8,17,36.8c8.9,17.3,12.5,35.2,8.3,54.4c-2.2,10.2-0.3,19.6,5.1,28.4c1.5,2.4,2.8,5,4.3,7.4
		c6.1,10.7,5.2,21.2-2.3,30.6c-3.6,4.6-8.4,8.5-13.3,11.9c-6.3,4.5-13.3,8.2-19.8,12.4c-4.4,2.7-8.8,5.7-12.9,8.7
		c-6.8,5.1-9.8,11.9-9.1,20.4c0.1,0.8,0.1,1.6,0.2,2.3c1.3,20.6-8.3,33.1-28.6,37.1c-2.8,0.6-5.7,0.7-8.5,1.2c-5.4,1-6.3,2.3-6,8
		c0.6,7.2,1.2,14.6,1.8,21.8c1,12.3-4.2,21.3-15.4,26.3c-6.6,2.9-13.6,5.5-20.6,7.1c-11.1,2.7-22.4,4.9-33.6,6.9
		c-17.7,3.1-34.2,8.9-49.2,18.8c-14.6,9.5-30.4,16.1-46.9,20.8c-7.1,2.1-14.7,3.2-22.2,3.2c-10.8-0.1-18.5-6-22.9-16.1
		c-6.2-14.5-6-28.9,2.9-41.8c11.3-16.3,18.8-33.8,24.1-52.8c4.9-17.3,17.4-29.3,32.8-38.1c5.7-3.2,11.6-5.9,17.5-8.7
		c7.5-3.7,14.2-8.5,20-14.6c4.4-4.7,9.4-9,14.4-13.1c6.4-5.4,10-11.8,9.4-20.3c-1.1-14.6,3.7-27.1,12.9-38.2
		c4.5-5.4,8.1-11.5,12.4-17c5.8-7.4,11.4-14.8,17.8-21.7c10.6-11.5,11.9-20.1,2.3-32.5c-13.3-17.2-20.6-37.2-28.6-56.9
		c-5.1-12.5-4-25.4,2.8-36.9c7.7-12.9,16.1-25.5,25.2-37.5c4.6-6.1,11.6-10.4,17.5-15.4c3.3-2.9,7-5.6,9.8-8.9
		c6.3-7.8,5-16.6-3.3-22.2c-3.2-2.1-6.7-4-10.4-5.2c-14.6-4.5-26.5-12.8-36.7-24.1c-4.3-4.8-9.5-8.9-14.8-12.6
		c-8.1-5.7-16.8-5.4-24.7,0.4c-10,7.3-18.5,16.2-24.3,27.1c-2.8,5.3-4.3,11.8-4.7,17.9c-0.7,12.2-0.5,24.4-0.1,36.6
		c0.3,11.1,5,21.2,9.3,31.3c3,7.1,6.6,14.2,9.4,21.5c6.4,17.3,3.2,32.6-10.3,45.6c-7.8,7.6-15.6,15.2-23.4,23
		c-1.5,1.5-2.9,2.9-4.2,4.7c-4.1,5.7-4,11.1,1,16.2c3.2,3.3,7.2,5.9,10.9,8.8c4.1,3.2,8.5,6.1,12.1,9.8c8.9,9,9.9,24.1,2.4,34.5
		c-6,8.2-14.3,11.7-23.9,9.2c-6.9-1.8-13.5-5.3-19.9-8.4c-4.2-2-8-4.9-12.2-6.9c-8.6-4.1-17.1-3.2-23.7,3.7
		c-9.3,9.8-20.3,12.8-33.3,11c-12.1-1.6-23.3,0.8-32.6,9.5c-1.2,1.1-2.5,1.9-3.8,2.7c-14,9.5-27.5,7.2-37.3-6.6
		c-10.8-15.3-17.2-32.6-20.2-51.1c-0.7-4.4-1.2-8.8-2.1-13.1c-3.9-17.7-22-28-39.6-23.2c-7.7,2.1-15.6,4-23.5,5.1
		c-5.1,0.7-10.4,0-15.4-0.7c-6.9-1-13.8-2.5-20.7-4c-10-2.1-19.6-1.2-29.1,2.6c-9.9,4-19.7,8-30.3,12.2c-0.1,2.3-0.4,4.9-0.4,7.4
		c0,35.6,0,71.3,0,106.9c0,7.8,0.3,7.3,6.9,10.8c6.2,3.2,12.4,6.9,17.3,11.7c18.4,18.4,34.5,38.5,48.8,60
		c10,14.8,14.7,31.4,11.9,49.7c-2.1,14-9.5,24-22.6,29.6c-11.2,4.9-23,6.3-35.2,4.6c-6.2-0.8-12.3-2.1-18.5-3.2
		c-2.4-0.4-5-0.7-8.1-1.1c-0.2,3.4-0.5,6-0.5,8.5c0,38.3,0.1,76.5-0.2,114.8c0,5.9,2,8.6,7.2,10.9c8.6,3.7,16.7,8.4,24.8,13
		c9.4,5.3,13.8,13.8,12.3,24.2c-2.7,20.1-7.2,39.9-15.6,58.5c-4.1,9-11.3,14.7-20.8,17.6c-2.2,0.7-4.4,1.4-7.3,2.2
		c-0.2,2.4-0.5,5-0.5,7.5c0,49.9,0,99.9-0.1,149.8c0,4.6,1.2,7.5,5.1,10.4c12.1,9.2,12.5,28.9,0.6,38.2c-4.6,3.5-5.7,7.2-5.7,12.5
		c0.1,85.6,0.1,171.2,0.1,256.8c0,104.3,0,208.6,0,313c0,3.3,0,6.6,0,10.9c2.9-1.2,4.9-1.7,6.6-2.5c19.3-10.7,31.8-26.4,35.4-48.6
		c1.6-9.8,3.7-19.4,5.8-29.1c4.3-20.2-0.5-37.2-21.2-48.8c-19-10.6-28.3-38.2-18.9-59.4c4-9.1,10.4-15.5,19.9-18.5
		c5.7-1.8,11.5-3.3,17.3-4.8c10.6-2.6,19.7-7.8,27.7-15.2c2.6-2.4,5.5-4.9,8.1-7.3c8.2-7.8,17.8-13.4,28.4-17.4
		c4.4-1.7,8.7-3.4,12.9-5.6c6.4-3.4,11.1-8.5,14-15.2c5.4-12.8,0.2-26.8-12.6-31.7c-6.2-2.4-13.1-2.9-19.7-4c-6.2-1-12.5-1-18.6-2.2
		c-25.6-5.7-26.9-31.1-15.5-44.8c3.1-3.8,7-6.8,10.7-10.2c3.6-3.3,7.8-6.2,11-9.9c8.7-9.7,7.1-20-3.7-27c-3.7-2.3-7.9-4-11.6-6.3
		c-3.2-2.1-6.6-4.2-9.2-7.1c-8.1-9.3-6.5-21.4,3.3-28.6c3.1-2.3,6.5-4.3,9.9-6.3c9.9-5.8,16.9-13.9,19.7-25.1
		c3.3-12.8,11.1-21.7,23-27c18.5-8.2,32-21.7,43.6-37.9c5.6-7.8,11.9-15.1,18.9-21.7c11.1-10.4,24.6-16.4,40.2-16.5
		c17.9-0.2,28.9,9.2,31.9,26.8c1.7,9.9,1,19.7-1.7,29.4c-2.4,9-5.2,18-8.4,26.8c-3.9,11-7,22.3-8.5,34c-0.8,6-2,11.8-3.5,17.6
		c-2.7,10.6-9,18.7-18.9,23.5c-6.3,3.1-12.9,5.7-18.9,9.2c-16.9,9.6-28.2,23.6-32.1,42.9c-3.3,16.3,8.4,29.2,25,27
		c7-1,14-3.8,20.7-6.5c6-2.4,11.4-6.3,17.3-9.1c21.9-10.3,41-4.7,53.9,15.7c2.6,4.2,5.3,8.4,7.9,12.5c4.5,6.8,10,12.7,16.9,17.1
		c14.6,9,25.5,21.1,33.7,36c5.8,10.6,7,10.6,17.1,3.3c2.1-1.6,4.2-3,6.4-4.4c11.9-7,23.5-6.3,34,2.5c9.3,7.8,16.5,17.4,21.6,28.4
		c3.2,6.9,4.6,14.4,3.4,22.1c-2.1,14-13,22.5-27.1,21c-7.5-0.8-14.4-3.6-19-9.6c-5.6-6.8-10.6-14.1-15.4-21.5
		c-4.1-6.3-7.2-13.2-11-19.7c-3.1-5.3-4.9-5.7-10.1-2.6c-1.6,0.9-3,2-4.6,3c-9.3,6.4-19.5,10.2-30.8,9.5
		c-18.3-1.1-34.9,3.7-51.2,11.5c-10.3,5-21,9.1-31.7,12.9c-16.6,6.1-30.4,15.8-41.1,29.8c-9,11.7-18.1,23.5-26.4,35.7
		c-11.7,17.1-17,36.1-14.3,56.9c1.4,10.6,5.7,20.1,12,28.4c5.7,7.4,12.1,14.3,18.4,21.2s12.8,13.7,19,20.6c8,9,10.4,19.8,8.1,31.3
		c-1.7,8.4-4.2,16.6-7.1,24.7c-3.2,8.9-10.5,13.8-19.5,14.9c-13.9,1.9-27.9,2.8-41.9,4c-5.2,0.5-10.4,0.5-15.5,1
		c-7.6,0.7-13.9,4-18.8,10c-7.9,9.3-13.9,19.5-15.7,31.7c-1.1,6.9-1.8,13.9-2.7,21.5c2.4,0.3,4.3,0.8,6.3,0.8
		c56.9,0,114,0,170.9,0.1c3.7,0,6.1-1.1,8.5-4.1c4.1-5,8.8-9.6,13.7-13.8c6.9-5.9,14.4-11.1,21.4-17c10.3-8.4,21.9-13,35-13.9
		c13.9-0.9,27.1-4.6,40.2-9c11-3.6,22.7-5.5,34.1-8.2c6.3-1.5,12.9-2.3,18.8-4.8c18.7-7.5,28-23.3,26-43.3
		c-0.6-6.2-2.1-12.3-3.5-18.4c-5.6-22.9-1.2-43.3,13.8-61.5c5-6.1,9.7-12.2,14.8-18.1c8.8-9.9,20-14.6,32.9-11.6
		c12.3,2.8,25,6.1,36.2,11.6c15,7.5,19.7,22.1,18.8,38.2c-0.3,5.7-1.9,11.3-2.4,17c-1.4,11.9,1.2,16.5,11.6,22.2
		c1.4,0.8,2.7,1.5,4.2,2.1c17.3,7,26,21.1,30.4,38.2c4.2,16.1-0.3,27.3-14.4,36c-19.7,12.1-40.7,16.6-63.5,9.7c-5-1.5-10-2.9-15-4.1
		c-7.4-1.7-14.6-1-21.1,3.2c-17.8,11.6-27.7,28.8-35.3,49c48.5,0,96,0,144,0c6.1-19.1,23.3-26.2,39-34.8c14.6-8,30.4-10.5,46.9-8.2
		c15.5,2.2,31,2.1,46.6-0.7c25.9-4.7,40.7,5.1,47.9,30.4c1.2,4.2,2,8.6,2.9,13.2c2.1,0.2,4.1,0.5,6.2,0.5c6,0.1,11.8,0,18.3,0
		c0.9-7.2-0.1-13.6-1-19.9c-0.9-6.4-2.2-12.9-2-19.3c0.6-15.3,8.2-22.4,23.4-21.7c14.5,0.6,27.2,6.3,39,14.5
		c5.1,3.5,7.9,9.1,9.5,14.8c2.1,7.5,3.6,15.1,5.4,22.8c0.6,2.7,1.2,5.5,1.9,8.6c100.6,0,200.6,0,301.1,0c1.1-3.5,2.1-6.9,3.1-10.4
		c2.7-9.4,8.1-16.7,16.6-21.8c11.6-6.9,23-14.2,34.8-20.9c17.6-10,32-8.7,47.6,4.1c9.7,7.9,18.9,16.2,28.4,24.4
		c7.4,6.4,12.5,14.6,15.7,24.3c73.8,0,147.6,0,222.6,0c-1.9-5.6-3.3-10.7-5.1-15.7c-2-5.7-4.5-11.1-6.2-16.8
		c-3.4-11.5-1.1-22.2,6.3-31.5c10.4-13.3,24-21.2,40.5-24.3c3.8-0.7,7.7-1.2,11.5-2c10.4-2,18.4-7.4,23.1-16.8
		c3-6,5.3-12.4,7.9-18.7c3.1-7.4,6-14.9,9.7-22.1c7.1-14,13.9-27.9,18.5-43c4.5-14.6,1.1-26.7-10.6-36.3c-5.3-4.3-10.7-8.2-16-12.5
		c-9.2-7.6-16.5-16.5-19.2-28.6c-3.4-15.4,1.5-29.7,14.6-38.2c18-11.5,37-21.2,57.1-28.5c5.6-2.1,11.6-3,17.5-3.6
		c14.3-1.5,28.3-3.3,42.3-7c18.9-5.1,37.1-3,54.2,7.1c8.9,5.3,15.2,12.5,18.6,22.3c2.2,6.6,4.3,13.4,6.1,20.1
		c2.5,10.1,8.3,17.2,18,21c14.6,5.8,28.4,12.9,41.6,21.4c11.7,7.6,24.1,8.8,37.3,4.1c7.8-2.8,15.8-5.3,24.3-4.9
		c10.9,0.6,15.3,3.8,18.7,14.4c3.6,11.8,5.1,23.9,4.5,36.2c-0.9,21.4-19.6,40-42.3,41.9c-5.9,0.5-12,0.2-17.8-1.1
		c-16.9-3.5-33.8-5.5-51.1-5.6c-8-0.1-16-1.4-24-2.7c-4.6-0.8-9.1-2.4-13.3-4.4c-19.3-8.7-26-23.8-19.6-44c1.4-4.2,3.2-8.3,4.5-12.5
		c2.4-7.8,1.1-15-3.2-18.1c-4.5-3.1-12.3-2.1-18.7,3.5c-4.1,3.5-7.4,8-11,12c-7.3,8.1-14.1,16.8-22.2,24
		c-10.3,9.4-16.6,20.3-19.4,33.8c-1.3,6.1-3.3,12-6.2,17.6c-5.1,10-12.8,17.7-22.8,22.9c-4.9,2.5-9.7,5.1-14.6,7.4
		c-8.9,4.2-15,10.9-19,19.8c-0.9,1.9-1.9,3.8-2.4,5.8c-4,13.6-10.3,26-18.6,37.6c-7,10-4.4,18.1,6.4,23.6c3.7,1.9,7.6,3.3,11.5,4.7
		c6.6,2.2,11.3,6.4,13.4,13.1c2.3,7.6,4.2,15.4,6.4,23.8c4.1,1.4,72.9,2.1,87,0.4c2.6-8.1,5.2-16.6,8.1-24.8
		c2.2-6.3,4.6-12.8,7.7-18.8c6.3-11.7,17.6-15.8,29.8-10.5c5.2,2.1,10.1,5.7,14.2,9.5c15.1,14.2,20.2,22.3,28.9,44.9
		c18.5,0,37.1,0,56.5,0c1.2-7.8,2.2-15.4,3.4-23.1c0.6-3.9,1.1-7.7,1.9-11.5c1.6-7.9,5.2-14.8,11.5-19.9
		c18.5-14.8,37.8-28.4,59.4-38.6c0.7-0.3,1.5-0.3,2.2-0.4c0,31.7,0,63.5,0,95.2c-666.3,0-1332.8,0-1999.6,0c0-3.7,0-7.5,0-11.3
		c0-660.4,0-1320.9,0.1-1981.3c0-2.2-1.8-5.3,1.5-7c0,0.8-0.1,1.6-0.1,2.3c0,76.4,0,152.8,0,229.2c0,2.2,0.4,4.5,0.5,6.6
		c22,6.1,42.3,4.1,61.2-7.7c18.3-11.4,34.6-24.8,46.3-43.3c1.3-2,2.8-3.7,4.2-5.6c6.3-8.5,14.6-13.4,25.3-15.2
		c9.4-1.7,18.7-4.7,27.6-7.9c8.6-3,10.1-5.9,8.7-14.8c-1.3-8.2-3-16.3-5-24.4c-3.9-16.2,0.7-29.7,12.3-41.2
		c7.9-7.7,17.7-13,28.4-16.6c7.6-2.5,15.3-5.1,22.8-8c7.3-2.9,13.8-7.2,19-13.2c5.5-6.2,8-13.3,6.5-21.6c-1.1-6.2-2.4-12.2-3.7-18.4
		C323.2,0.7,389.8,0.7,456.4,0.7z M2.6,476c0.5,0.3,1.1,0.5,1.6,0.8c3.7-3.1,7.5-6.3,11.2-9.5c15.9-13.2,31.4-14.9,49.8-5.2
		c5.8,3,11.2,6.6,16.9,9.8c5.9,3.2,8,3.1,11.8-2.4c8.8-12.9,21-15.5,35.1-11.9c11,2.8,22,6.3,32.9,9.9c9.2,3,17.5,7.9,24.8,14.4
		c2.9,2.5,6.1,5,9.5,6.7c6.7,3.6,11.9,2.2,16.1-4.2c2.4-3.7,4.3-7.7,6.3-11.6c4.4-8.6,11.4-13.2,20.9-14.4c4.7-0.6,9.3-1,14-1.8
		c14.9-2.6,22.7-11.6,23.1-26.9c0.1-4.4-0.1-8.9-0.4-13.3c-0.8-12.9,0.4-25.4,4.8-37.6c1.6-4.3,2.1-9.2,2.2-13.8
		c0.1-7.3-3.5-11.6-10.6-13.5c-3.7-1-7.7-1.3-11.6-1.3c-12-0.1-23.9-1.3-35.5-4.9c-16.5-5.3-31.8-3.1-46.4,5.8
		c-2.4,1.5-4.9,2.9-7.5,4.2c-14.8,6.8-29.6,14.1-44.7,20.3c-14.8,6.2-30.5,6.6-45.9,2c-9.7-2.9-19.2-6.3-28.7-10
		c-11.3-4.5-20.7-11.7-28.6-21c-4.4-5.2-9.1-10.1-13.9-14.7c-1.9-1.9-3.9-4.2-7.3-3.7C2.6,377.5,2.6,426.7,2.6,476z M476,741.4
		c0.4,2.1,0.6,3.6,1.1,5.1c1.6,4.1,6.8,8.3,10,7.7c4.3-0.8,3.8-5,5.1-7.9c0.2-0.5,0.3-1,0.5-1.5c2.7-9.7,6.9-18.5,15.7-24.3
		c1.3-0.9,2.7-2,3.3-3.2c0.9-2,2.1-4.7,1.4-6.2c-0.8-1.6-3.8-2.6-5.9-2.6c-4.6,0-8.6,2.3-11.5,5.9c-5.9,6.9-11.5,14-17.1,21.2
		C477.2,737.2,476.7,739.6,476,741.4z M110.3,512c-0.1-6-3.7-12.1-7.9-14.2c-3.5-1.8-6.2-0.6-6.8,3.2c-0.9,5.1,3.4,14.3,7.8,16.9
		c2.8,1.7,5,1,6.2-2.1C110.1,514.4,110.1,512.9,110.3,512z"/>
	<path class="st0" d="M1346.1,0.7c2.7,4.7,5.1,9.6,8.1,14.1c15.9,23.6,13.7,43.1-7.3,62.2c-14.9,13.6-31.2,24.9-49.3,33.9
		c-12.3,6.1-23.9,13.6-35.7,20.7c-9.1,5.5-18,11.5-27.1,17c-23.8,14.1-43.4,32.2-55.9,57.2c-9,18.1-23.2,29.5-42.1,36
		c-8.1,2.8-15.9,6.4-24,9.2c-5.9,2.1-11.9,4-18,4.9c-13.4,2-22.2-2.9-27.2-15.4c-7.1-17.6-13.5-35.6-15.8-54.5
		c-2.1-16.7-7.4-31.4-18-44.8c-11.5-14.6-11.8-31.9-2.4-46.6c8.6-13.5,25.4-20.8,41.2-17.8c4.9,1,9.6,2.4,14.4,3.6
		c10.6,2.7,18.9-0.6,25-9.7c2.3-3.4,4.6-6.9,6.7-10.4c8.4-13.6,20.7-21.7,36-25.3c3.5-0.9,7.1-1.5,10.6-2.3
		c17.3-4.6,23.8-13.7,23.1-31.8C1241,0.7,1293.6,0.7,1346.1,0.7z"/>
	<path class="st0" d="M2000.2,1313.5c-2,1.7-4.1,3.2-5.7,5.2c-8.6,10.1-17.2,20.2-25.6,30.5c-6.5,7.8-9.9,17-10.7,27.2
		c-0.4,4.4-0.9,8.8-1.4,13.2c-2.1,17.4-10.5,31.4-23.4,42.9c-3.9,3.5-9.4,5.5-14.3,7.7c-3.3,1.5-6.9,2.2-10.5,2.9
		c-9,1.8-14.6,6.8-17.9,15.5c-6,15.4-7.9,16.3-24.4,15.5c-3.9-0.2-7.8-0.2-11.7-0.1c-4.5,0.1-7.3,2.4-8.5,6.6c-1.1,4-2.1,8-3.2,12.1
		c-6,22.2-23.3,33.4-46,29.5c-4.6-0.8-9.2-2.1-13.6-3.5c-12.6-4.1-23.7-2.3-34.5,5.9c-15.4,11.9-28.5,10.9-43.5-2.1
		c-10-8.7-16.7-19.1-19-32.2c-1-5.7-2.7-11.1-3.5-16.8c-2.1-14.1-9.3-25.2-19.1-34.9c-5.4-5.3-11.1-10.2-16.4-15.5
		c-7.6-7.7-11.5-17.1-11.3-28.1c0.2-10.3,3.8-18.9,11.9-25.2c9.9-7.6,19.8-15.2,30.3-22c15-9.8,31.2-6.4,41.7,8.1
		c2.7,3.7,4.5,8.2,6.5,12.4c0.9,1.9,1.5,3.9,1.9,6c3.5,17.4,14.4,26.5,31.8,28c3.1,0.3,6.2,0.9,9.2,1.7
		c13.9,3.5,22.6,12.2,26.3,26.1c1.4,5,2.3,10.2,3.8,15.1c3.5,11.8,11.3,18.4,23.7,19.1c1.6,0.1,3.1,0.3,4.7,0.3
		c11.9,0.1,13.2-0.6,15.4-12.5c2.3-12,7.3-22.1,18.1-28.7c7-4.3,9.8-11.1,10-19.2c0.2-8.2-1.2-16-4.5-23.5
		c-2.3-5.2-4.7-10.4-6.6-15.8c-3-8.1-2.7-16.3,0.5-24.4c0.6-1.5,1.1-2.9,1.9-4.3c14.7-25.1,28.8-50.6,49-72.1
		c22.6-23.9,57.6-32.2,88.9-20.5C2000.2,1266.6,2000.2,1290.1,2000.2,1313.5z"/>
	<path class="st0" d="M1872.2,0.7c0.7,6.5,5.2,10.7,9.7,14.5c5,4.1,10.6,7.4,16.1,10.9c4.2,2.6,8.7,4.7,12.7,7.5
		c15.5,10.9,17,31.5,2.9,44.4c-3.6,3.3-7.8,6.1-12,8.6c-10.8,6.4-17.8,15.8-21.2,27.8c-0.7,2.2-1.4,4.5-2.1,6.7
		c-2.9,10.2-8.7,18.1-17.5,24.1c-8.1,5.6-16,11.5-24,17.4c-7.8,5.9-16.5,7.1-25.9,5.3c-8.5-1.7-13.9-6.6-16.5-14.8
		c-3-9.4-2.4-18.5,1.5-27.4c1.8-4,3.9-7.9,5.6-12c5.2-13,1.1-23.8-11.4-29.9c-4.2-2.1-8.8-3.3-13.1-5.1c-3.8-1.6-7.8-2.8-11.4-4.9
		c-14.6-8.2-19.9-25.2-12.5-40.3c2.1-4.2,4.9-8,7.1-12.1c3.6-6.8,7-13.9,10.5-20.8C1804.5,0.7,1838.3,0.7,1872.2,0.7z"/>
	<path class="st0" d="M890.3,0.7c-6.2,18.9-16.7,35-31.5,48.3c-5.3,4.8-10.7,7.3-18,7.7c-7.6,0.5-15.3,2.3-22.8,4.5
		c-9.3,2.7-18.6,5.6-28.2,4.1c-5.8-0.9-11.6-2.8-17-5.3c-11.5-5.3-23-6.2-34.8-1.4c-11,4.5-22.5,4.6-33.7,1.8
		c-13.8-3.5-27.3-8-40.8-12.7c-9.6-3.4-18.9-7-29.1-8.2c-2.8-0.3-5.6-1.1-8.3-2c-18.7-5.9-26.2-17.1-24.6-36.9
		C697.8,0.7,794.1,0.7,890.3,0.7z"/>
	<path class="st0" d="M2000.2,1093.4c-3.2,1.5-6.7,2.6-9.8,4.5c-4,2.4-7.7,5.3-11.4,8.1c-11.8,9-24.7,10.1-38.4,5.3
		c-1-0.4-2-0.8-2.9-1.2c-10.4-4.1-20.7-8.2-31.2-12.2c-7.5-2.8-8.4-4.9-4.9-12.2c2.4-5.2,4.9-10.4,7.2-15.5
		c6.8-14.8,13.7-29.8,23.1-43.3c8-11.2,14.8-23.2,19.9-36.1c1.6-3.8,3.5-7.5,5.4-11.2c5.1-10.3,13.3-15.7,24.8-15.9
		c6-0.1,11.9,0.1,18,0.1C2000.2,1007,2000.2,1050.2,2000.2,1093.4z"/>
	<path class="st0" d="M2000.2,828c-7.8-2-14.1-6.7-19.3-12.4c-11.7-12.5-23.9-24.4-36.7-35.8c-16.1-14.5-18.6-40.2-7-58.6
		c3.3-5.2,7.6-9.3,13.1-11.9c16.6-7.9,33.3-15.6,49.9-23.3C2000.2,733.3,2000.2,780.7,2000.2,828z"/>
	<path class="st0" d="M2000.2,556.4c-20.3-9.1-39.1-20.7-54.1-37.4c-6.2-6.7-12.5-13.2-18.5-20.1c-5.2-6-7.7-12.9-6.4-20.9
		c1.4-8.5,5.6-13.3,14.2-14.2c5.4-0.6,11-0.6,16.2,0.7c16.9,4.3,33.4,9.8,48.6,18.5C2000.2,507.5,2000.2,531.9,2000.2,556.4z"/>
	<path class="st0" d="M1684.9,0.7c-5.9,26.4-24.2,40.4-51,38.9c-2.5-0.1-5.2-0.4-7.7-0.8c-9.1-1.1-18.1-0.7-27,1.8
		c-5.3,1.4-10.6,2.4-16,2.7c-12.4,0.6-19.5-4.7-23.1-16.5c-2.6-8.5-3.2-17.3-1.6-26.1C1600.6,0.7,1642.7,0.7,1684.9,0.7z"/>
	<path class="st0" d="M2000.2,7c-7.7,17.7-22.2,25.3-41.8,22.7c-17.7-2.4-29.6-11.5-34.7-28.9c25.5,0,51,0,76.5,0
		C2000.2,2.8,2000.2,4.8,2000.2,7z"/>
	<path class="st0" d="M2000.2,316c-3.4-1.9-7-3.4-10.3-5.5c-9.1-6.1-13.1-14.7-11.1-25.4c2.5-14.3,10.4-25.6,21.4-34.7
		C2000.2,272.3,2000.2,294.2,2000.2,316z"/>
	<path class="st0" d="M74,0.7c-8.4,15.1-22,20.5-38.3,19.6C22.8,19.6,13.2,13.2,8.5,0.7C30.3,0.7,52.1,0.7,74,0.7z"/>
	<path class="st0" d="M731.8,1152.6C711,1083.5,805.7,970.1,844.4,923c34.4-41.9,55.8-77.9,109.5-89.4
		c61.2-13.2,64.4-21.9,62.2-85.9c-0.9-27.4,4.4-93.7,43.8-67.3c18.5,12.4,22.4,58.7,38.2,71.6c30.2,24.7,168.9-39,147.7,48.3
		c-7.7,31.6-54.4,21.3-74,53.5c-21.2,34.9-0.4,84.9-43.8,107.1c-65.4,33.5-90.8-68-153.6-37.2c-54.4,26.6-115.2,57.2-121.8,117.8
		c-4.7,43.3-7.9,76.2-37.8,112.8C785.1,1190.7,747.7,1205.6,731.8,1152.6z"/>
	<path class="st0" d="M498.9,1326.4c-3.4-0.2-6.7-0.4-10.2-0.6c-10.3-0.4-19.3,2.5-27.7,8.6c-9.9,7.1-20.2,13.7-30.5,20.2
		c-5.4,3.4-11.4,5.2-17.8,4.9c-12.7-0.4-22.7-5.5-28.5-17.2c-2.5-5.1-5-10.4-6.7-15.7c-5.1-15.7-12.5-30.2-22.2-43.7
		c-3.3-4.6-6.1-9.7-8.6-14.8c-4.6-9.5-6-19.3-3.1-29.6c0.1-0.5,0.2-1.1,0.3-1.6c4.3-13.8,3.3-26.9-3.6-39.9c-4.7-9-6.8-19-7.9-29.2
		c-1-8.5-2.9-16.9-3.8-25.5c-1-9.3-1.6-18.7-1.8-28c-0.3-17-5-24-21.3-29.2c-10.1-3.2-19.2-7.8-27-15.1c-4.9-4.6-8.7-9.8-10.2-16.3
		c-0.9-3.7-1.4-7.8-1-11.5c1.4-12.3,13-19.9,25-16.7c5.2,1.4,9.5,4.3,12.9,8.3c2.3,2.8,4.6,5.7,6.7,8.6c4.7,6.3,10.7,8.7,18.5,7.3
		c3.3-0.6,6.6-1.4,10-1.7c4.1-0.3,8.3-0.7,12.4-0.1c7.9,1.1,13.4,5.7,15.5,13.5c1.3,4.5,2,9.2,2.7,13.8c2,11,8.1,17.8,19.2,19.7
		c2.1,0.4,4.1,0.9,6.2,1.2c8.5,1.2,15,5.4,19.9,12.3c7.3,10.4,15,20.6,22,31.3c8.4,12.8,19.4,19.9,35.2,18.7
		c8.7-0.7,16.8,2.1,23.4,7.2c15,11.4,32.5,17.1,50.1,22.9c5.6,1.9,10.6,5.3,15.9,8c6.8,3.6,13.6,7.6,20.6,11
		c7.3,3.6,14.6,3.3,21.4-1.5c7.4-5.2,15.8-6.7,24.5-5.8c11.6,1.3,23.3,2.2,34.8,4.7c24.3,5.3,44.2,17.6,58.2,38.7
		c5.1,7.7,8.1,16.3,9.2,25.5c1.1,8.6-1.1,16.6-5.7,23.8c-4.4,6.8-10.8,10.6-18.8,10.9c-7.5,0.3-15-0.1-22.6-0.9
		c-12.3-1.4-18,1.8-22.1,13.4c-6.4,18.2-12.8,36.2-19.2,54.4c-4.3,12-11,22.4-19.9,31.3c-10.5,10.6-22.5,13-35.5,5.5
		c-11-6.3-21.4-13.8-31.5-21.5c-7.4-5.6-11.9-13.7-14.8-22.5c-2.4-7.4-4.9-14.8-7-22.4c-2.6-9.7-9.2-14.2-18.8-14.6
		c-5.7-0.3-11.4-0.1-17.2-0.1C498.9,1326.5,498.9,1326.5,498.9,1326.4z"/>
	<path class="st0" d="M1127.8,1919.1c-11.1-0.4-22.4-0.4-33.4-1.4c-6.9-0.6-13.9-2.2-20.7-3.9c-12.7-3-25.1-3.2-37.8,0.3
		c-11.8,3.3-23.7,5.9-36.1,3.7c-19.2-3.3-32.8-13.7-40-31.9c-1.7-4.1-2.7-8.4-4.1-12.6c-3.1-9.8-7.7-18.7-14.6-26.5
		c-3.9-4.5-7.1-9.6-10.9-14.3c-10.7-13.4-23.4-16.9-39.6-11.1c-2.4,0.9-4.9,1.9-7.2,3c-7.8,4-15.5,3.7-23.2,0.1
		c-1.7-0.8-3.3-1.6-4.9-2.4c-11.3-6.5-23.3-10.9-36.4-13.1c-7.8-1.3-15.5-4.3-22.8-7.8c-9.8-4.8-14.1-13.1-12.8-22
		c1.4-10.2,8.4-17.9,18.9-20.3c9.6-2.2,18.8-0.7,26.8,5c5.1,3.6,9.6,7.9,14.1,12.2c4,3.7,7.8,7.7,11.3,11.8
		c8.8,10.1,29.5,12.5,40.3-0.2c8.7-10.2,20.4-16.9,32.2-23c11.1-5.7,23-8.3,35.5-5.1c16.6,4.3,27,16.4,27.6,33.5
		c0.3,6.9-1.3,13.9-2,20.9c-0.4,3.9-1.3,7.8-1,11.6c0.7,7,6.5,9.8,12.4,6c3-2,5.7-4.6,7.9-7.4c5.8-7,11.4-14.2,16.6-21.7
		c10.9-15.8,26.5-23.6,44.9-26.7c4.1-0.7,8.2-1.2,12.4-1.8c17.8-2.5,33.2-10.3,43.5-24.9c11-15.7,24.8-26.2,43.2-31.3
		c5.2-1.5,9.8-4.9,14.7-7c5.2-2.2,10.4-4.6,15.9-6.1c7.9-2.1,14.6,0.8,18.8,7.6c2.7,4.4,4.9,9.2,6.9,14
		c6.2,14.8,12.1,29.8,18.2,44.7c0.9,2.1,1.8,4.3,2.5,6.5c6.2,19,1,32.1-16.5,41.9c-8.5,4.7-17.3,8.3-27.1,9.4
		c-3.8,0.4-7.7,1.3-11.4,2.4c-6.6,2.1-10.4,6.8-10.8,13.8c-0.3,4.9-0.1,10,0.7,14.7c3.3,19.7-2.6,37-13.3,53.1
		c-3.3,5.1-8.1,6.8-14.1,6.6c-8.3-0.3-16.6-0.1-24.9-0.1C1127.8,1919.4,1127.8,1919.2,1127.8,1919.1z"/>
	<path class="st0" d="M767.3,678.1c0.8-3.6,2-10,3.5-16.2c1.1-4.3,2.5-8.5,4-12.6c7.9-21.3,13.3-43.2,16-65.7
		c0.7-5.4,2.3-10.6,3.8-15.9c3.7-13.8,7.6-27.5,11.4-41.3c0.8-2.7,1.4-5.6,2.3-8.2c3.3-8.8,10.7-13.5,20.1-12.9
		c3.6,0.2,7.2,1,10.8,1.1c10.6,0.4,15.8-3,19.6-13c2.1-5.6,3.9-11.3,6.1-16.9c4.9-12.8,12.6-23.3,24.6-30.2
		c15.2-8.6,23.3-21.6,25.9-38.6c1.4-9.1,4.6-17.6,9.4-25.5c10.5-17.1,29-23.8,48-16.9c6.1,2.2,11.7,5.5,17.5,8.6
		c10.7,5.8,21.2,12.2,32.1,17.7c13.9,6.8,23.9,16.8,30.6,31c5.2,11,11.5,21.5,17.8,32c8.9,14.9,10.3,30.3,3.4,46.3
		c-7.7,18.2-23.8,27.1-43.4,24c-5.9-1-11.7-2.3-17.6-3.5c-9.2-1.9-17.6-0.1-25.2,5.3c-5.1,3.6-10.2,7.2-15.2,10.9
		c-11.2,8.1-23.3,9.7-36.2,4.9c-4.6-1.7-9.1-3.8-13.7-5.6c-4.1-1.6-8.3-3.2-12.5-4.2c-11.7-2.4-22.2,0.3-29,10.4
		c-8.9,13.3-20.3,23.5-33.7,31.8c-2.6,1.7-5,3.8-7.2,5.9c-7,6.4-10.5,14.6-8.2,23.8c4.3,17.2,6.4,34.6,7.3,52.3
		c0.4,7.5,4.2,14.9,6.2,22.5c1.4,5.3,3.2,10.6,3,15.9c-0.5,20-18.4,33.5-38.5,29c-11.8-2.6-22.5-8.2-31.7-16
		C770.3,701.1,767.4,691.6,767.3,678.1z"/>
	<path class="st0" d="M1235.9,426.7c0.9-10.6,3.5-20.3,9-29.2c3.3-5.3,7.1-10.3,10.6-15.4c6.7-9.9,13.4-19.7,20.1-29.6
		c0.9-1.3,1.7-2.6,2.5-3.9c8.4-12.4,21.4-14.1,32.6-4.1c4.5,3.9,7.5,8.9,8.6,14.6c1.5,8.1,2.7,16.4,2.8,24.7
		c0.2,10.3,2.4,19.6,8.4,27.9c7.6,10.4,9.1,21.9,7.3,34.2c-0.4,3.1-0.9,6.2-1.5,9.3c-2.1,11.8,1.7,21.5,10.3,29.6
		c2.2,2.1,4.6,4.3,7,6.2c11.4,8.4,20.8,18.8,28.4,30.8c4.3,6.8,8.9,13.5,13.2,20.2c4.1,6.5,6.3,13.7,5.9,21.5
		c-0.1,1.9,0,3.6,0.1,5.5c0.3,7.5,4,12.8,10.8,15.6c6,2.5,12.1,4.8,18.2,7.2c10,3.9,17.9,10.1,24.2,18.8
		c10.1,13.9,21.2,27,28.3,42.9c2.1,4.8,6.2,7.7,11,9.3c5,1.6,10,3.1,14.9,4.4c22.7,5.8,30.5,37.8,15.8,55.9
		c-9.5,11.7-28.6,10.6-37.2-1.8c-5.2-7.4-7.4-15.9-8.5-24.8c-0.7-5.4-1.6-10.8-2.5-16.1c-1.5-7.2-6-11.2-13.2-12.4
		c-13.9-2.1-27.7-4.3-41.6-6.5c-9.3-1.5-18.5-3-27.7-4.6c-2.5-0.4-5.1-1-7.6-1.5c-15-2.8-23.9-11.7-26.2-27.1
		c-0.3-1.8-0.7-3.6-1.3-5.3c-2.4-7.6-7-9.9-14.4-6.5c-4,1.9-7.4,4.8-11.2,7c-4.7,2.7-9.3,6-14.4,7.6c-12.5,4.2-24.5-0.1-32.5-10.7
		c-4.8-6.3-8.1-13.5-9.1-21.3c-1.1-8.8-1.8-17.6-2.1-26.4c-0.7-20.2-0.7-40.5-3.6-60.6c-2.1-14.8-7.5-28-16.8-39.7
		c-6.1-7.6-11-15.8-14.2-25C1238.6,440.4,1237.4,433.5,1235.9,426.7z"/>
	<path class="st0" d="M1707.7,742c-0.5,5.5-0.8,10.9-1.6,16.3c-2,13.8-7.4,26.1-17.5,35.8c-11.9,11.5-18,25.5-21.6,41.5
		c-5.8,26-15.2,50.8-29,73.7c-6.1,10.1-11.3,20.4-14.2,31.9c-1,3.7-2.7,7.3-4.8,10.6c-4,6.5-10.3,9.4-17.8,9.4
		c-6.8,0-12-3.1-14.6-9.7c-1.6-3.8-2.6-7.9-4.2-11.7c-4.2-10.5-12.1-14.8-23-11.7c-5.2,1.5-10.3,4-14.6,7.2
		c-6.1,4.5-11.2,10-17,14.9c-3.7,3.2-7.4,6.6-11.5,9.3c-8.7,5.5-17.6,4.2-24.8-3.1c-4.8-4.8-7.3-10.7-8.1-17.4
		c-1.8-14.8,2-28.4,10.3-40.7c4.1-6.1,9.9-10,16.9-11.9c6.7-2,13.6-3.6,20.3-5.6c7.9-2.2,14.9-6.1,20.5-12.2
		c7.9-8.8,9.1-18.7,2.7-28.6c-3-4.8-6.6-9.4-10.4-13.6c-12.2-13.7-13-28.9-6.2-45.1c7.4-17.7,18.9-31.3,37.3-38.9
		c20.7-8.4,38.8-21.1,55.5-35.8c3.7-3.2,7.5-6.4,11.5-9.3c11.5-8,24.1-10.4,37.9-6.8c13,3.4,21.7,11.4,24.7,24.4
		c2.1,8.8,2.7,17.9,4,26.9C1708.3,741.9,1708,742,1707.7,742z"/>
	<path class="st0" d="M1852.3,1165.3c-0.8,4.9-0.9,11.6-2.8,17.7c-5.5,17.1-11.3,34.1-17.9,50.7c-5.9,15-17.8,23.2-33.7,25.7
		c-10.7,1.7-20.7-0.8-29.8-6.5c-4.6-2.9-8.9-6.3-13.3-9.6c-7-5.3-14.2-6.4-22.7-3.2c-15.4,5.9-31.4,7.1-47.5,2.8
		c-4.2-1.2-8.4-2.9-12-5.4c-7.8-5.3-14.3-12.1-19.2-20.2c-4.1-6.5-6.3-13.7-6.2-21.5c0.1-4.4,0.2-8.9,0.7-13.2
		c2.6-22.3,0.4-44-4.5-65.8c-1.5-6.5-2.5-13.3-2.8-20c-0.5-11,4.1-20.2,12.7-27.2c9-7.3,19.2-12.5,30.6-15c5.5-1.2,11.4-1,17-0.3
		c9.6,1.3,16.1,6.6,19.2,16c1.9,5.7,3.6,11.4,6,16.9c6.1,14.4,17.4,21,32.9,19.4c4.4-0.4,8.8-1.3,13.1-1.9c13.8-2,27-0.7,39.2,6.5
		c5.2,3,10.5,5.8,15.9,8.2c14.5,6.4,21.7,18.1,23.9,33.2C1851.8,1156.5,1851.9,1160.2,1852.3,1165.3z"/>
	<path class="st0" d="M1252.2,1049.4c-25.6,1.6-65.1-13.8-75.2-39.1c-4.5-11.3-7.4-30.2,1.9-40c9.4-9.9,28.1-9.9,39.7-17
		c13.4-8.2,20.9-22.9,34.6-30.5c15.1-8.3,36.8-9.2,53.2-5.3c25.9,6.2,38.5,24.8,41.3,50.3c1.7,15.4-0.8,31,7.8,44.7
		c8,12.6,22.3,19.2,28.8,33.1c16.4,34.9-12.2,49.9-35,69.4c-22.8,19.6-61.4,28-72.6-9.9C1269.2,1079.7,1295.8,1045.8,1252.2,1049.4z
		"/>
	<path class="st0" d="M419,1045.5c0.3-11.4,3.4-20.2,8.8-28c14.9-21.8,34-37.7,60.4-43.8c12.7-2.9,23.7-9.1,32.7-18.8
		c6.4-6.9,14.3-12,23-15.8c14.4-6.3,28.9-12,44.6-13.4c7.9-0.7,16,0.1,23.9,1.2c8.8,1.3,15.9,6.2,21.4,13.2
		c6.6,8.5,12.2,17.5,13.9,28.4c2.2,14.8-3.4,23.4-17.9,27c-2.5,0.6-5.1,1.2-7.6,1.8c-10.4,2.3-18.8,7.8-23.8,17.4
		c-10,18.6-25.2,31.5-43.1,41.8c-3.8,2.1-7.7,4.4-11.5,6.6c-10.7,6.3-16.4,15.9-16.7,28.2c-0.2,6.7,1.1,13.4,1.6,20.1
		c0.3,3.9,0.8,7.8,0.4,11.6c-0.8,6.9-5,11.2-11.8,12.8c-8.5,1.9-16.6,1-24-3.7c-10.2-6.4-19.6-13.9-26.5-23.9
		c-8.3-12.2-18.3-22.6-30.4-31C424.8,1069.1,419.4,1057.6,419,1045.5z"/>
	<path class="st0" d="M1498.6,1546.9c12.1,0.7,23,3.9,32.3,11.1c11.1,8.5,23.5,13.8,37.2,17.2c19.9,4.9,28.2,20,22.1,39.8
		c-1.8,5.6-5,10.9-8.5,15.6c-5,6.6-10.8,12.6-16.5,18.7c-5.8,6.2-10.7,12.7-14.1,20.4c-5.5,12.5-14.2,22.3-25.1,30.2
		c-8,5.8-16,11.6-24.3,17c-4.8,3.1-9.9,5.9-15.2,7.8c-19,7-37.4-3.9-40.6-24c-2-11.9,0-23.4,5.9-34c4.6-8.1,10.1-15.7,15.3-23.4
		c4.2-6.2,7.4-12.4,7.4-20.1c0-6.4-1.4-12.4-4.3-18c-2.5-4.9-5.3-9.6-7.6-14.6c-2-4.2-4-8.5-5.1-13c-3.1-11.8,1.5-20.8,13.2-24.4
		C1479.7,1550.5,1489.3,1549.1,1498.6,1546.9z"/>
	<path class="st0" d="M1685.1,220.5c0.2,18.2-9,35.6-22.9,50.8c-3.5,3.8-8.8,6.3-13.7,8.5c-3.9,1.8-8.5,2.5-12.9,2.8
		c-14.5,1-25.6,7.6-34.4,18.8c-2,2.4-4.1,4.7-6.3,6.9c-5.4,5.5-12,8-19.6,8.3c-8.5,0.3-15.1-3-19.4-10.4c-4.3-7.3-6.1-15.3-6.8-23.7
		c-1.3-14.5-2.5-28.9-4.2-43.4c-1.6-13.5,1.5-25.7,8.4-37.2c13.6-22.7,55.8-48,92.7-35.9c1.5,0.5,2.9,1,4.4,1.5
		C1675.9,176.6,1685.4,190.4,1685.1,220.5z"/>
	<path class="st0" d="M1828.1,535.6c2.8,17-3.9,32.4-19,44.4c-9.9,7.8-16.3,18-20.6,29.7c-2.3,6.6-5.2,13.1-8.3,19.3
		c-2.1,4.1-4.6,8.2-7.7,11.6c-10.7,11.9-27,14.1-40.2,5.2c-9.9-6.6-17-15-17.4-27.9c-0.3-10.2-1.7-20.2-2.1-30.4
		c-0.2-4.3,0.5-8.9,1.6-13.1c2.1-8,6.8-10.8,15.2-9.8c3.6,0.5,7.1,1.6,10.7,2.1c4.6,0.8,9.3,1.7,13.9,1.8
		c8.3,0.3,14.9-3.5,18.4-10.9c2.7-6.1,4.3-12.7,5.6-19.3c1.2-6.1,1.4-12.4,2.1-18.6c0.8-7,2.7-13.8,6.7-19.7
		c4.8-7.1,11.1-11.5,20-11.5c8.7,0,14.5,3.8,16.9,12.2c1.5,5.2,2.1,10.6,2.8,16.1C1827.3,522.4,1827.5,527.9,1828.1,535.6z"/>
	<path class="st0" d="M1480.2,164.6c-0.5,7.7-1.1,12.9-1.2,18.1c-0.2,21.6-11,36.9-28.7,47.9c-13.4,8.2-28,12.2-43.9,10.5
		c-24.4-2.5-39.1-23.6-33.1-47.5c3-12,9.5-21.9,19-29.6c1.9-1.5,3.6-2.9,5.7-4.1c15.5-8.6,30-18.7,41.9-32c1.6-1.7,3.6-3,5.6-4.3
		c12-7.7,25.3-4.1,31,9.1c2.2,5.1,3,10.9,3.5,16.6C1480.7,155.1,1480.2,161.2,1480.2,164.6z"/>
	<path class="st0" d="M1862.2,910.8c0,9.6-1.9,17.6-6.2,24.9c-7.4,12.8-20.6,17.9-34.7,13.4c-11.6-3.7-21.2-10.8-29.8-19.3
		c-10.4-10.3-20.4-20.7-31.1-30.6c-15.1-14-17.6-36.1-4-54.3c9.3-12.3,24-16.4,38.2-10.3c4.2,1.9,8.1,4.6,11.9,7.2
		c9.4,6.4,18.4,13.7,28,19.6C1853.8,873.1,1861,890.7,1862.2,910.8z"/>
	<path class="st0" d="M1373.7,749.4c14.9,0,27.2,3.2,38.6,9.2c16.3,8.6,21.6,23.7,23.3,40.6c0.5,4.6-0.1,9.4-1.2,13.9
		c-2.7,11.9-10.1,20.1-22.1,22.6c-7.5,1.6-15.5,2.2-23.1,1.6c-14.6-1.4-28.3-6.4-40.5-14.7c-13.2-9-18.4-21.9-14.2-37.2
		c2-7.2,5.3-14.1,8.5-20.8c4-8.4,10.8-13.1,20.1-14.1C1367.3,749.9,1371.4,749.6,1373.7,749.4z"/>
	<path class="st0" d="M1101.7,562.3c6.8,0.2,17.5,2.6,27.8,6.2c11.3,3.9,17.4,12.1,18.6,23.6c1.9,18.8-4.8,34.9-18.7,47.4
		c-11.4,10.4-30.2,9.8-44-0.2c-16.3-11.6-24.9-36.2-19.5-55.5C1070,568.9,1080.3,562,1101.7,562.3z"/>
	<path class="st0" d="M1585.3,644.5c-5.4-0.8-10.9-1.1-16.1-2.5c-14.2-3.9-18-18.9-7.3-29.2c3-2.9,7.2-5.4,11.2-6.5
		c7.7-2.2,15.6-4.2,23.5-4.8c14.6-1.1,27.9-5.2,39.7-14.2c7.2-5.6,15.6-8.2,24.8-7.9c9.3,0.4,15.1,5.2,16.8,14.4
		c1.7,9.5-1,17.5-8.9,23.4c-0.2,0.2-0.4,0.3-0.7,0.5c-25.7,12.7-51.4,25.1-80.8,26.5c-0.8,0-1.6,0-2.3,0
		C1585.3,644.2,1585.3,644.3,1585.3,644.5z"/>
	<path class="st0" d="M719.3,1838.6c-1.3,3.6-2,7.6-3.9,10.7c-5.6,9-16.8,9.8-23.6,1.8c-2.6-3.1-4.8-6.7-6.9-10.4
		c-3.8-6.5-9.2-10.3-16.8-11c-5.4-0.6-10.8-1.4-16.1-2.7c-18-4.5-26.7-21.9-19.3-38.9c5.7-13.1,15.9-20.9,29.8-23.8
		c9.3-2,16.3,1.3,21,9.6c1.9,3.3,3.2,7.1,4.1,10.8c1.6,6.1,2.7,12.2,3.7,18.3c1.4,8.1,5.5,13.9,13.2,17c2,0.8,3.7,1.9,5.6,2.8
		C715.8,1826.3,718.5,1831.6,719.3,1838.6z"/>
	<path class="st0" d="M933.5,85.4c-5.7-0.9-11.2-1.8-16.9-2.7c-3.6-0.6-7.1-1.4-10.7-1.9c-6.2-0.8-11.1,1.3-15.2,6
		c-4,4.8-8,9.6-12.5,13.9c-14.1,13.5-27.5,9.8-33.5-8.9c-2.6-8.4-1.6-16.4,2.6-24c3.1-5.6,7.6-8.4,14.1-7.3
		c4.4,0.7,8.7,1.3,13.1,2.1c6.7,1.3,12.7-0.1,18.7-3.5c4.7-2.7,9.7-5.1,14.7-6.8c7-2.4,14.1-1.6,20,2.9c6.3,4.8,12.6,10.1,18.3,15.7
		c5.4,5.4,3.7,10.6-3.4,13C939.8,84.7,936.6,84.9,933.5,85.4z"/>
	<path class="st0" d="M225.6,1009.1c-0.1,14.4-10.4,23-24.6,20.7c-17.1-2.8-33.1-21-33.6-38.1c-0.5-15.6,9.7-24.8,25.3-22.8
		C211.6,971.5,225.8,988.7,225.6,1009.1z"/>
	<path class="st0" d="M333.2,1757.8c0-20.3,14.6-36.5,32.1-37.3c17.7-0.8,29.4,12.7,25,29.8c-4.2,16-14.9,26.5-31,31
		c-7.7,2.1-14.4-0.3-19.6-6.3C335.2,1769.5,333.3,1763.2,333.2,1757.8z"/>
	<path class="st0" d="M1487.3,1374.7c0.8-2.8,2-8.8,4.1-14.2c2.5-6.4,8.1-9.4,14.8-9.4c9.3-0.1,16.8,3.9,21.8,11.5
		c6.4,9.9,8.2,20.7,4.7,32.1c-2.7,9-9,14.5-18.5,15.7c-9.1,1.2-15.4-3.4-20.2-10.5C1489.8,1393.2,1487.7,1385.8,1487.3,1374.7z"/>
	<path class="st0" d="M103.9,1176.5c-16.9-0.5-34.4-16.5-36.1-31.8c-0.9-7.2,2-12,8.7-14.7c12.9-5.3,32.7,0.1,40.9,11.2
		c5.9,8,6.4,16.8,2.4,25.8C116.4,1174.2,110,1176.5,103.9,1176.5z"/>
	<path class="st0" d="M1814.6,1075.3c-12.1,0.1-19.5-6.2-21.6-18.1c-3.2-19.3,13.8-35,32.7-29.9c10.4,2.7,14.8,10.7,16.9,20.4
		c2,9.5-2,16.7-9.7,22.2C1827.5,1073.8,1821.2,1075.1,1814.6,1075.3z"/>
	<path class="st0" d="M1335.7,721.2c-0.2,1.6-0.2,3.4-0.6,5.2c-1.6,8.2-6.3,11.9-14.4,10.4c-14.1-2.6-24.8-10.4-31.3-23.1
		c-5-9.8-2.4-20.7,5.2-25.9c8.6-5.8,21.6-4.7,28.5,3C1330.7,699.3,1335.4,709.3,1335.7,721.2z"/>
	<path class="st0" d="M239.9,811.3c-5.6,0.2-12-5.5-12.1-10.8c-0.1-3.9,2.8-6.6,7.6-6.9c6.4-0.3,11.9,3.7,12.3,9.1
		C248,807.3,244.6,811.1,239.9,811.3z"/>
	<path class="st0" d="M1011.9,1278.2c45.2-6,96.2,61.9,130.9,45.6c44-20.6-25.4-63,1.4-99.3c67.6-91.5,151.6,87.2,177.6,115.7
		c28.1,30.8,92.2,19.2,116.1,49.4c16.2,20.6,4.6,64.2-23.7,77.4c-48.2,22.4-87.8-44.8-134.6-37.9c-48.6,7.1-29.7,43.7-69.8,61.5
		c-18.3,8.1-33.2-1.1-50,1.7c-22.2,3.7-34,11-54.2,17.6c-37.3,12.2-78.2,14.5-81.3,49.7c-1,11.3,22.5,26.6,21.9,42
		c-1.2,31.6-20.3,39-46.9,47.6c-25.1,8.1-114.5,4-135-9.4c-55.4-36.3,35.6-56.7,40-93.4c4.3-35.5-60.8-68.1-6.3-103.3
		c44.3-28.6,61.8,18.1,52.3-47.5C941.5,1333.9,930.2,1294.8,1011.9,1278.2z"/>
</g>
</svg>
