<?xml version="1.0" encoding="utf-8"?>
<!-- Generator: Adobe Illustrator 21.1.0, SVG Export Plug-In . SVG Version: 6.00 Build 0)  -->
<svg version="1.1" id="Layer_1" xmlns="http://www.w3.org/2000/svg" xmlns:xlink="http://www.w3.org/1999/xlink" x="0px" y="0px"
	 viewBox="0 0 2000 2000" style="enable-background:new 0 0 2000 2000;" xml:space="preserve">
<style type="text/css">
	.st0{fill:#3349BA;}
</style>
<path class="st0" d="M2000,659.3c0,222.8,0,445.6,0,668.4c-15-0.1-20.4,3.7-26.2,17.3c-3.4,7.8-7.7,15.3-11.9,22.8
	c-4.9,8.9-10.8,17.2-15,26.4c-5.2,11.4,2,26.3,14.2,31.6c9.1,3.9,13.7,0.5,21.8-13c4.6-7.6,11.3-14,17-21c0,56.3,0,112.7,0,169
	c-19.6,4.5-38,13.5-58.9,13.7c-7.1,0.1-14.8,4.3-21.1,8.3c-6.5,4.2-12.4,8-20.6,7.8c-5.2-0.1-12.4-0.9-13.4,6.2
	c-1.1,7.8,6,10,11.9,12.1c1,0.4,2.1,0.7,3,0.7c9.9-0.6,16.8,4.9,22.5,11.9c5,6.3,9.6,12.9,13.4,20c6.9,12.5,12.3,16,26.4,13.3
	c11.1-2.1,18.6,2.2,24.2,11.3c4,6.7,8.2,13.2,12.3,19.8c0,105.4,0,210.8,0,316.2c-4.7,0-9.4,0-14.1,0c-3.7-17-11.7-32.2-21.1-46.7
	c-7.4-11.5-19.6-15.7-32.6-11c-4.9,1.8-9.4,4.4-14,6.9c-14.8,8.1-23.8,6.3-33.7-7.1c-1.3-1.7-2.4-3.4-3.7-5
	c-4.2-5.4-9.6-6.7-16.1-4.4c-9.7,3.3-13.7,11-12.8,24.8c0.8,12.5-2.4,18-14.7,19.5c-11.3,1.4-22.8,1.3-34.2,0.5
	c-18-1.3-31.4,6.9-34.9,22.7c-259.3,0-518.7,0-778,0c-5.2-13.5-9.1-16.7-23.3-15.6c-12.8,1.1-24-2.3-35-8.5
	c-6.5-3.7-13.8-6.2-21.2-7.6c-17.7-3.4-30.1,6.7-31.3,24.7c-0.2,2.4-0.3,4.7-0.5,7.1c-50,0-100.2,0-150.2,0c1.2-3.1,2.6-6.3,3.5-9.5
	c2.8-10.3,6.3-20.5,8-30.9c1.9-11.2-1.4-14.3-12.6-16c-9.8-1.5-19.8-2.4-29.2-5c-12.7-3.6-24.1-2-35.1,5.1c-3,2-6.3,3.9-9.6,5.2
	c-18.7,6.7-19.4,22.5-7.5,35.8c4.1,4.6,7.1,10.2,10.6,15.3c-57.4,0-114.8,0-172.2,0c-4.1-10-12.4-13.9-22.4-13.3
	c-9.9,0.6-19.5,3.2-24.6,13.3c-65.2,0-130.5,0-195.7,0c-0.6-2.3-0.7-4.8-1.9-6.8c-7.6-12-15.3-24.2-23.6-35.8
	c-2.3-3.2-6.3-5.6-9.9-7.4c-10.7-5.3-17.6-2.9-23.3,7.4c-7.3,13.4-8.4,27.7-5.5,42.5c-60.5,0-121.1,0-181.6,0
	c0-103.8,0-207.6,0-311.5c27.5-7.3,38.8-71.1,62.2-78.6c17.4-5.6,24.8,26.6,57.5,12.8c9.5-4,33.6-17.5,39.8-34.2
	c17.2-46-40-40.7-39.1-74.4c0.9-31.3,36.5-41.8,36.7-69.3c0.3-32.7-26.6-28.3-12.2-62.8c21.5-51.6,90.3-35.2,121.1-4.5
	c10.1,9.9,19.3,20.7,32.9,25.9c13.9,5.3,24.9,0.2,27.5-12.4c18.4-87.3-68-76-116.9-117.7c-7.7-6.7-16.9-9-26.9-7.9
	c-4.4,0.5-8.8,1.3-13.1,1.9c-29.9,4.4-37.5-45.9-47.4-57.8c-9.9-11.9-20.3-20.8-17.3-31.9c2.9-11.1,17.4-10.2,22.9-10.6
	c5.5-0.5,19.8-8.2,11.7-44.6c-2.7-12.3-9-38.5-28.9-46.7c-80-29.8-37.9,57.9-43.6,70.1c-16.3,35.2-109,73.5-51,135
	c40.8,43.3,60-26.3,95.3-15.8c37.2,11-40,77.2-46.3,95c-22.9,64.6,24.8,47.2,25.2,80.8c0.7,55.1-50.9,89-90,111.2
	c0-35.5,0-71.1,0-106.6c0-14.2,0-28.4,0-42.7c-6.3-17.6-0.4-27.8,17.7-30.5c7-21.9,39.3-75.3-17.8-50.3c0-221.7,0-443.6,0-665.3
	c5.3-1.9,10.9-3,15.8-5.7c6.2-3.3,11.5-8.1,17.4-11.8c15.5-9.6,19.2-19.3,16.3-37.4c-3.3-21-9.5-40.7-18.6-59.9
	c-6.4-13.7-16.4-20.5-30.6-22.7c0-147.1,0-294.3,0-441.4c4.2-1.3,8.5-2.4,12.6-3.9c8.1-2.9,13.4-8.6,15-17.3
	C27.1,40.7,13.4,15.4-3.7,8c0-3.1,0-6.3,0-9.4c60.5,0,121.1,0,181.6,0c0.6,1.8,1.2,3.4,1.6,5.2c3.4,15.3,13.3,21.9,28.4,18.7
	c6.9-1.5,13.6-3.3,20.3-5.5c8.7-2.8,13.8-8.8,13.9-18.4c63.2,0,126.2,0,189.4,0c1.9,14.9,10.8,25.8,21.3,35.5
	c17.8,16.6,24.5,37.3,22.1,60.8c-1.3,12.8,0.5,23.9,7.9,34.8c9.2,13.3,7,34.5-4.9,45.3c-9.8,9-15.2,19.7-17.4,32.3
	c-1.9,10.4-7.8,17-16.9,21.9c-6.8,3.6-14,7.7-18.9,13.5c-10.6,12.5-22.9,18.3-39.4,18.6c-17.4,0.3-22,7.1-17.3,23.7
	c3.6,12.6,0.9,22.6-8.5,31.9c-9.6,9.5-18.2,20.1-27.1,30.3c-6,6.9-6.2,14.8-3.4,22.8c2.3,6.4,7.5,9.4,13.9,9.8
	c17.6,1.1,33.3-2.4,42.4-19.9c2.1-3.9,4.7-7.5,7.5-10.9c10.6-12.1,26.8-12.9,38.9-2.4c5.5,4.8,11.4,9.1,17.3,13.3
	c18.6,13.2,35.6,28,49.8,46.1c4.2,5.4,9.7,10.7,15.8,13.5c16.6,7.7,25.9,20.9,32,37.5c3.1,8.4,7.8,16.5,12.7,24.1
	c6.3,9.9,13.8,18.9,20.2,28.7c7,10.8,16.2,18.4,28.4,22.1c6,1.9,12.1,3,18.2,4.5c14.9,3.5,19.6,8.9,20.9,24.1
	c0.2,2.4,0.5,4.7,0.5,7.1c0.2,10.8,5.2,19.4,14,24.9c9.2,5.8,19,11.1,29.1,15.1c14.8,5.9,26.1,1,31.3-13.7c4.8-13.2,12-24,23-32.7
	c7.1-5.6,10.8-13.2,11-22.4c0.1-11.7-3.5-15.7-15.3-15.3c-8.7,0.3-16.4-1.7-23.2-7.3c-10.8-8.9-22.1-8.9-34.2-2.3
	c-4.2,2.4-9,4.6-13.7,5.2c-12.4,1.7-19.9-7.7-15.9-19.6c1.4-4.2,2.9-8.5,5.3-12.1c14.8-22.6,8.8-57.4-11.4-73.3
	c-5.2-4.1-9.4-11.7-10.7-18.3c-2.3-11.9-3.3-24-8.6-35.5c-3.3-7.2,0-13,8-14.6c15.6-3,31-6.4,47-1.2c16.7,5.4,26.7-1.5,29.4-18.8
	c0.4-2.5,0.6-5.2,0.4-7.8c-1-13.4,4-23.2,15.4-31.1c6.2-4.3,11.6-11.6,14.3-18.6c4.9-12.4,11.8-19.6,26-19c9.1,0.4,16-7.2,16.6-16.4
	c0.7-10.6-3.4-16-14.9-21.2c-13.5-6.1-27-12.1-40-19.3c-13.1-7.3-26.1-9.4-32.5,10.1c-2.3,6.8-7.2,11.2-14.7,10.6
	c-15.2-1.2-25.7,4.4-33.2,18.1c-5.7,10.4-13.1,12.2-24.8,9.3c-3.8-1-7.4-2.5-11.3-3.2c-9.9-1.9-19.8-3.6-29.8-5
	c-11.6-1.7-23.3-2.4-34.8-4.4c-10.4-1.9-14-8-14.4-18.3c-0.5-11.4-1.9-22.7-2.9-34.1c-0.8-8.3-1.7-16.6-2.5-24.9
	c-0.7-7.2,2.9-10,9.8-9.5c4.9,0.3,9.9,0.8,14.8,0.7c6.2-0.1,11-2.9,11.5-9.5c1.4-16.8,0-33.1-14.5-44.9c-10.7-8.6-18-19.5-21.9-32.6
	c-5.4-18.2-15.5-32.6-31.7-43.1c-4.2-2.7-6.5-8.6-9.6-13.1c58.5,0,116.8,0,175.3,0c2.9,11.6,8.7,21.1,19,27.7
	c14.8,9.5,30.4,5.1,37.4-11.2c2.3-5.2,3.2-11,4.7-16.5c51.6,0,103.3,0,154.9,0c1.8,16.6,10.3,27.2,27.1,30.8c9.3,2,15.3,8,19.8,16.3
	c4.4,7.9,8.8,16,14.5,23c9.9,12.2,22.3,14.6,36.2,7c8.8-4.8,17.4-10.5,25.3-16.8c16-13,17.4-34,4.4-49.9c-2.7-3.4-5.6-6.9-8.3-10.3
	c257.3,0,514.5,0,771.8,0c3.9,7.1,7.2,14.7,12,21.3c5.2,7.1,12.1,12.8,17.4,19.9c7.9,10.6,16.7,13,28.3,6.3c4.5-2.6,8.7-5.7,13-8.6
	c7.9-5.5,15.4-5.1,22.9,0.9c21.1,16.6,45.6,22,71.7,20.7c13.3-0.7,21.4,3.3,26.6,15.9c6.8,16.1,16,19.4,32.8,14.3
	c1.8-0.5,3.5-0.9,5.3-1.4c0,144.6,0,289.1,0,433.6c-14.1,1.6-23.9,8.7-30.4,21.4c-6,11.8-12.9,23-20,34.2c-7.2,11.5-5.4,26,6.7,31.6
	c14.3,6.7,21.2,17,24,32C1982.3,651,1989.1,657.7,2000,659.3z M1151.2,374.9c2.4,37.5-36.4,22.8-53,49.8
	c-13.7,22.3-0.5,108.2-40.7,110.4c-17.6,0.9-29-28-47.9-20.1c-15.7,6.6-14.5,26.2-34.1,27.9c-14.6,1.3-25.8-15.8-40.9-6.5
	c-25.3,15.4-8,51.6-13,72.6c-7.3,31-60.7,37.4-63.7,72.4c-1.6,18.4,7.8,13.9,24.8,15.8c25.9,2.7,51.9,11.1,78.3,9.4
	c47.8-2.9,50.8-52.9,93.5-59.2c57-8.3,72.5,38.2,103.2,74.6c9.8,11.7,30.9,26.4,47.7,22.2c16.1-4.1,27.1-28.8,38.5-40.1
	c15.2-15.1,23.2-18.3,19.2-41c-4.9-27.6-15.7-33-40.3-30.1c-24.6,2.9-20.2,5-33.3-14.9c-11.1-16.7-21.8-22.1-35.5-35.7
	c-30.8-30.4,1.5-68.5,5.6-100.9c2.2-16.6-14.5-32.1,4.3-42.8c7.9-4.5,41.8,2.4,49.4,3.8c11.9,2.4,29.3,16.2,37.3,2.8
	c7.8-13-11.6-62.9-14.5-76.8c-2.9-14.2-17.2-38.3-14.7-51.5c3.5-17.9,29.5-26.2,40.4-38.2c26.4-29-14.7-59.8-19.2-88
	c-0.9-5.7,6.1-11.5,4.7-17.7c-2.7-13-13-16.2-23.1-23.2c-14-9.8-39.1-32.6-56.8-32.8c-15.6-0.2-52.1,24.3-64.8,35.3
	c-15.2,12.9-17.5,34.2-24.3,52.2c-11.9,31.3-2.5,42,29.9,34.8c30.6-6.9,29.2-5,39.9,25.5c5.9,16.7,29.3,47.2,26.7,63.8
	C1172,347.8,1147.5,351.1,1151.2,374.9z M1528.2,142.6c-24.9,3.5-48.4,6.7-72,10.2c-3.7,0.6-7.2,2.4-10.9,3.7
	c-29.3,9.7-51.9,26.4-69.5,48.7c-7.7,9.7-12.5,20.2-10.6,32.3c2,11.4,11.3,16.6,23.9,13.7c5.2-1.2,10.4-2.6,15.7-3.3
	c23-3.3,50.6,9.6,59.4,27.6c3.3,6.8,4.9,13.8-0.9,20.1c-9.6,10.4-17.9,22.4-30.1,30c-23,14.3-34,32.7-38.6,56.4
	c-4.1,21.2-1.8,27.4,22,33.1c9.1,2.2,14.8,6.6,17.1,14.3c1.2,3.8,2.5,7.5,3.2,11.4c2.5,14.8,8.8,28.1,19.3,40
	c15.9,17.9,31.3,36.1,47.6,53.8c3.2,3.4,9.3,5.3,14.4,6.9c4.4,1.3,9.5,1.3,14.2,1.5c15.9,0.7,24.7,7.7,29.3,21.1
	c4.2,12.1,10.1,24.1,17.4,35c14.2,21,43.1,26.7,67.5,14.9c10.5-5.1,14.4-11.7,12.8-22c-0.5-3-1.6-6.1-2.5-9.1
	c-3.4-10.8-1.5-14.3,10.5-18.9c8.2-3.1,16.7-6,24.3-10c10.2-5.5,20.2-8.2,32.3-5.9c13.5,2.5,26.3,0,37-8.1c9.9-7.5,10-19.3-0.9-25.5
	c-6.3-3.5-14.9-5.2-22.5-5.4c-7.9-0.2-15.9,3.3-23.8,3.4c-25.3,0.2-48,8.2-70.8,16.4c-4.7,1.7-9.5,3.6-14.5,4
	c-14.2,1.2-28.4,1.7-42.7,2.4c-12.1,0.6-19.7-4.1-21.8-14.3c-1.1-5.3-1.5-10.9-1.3-16.4c0.4-10.8-3.4-18.4-16.3-22.3
	c-11.2-3.4-19.5-10.2-23-20.6c-3.1-9.1,2-17.5,14.1-23.6c7.8-3.9,15.7-2.4,22.8,5.3c3.9,4.2,7.2,9,10.2,13.7
	c6.7,10.7,9.5,12,22.9,9.8c2.9-0.5,6-0.8,8.8-1.6c13.7-3.8,23.9,1.2,32.8,9.6c3,2.8,5.7,6.2,9,8.7c9.6,7.1,23.1,5,26.6-4.8
	c7.8-21.9,11.6-44.2-5.8-64.3c-11.3-13-21-26.6-27.4-41.9c-0.9-2.2-2.5-4.1-4-6.1c-13.2-17.1-13.4-22.3-0.1-39.5
	c4-5.2,8.9-9.8,13-14.9c3.8-4.8,6-11,1-15.1c-3.7-3.1-10.3-3.8-15.9-5c-2.1-0.4-4.6,0.8-6.9,1.6c-24.5,8.1-48.4-6.9-46.4-29.8
	c1.1-12.2-0.6-23.8-5.8-35.3c-2.1-4.6-3.4-9.5-4.5-14.3c-1.1-4.8-1.8-9.8-2-14.7c-0.6-16.5,6.3-23.1,25.1-25.4c8-1,17.5-2,18-11.1
	c0.8-12.9,0.1-26.1-0.6-39c-0.2-5-1.8-10.2-8.9-11.3c-7.3-1.1-12,1.9-16.4,7.2c-3.7,4.6-9.5,8-14.8,11.6c-2.3,1.6-5.8,1.9-8,3.4
	C1550.9,142.1,1540.3,146.5,1528.2,142.6z M1325.6,1532.4c1.9-0.2-5.9-38.9-8.8-42c-10.8-11.8-22.9-5.1-36.6,0.3
	c-29.7,11.8-65.6,23.9-50.6-26.6c7.7-25.9,34.1-41.6,40.7-68.1c5.9-23.7-2.4-46.9,6.6-70.9c20.9-55.8,47.8-86.6,16.2-147
	c-17.8-33.9-50.5-88.9-94.3-93.5c-44.6-4.7-14.2,62.6-10.3,85.5c3.7,21.7-4.5,42.2-1.5,63.7c1.4,9.7,9.5,19.9,9.9,29.2
	c0.7,15-8.3,17.6-13.4,30.3c-7.5,18.8,2.8,40.8-4.4,57.6c-1.1,2.6-7.6,2.9-9.7,10.5c-2.8,9.8,3.7,21.3,10,28.2
	c6,6.7,24.2,11.5,27,20.2c5.6,17.2-26.2,33.7-35.5,43.9c-15.8,17.3-24,37.8-32.4,59.2c-10.1,25.7-30,53.6-32.1,81.4
	c-1.2,15,7.3,50.6,29.5,40c26.3-12.5-0.5-35.2-0.6-49.5c-0.4-44.8,91.4,1.5,109.3,9.5c9.4,4.2,50.6,13.1,53.6,22.9
	c3.4,10.8-11,22.3-14.5,32.6c-17.7,50.9,39.4,61.1,72.4,78.4c18.2,9.5,30.1,21.3,39.3,39.6c6.3,12.5,8.2,28.4,17,39.5
	c8.1,10.2,21.3,13.9,30.3,22.9c25,25.3,28.2,85,77.5,72.5c40.4-10.2,68.6-79.5,49.8-116.1c-26.4-51.3-94.9-27.6-138.8-38.4
	c-65.4-16.1,1.8-89.2-39.8-125c-17.3-14.9-52.4-12.5-65.1-32.4C1316.5,1575.6,1326.7,1549.2,1325.6,1532.4z M737.5,859.8
	c12.2,0.6,22-2.3,26.7-15.4c1.2-3.4,5.1-7.4,8.5-8.3c15.4-3.9,30.9-6.9,46.5-9.9c7.9-1.5,16.3-1.2,23.9-3.6
	c11.8-3.7,15.3-13.4,9.2-24.3c-2.6-4.7-6.3-9.1-10.3-12.7c-8.7-7.8-11.5-17-9-28.2c0.5-2.3,0.7-4.6,0.8-7
	c0.6-10.3-1.1-12.9-10.7-16.3c-4.9-1.7-9.9-3.2-15-4.6c-19.8-5.5-31.6,0.2-38.6,19.6c-3.5,9.9-9.5,16-19.4,19.7
	c-14.1,5.3-26.3,13.6-35,26.5c-11.8,17.5-33.2,18.8-47,2.7c-6-6.9-11.6-14.1-17.5-21c-7.1-8.2-8.6-17.3-5.9-27.7
	c2.6-10.1,4.9-20.3,6.6-30.6c3-18.9-1.9-26-20.2-31.6c-6.5-2-12.6-4.8-18.6-7.9c-11.1-5.8-21.7-12.3-33-17.8
	c-9-4.4-16-10.4-20.2-19.8c-5.2-11.6-14.6-18.6-26.7-20.9c-15.1-2.7-30.4-4.6-45.6-5.9c-11.2-0.9-17.5,5.2-18.7,16.5
	c-1.5,14,2.8,25.9,14.8,34c6.1,4.1,12.4,7.6,18.9,11c14.6,7.5,22.8,21.1,31.2,34.2c1.8,2.6,2.5,6.7,2.2,9.8
	c-2.3,18.5-2.7,37.3-11.9,54.6c-2.6,4.9-3.2,11.4-3,17.1c0.3,10-2.4,15.6-12.2,17.8c-6.3,1.4-12.9,1.1-19.4,1.5
	c-11.5,0.7-16.4,7.4-13.3,18.5c4.1,15.6,17.1,26.7,33.1,27.5c10.8,0.6,17.6,5.2,22.6,15c3.8,7.5,8.9,14.9,15.2,20.5
	c15.8,14,27.5,30.5,35.7,49.8c1.6,3.8,3.3,7.7,5.6,11.2c7.8,11.6,21.7,11.9,30,0.8c3.6-5,6.9-10.6,9.1-16.4
	c5.5-14.4,15.2-24.4,28.6-31.7c13.1-7.1,21.5-18.8,26.5-32.6c5.6-15.3,9.8-18.4,26.1-17C717.9,857.6,727.8,858.8,737.5,859.8z
	 M1570.7,820.6c-1.6,43.4,39.4,19.2,44.9,49c5,27-40.9,53.4-52.3,74.1c-14.1,25.5-25.7,99.8-76.5,59.1c-29.2-23.4,5.4-49.3-2.9-80.5
	c-5.6-21.2-24.8-21.3-33.9-39.8c-10.6-21.6-4.2-50.9-15-72.1c-14.3-27.8-40.2-39.7-62-3c-20.8,35.1,25.7,69,20.8,101.3
	c-2.9,19.3-31.1,53.9-38.6,73.1c-5.4,14-23.5,56.9-9.8,64.9c15.6,9.2,60.4-23.2,87.8-6.4c31.3,19.2,29.7,64,72.6,75.3
	c57.3,15.1,62.3-29.1,88-59.6c23.5-27.9,55.3-28.2,68.7-67.3c7.1-20.6-5.2-35.2-2.2-55.2c3.3-22.4,23.3-39.1,26.7-60.3
	c4.1-25.6-12.5-96.5-51-104.3C1608.7,763.4,1570.7,794.5,1570.7,820.6z M273,958.2c18.5-2.6,21.3-0.5,22,15.6
	c0.2,4.4,0.3,8.8,0.9,13.1c2,14.9,7,28.7,19.7,39.4c10.6,8.9,13.3,19.1,9,31.2c-5.1,14.3-1.8,26.5,12.3,35.9
	c9.2,6.1,12.2,14.3,10.6,24.1c-0.5,2.8-0.9,5.9-0.7,8.7c1,20.7,18.3,29.2,39,19.1c2.6-1.3,5.3-2.6,7.6-4.3
	c12.7-9.5,27.9-12.2,44.2-12.6c14.1-0.4,28.2-1.3,42.3-2.4c8-0.7,14-4.8,16-11.8c3.1-11.1,6.2-22.1,7.8-33.4
	c1.4-9.6-2.4-18.1-14.1-21.9c-19.2-6.3-38.2-12.8-57.7-18.2c-10.5-2.8-17.3-7.5-19.3-16.9c-2.1-10-7.6-18-17-24
	c-12.7-8.2-16.6-18.4-10.6-31.5c4.4-9.6,3.6-19.4-3.7-27.5c-7.6-8.4-15.8-17.1-25.8-23.3c-13.7-8.5-21.6-19.1-27.2-32.6
	c-7.1-17.2-16.8-32.9-39.6-39.3c-9.3-2.6-17.3-8.7-25.7-13.6c-8.3-5-16.1-10.7-24.4-15.7c-10.5-6.3-22.1-7.8-33.7-3.2
	c-11.8,4.7-21,2.2-30.8-4.1c-27.7-17.7-71.4-11-90.4,14.4c-7.3,9.8-15.8,16.7-28.8,20.5c-12.9,3.7-17.2,16.4-8.4,25.7
	c5,5.3,13.1,11.3,20.2,11.8c22.5,1.4,42.2,9.6,62.9,15.7c20.6,6.1,28.5,16,28,34.9c-0.2,6.2-1.2,12.3-0.7,18.4
	c1,10.2,1.2,21.4,15,25.6c14.1,4.3,23.1-3.6,30.9-11.9c8.7-9.1,18.8-12,32.2-9.6C247.6,956.4,260.4,956.9,273,958.2z M825.9,958.4
	c-1.3-31.5-22.8-39.4-40.7-16.3c-18.7,23.9-29.2,51.5-41.8,78.5c-4,8.6-5.7,16.3-13.2,22.6c-9.8,8.2-26.4,4.3-35.5,13.8
	c-6.5,6.9-11.4,17.5-4.7,26.5c11,14.9,21.7,2.5,33-1.6c13.3-4.9,49.4-24.4,45.3,9.6c-1.5,11.9-18.6,15.7-21.3,26.9
	c-2.7,11.8,5.9,19,10.7,28.5c9.8,19.2,7.6,20,30.3,21.1c13,0.6,26.9-2.6,39.8-0.9c33.8,4.4,32.1,39.2,55.5,59.3
	c10.1,8.6,10.1,9.2,22.1,9.5c5.4-2.7,10.7-5.6,16.1-8.5c5.9,0,9.7,3.1,11.7,9.2c12.2,4.8,6,11,21.7,12c12.6,0.9,27.6-13.8,36.9-20.4
	c14.1-9.9,50.8-26.1,35.4-47.9c-6.8-9.6-24.4-4.9-32.3-13.3c-7.1-7.5-5.6-18.1-13.5-25.9s-27.3-18.3-37.8-21.4
	c-15.1-4.5-23.1,5.1-36.3,4.1c-22.6-1.7-33.1-34.1-49.1-48.7c-17.2-15.7-45.5-19.5-49.8-45.7C804.4,1007,823.1,981.6,825.9,958.4z
	 M1040.6,1423.7c0-66.8-62.7-45.2-97.7-56.1c-63.8-19.9-98.8-59.9-142.5-101.5c-35.5-33.8-77.1-93.4-126.9-108.9
	c-54.7-17-121.5,13.8-82.7,79.4c25,42.4,103.3,52.1,132.8,99.1c13.1,20.8,14.5,55.5,26.8,75.3c22,35.7,33,29.9,67.2,62.4
	c33.9,32.2,53.5,120.7,125,88.6c18.8-8.5,7.7-44.6,22.2-59.1C989.4,1478,1038,1469.9,1040.6,1423.7z M1565.2,1190.9
	c0.1-6.3-0.7-12.4-7.6-14.8c-6.9-2.3-12.8-0.1-17.3,5.7c-1.9,2.4-3.7,5.1-5.3,7.7c-3.9,6.4-9.3,7.8-15.3,3.8
	c-12-8.2-22.8-17.9-25.4-33.2c-2.2-12.5-9.9-19.7-20.8-24.3c-15.3-6.5-30.8-12.5-46.1-18.9c-8.1-3.4-16.2-3.3-22.8,2.4
	c-6.1,5.2-11.9,11.2-16.2,17.7c-2.5,3.9-3.8,10.3-2.6,14.7c3.3,13.2,8.6,25.6,21.6,33c12.5,7.1,20.3,18.7,25.3,31.8
	c7.2,19-7.8,42.7-27.6,44.7c-5.7,0.6-11.4,1.7-16.7,3.5c-8.7,3-11.9,8.1-11.4,17.3c0.2,3.3,0.9,6.8,1.7,10
	c2.4,10.3,1.2,19.6-6.9,27.4c-2.5,2.4-4.3,6-5.5,9.3c-2.1,5.5-3.1,11.6,2.4,15.9c5.6,4.4,12.1,4.6,18.4,1.5c2.7-1.4,4.8-4.3,7.6-5.3
	c5.5-2,11.2-4.1,16.8-4.4c11.4-0.7,22.7-0.5,34.1-0.3c20.1,0.4,39,4.2,52.1,21.4c4.1,5.4,7.3,11.5,11.9,16.5c2.1,2.3,7.8,4.3,9.5,3
	c11.2-7.8,20.4-18,16.7-34.7c-4.9-22.2-5.4-44.9-2.4-67.6c2-15.2,3.8-30.4,4.8-45.6c0.6-9,4.3-14.6,12.8-17.4
	C1560.9,1208.5,1565.3,1201.2,1565.2,1190.9z M747,1926.2c-0.3,17.1,1.9,19.4,14.7,19.4c13,0,26.1,0.6,39-0.7
	c6.3-0.6,14.7-3,17.7-7.6c9.5-14.7,21.3-28.5,23.6-47.1c0.7-5.3,2.3-11.2,5.3-15.4c12.7-16.8,10.8-33.8,2.6-51.6
	c-5.4-11.9-10.4-23.9-14.5-36.2c-5.4-16.4-7.3-32.8,0.9-49.4c5.7-11.7,9.4-24.2,14.6-36.1c6.7-15.6,4-30.9-7.4-38.9
	c-17.7-12.3-17.6-12.3-9.9-33.4c2.8-7.8,6.3-16.4-0.5-23.6c-7.1-7.6-11.9-16-13.7-26.4c-1.2-6.7-6.1-11.8-13.8-11.5
	c-7.6,0.3-10.5,5.8-11.9,12.3c-2,8.6-3.7,17.2-6,25.8c-2.5,9.5-5.4,19-8.4,28.3c-1.5,4.6-2.5,10.1-5.6,13.4
	c-9.3,10.2-13.9,21.7-14.7,35.3c-0.2,3.5-1.1,7.4-2.7,10.5c-8.7,16.4-5.7,31.6,1.6,47.8c9.7,21.4,16.6,43.9,11.7,68.3
	c-1.4,6.5-1.4,13.9,0.5,20.2c4.5,15.4,1.6,29-5.3,42.9C755.3,1890.8,748.6,1910.1,747,1926.2z M958.3,1059.5
	c-2.4,0,2.1,30.3,4.5,33.8c5.7,8.4,10.4,9.6,20.3,11.1c9.6,1.4,13.8-6.2,23.9-3c9,2.8,11.4,15.4,21.8,17.6c11,2.3,17.9-8,28-7.7
	c11.5,0.4,15.2,8.4,25.6,11.9c8.7,2.9,63.9,9.1,68.6,4.8c14.9-13.6-5.2-39.5-18.2-45.6c-23.7-11.2-53.1,2.2-77.1-10.1
	c-19.3-9.8-38.8-36-45.6-56.2c-10.8-32.1,16.5-35.4,34.1-59c5.4-7.3,7.6-17.7,15.5-23c9.8-6.6,21.6-3.2,32.2-7.1
	c17.1-6.4,38.9-25.8,53.7-37.2c42.2-32.7-40-63.1-67-63.2c-27.5-0.1-49.8-9.9-70.2,12.9c-14.8,16.6-23.4,40.4-30.3,61.2
	c-8.9,27.2,11.4,59.4,2.3,83.2c-3.6,9.3-14.5,12.4-18.3,22.3C956.3,1021.3,959.1,1043.5,958.3,1059.5z M1026.8,1609.1
	c0.1-7.8-3-13.7-9.3-18.1c-9.6-6.7-19.3-13.2-29-19.7c-2-1.3-4.1-2.3-6.4-2.8c-7.5-2.1-13.8,1.5-14,9.1c-0.1,5.7,1.6,11.9,3.8,17
	c4.6,10.3,3.9,17.4-4,25.6c-2.5,2.6-5.3,5-7.9,7.5c-14.3,13.6-18.5,31.6,4.5,41.3c6.4,2.6,10.7,8.2,9.4,15.6
	c-2.9,16.8-4.9,33.5-16.3,48.2c-9,11.7-14.8,26.2-20.6,40.1c-3.7,9-1.1,13.3,7.7,17.5c7.2,3.4,11.8,8.8,15.4,15.9
	c3.2,6.4,7.7,12.2,12.6,17.4c5.7,6.1,12.6,10.9,18.6,16.6c14.7,14.1,28.8,14,42.9-0.7c10.5-11,20.6-22.2,31.4-32.7
	c8-7.6,9.7-16,6.7-26.2c-2.3-7.7-3.5-15.8-5.6-23.5c-1-3.7-1.8-8-4.1-10.8c-7.7-9.2-7.8-19.3-5.8-30.3c2.2-11.5-0.9-21.7-9.1-30.3
	c-3.6-3.7-7.3-7.4-10.8-11.4c-13.6-15.7-18.1-33.6-12.7-53.9C1025.5,1616.7,1026.1,1612.9,1026.8,1609.1z M1535.2,1691.8
	c-0.3,13.6,4.2,25.4,13.7,35.1c11.3,11.5,22.9,22.6,34.5,33.8c2.3,2.3,4.9,4.1,7.5,6c21.9,15.1,46.7,10.1,61-12.4
	c6.2-9.8,11.2-20.3,17.6-30c7.3-11.1,16.1-10.7,21.9,1.2c3.4,7,5,15.2,6.3,22.9c1.4,8.5,0.6,17.4,2.4,25.9
	c3.9,18.3,22,25.9,38.3,16.2c4.3-2.5,8-6.4,11.8-9.9c6.6-6.2,12.5-13,19.4-18.7c13.6-11.2,17.5-25.2,15.7-42.2
	c-1.2-10.1-1.2-20.6-0.1-30.8c1.8-15.3,4.9-30.5,7.4-45.6c1.4-8.2,2.7-16.9-6.7-21.1c-21.4-9.2-42.8-14.6-63.8,1.7
	c-7.1,5.5-15.1,9.9-22.5,15c-17.6,12.1-22.3,11-31.1-8.1c-9.2-19.9-19.1-23.1-39.3-13.8c-10.5,4.8-21.6,8-32.2,12.6
	c-13.2,5.7-26.6,11.1-39.1,18.1C1541.5,1657.3,1535.6,1673.4,1535.2,1691.8z M1438.7,1638.9c20.2,0,38.1-10.4,48.1-33.4
	c2.2-5,5-9.7,7.6-14.5c6.9-12.9,17-20.4,32.3-21c8.2-0.3,16.5-2.3,24.6-4.1c9.8-2.3,17.4-7.6,22.4-16.7
	c12.6-22.6,28.7-41.8,51.8-54.8c16.7-9.4,24.2-34.2,16.4-51.6c-1.5-3.2-6.7-6.8-10-6.7c-7.1,0.3-14.5,2-21,4.7
	c-10.4,4.4-20.4,5.9-31,1.9c-14-5.3-26.8-2.4-39.9,4.1c-25,12.5-44.4,30.3-57.1,55.6c-6.3,12.4-8.7,24.1-2.9,37.2
	c6.5,14.7,4,20.4-10.7,26.9c-4.4,2-9.4,3-14.2,4c-5.3,1.2-10.8,1.8-16.2,2.7c-9.6,1.9-15.1,7.7-16.1,17.5c-1.1,11.2-2.2,22.3-3,33.4
	C1419,1636,1422.6,1639.6,1438.7,1638.9z M1844.3,1167c0.3,13.3-1.6,17.5-10.1,20.4c-8.9,2.9-17.9,5.5-26.9,7.9
	c-8.8,2.4-16.4,5.7-20.2,15.3c-1.4,3.4-6.7,6.9-10.6,7.5c-10.8,1.9-20.7-1.9-29-8.8c-6.9-5.8-8.4-13.6-6.8-22
	c1.5-7.7,6.7-12.1,14.2-13.8c4.1-0.9,8.2-1.6,12.2-2.4c7.9-1.6,12.2-6.3,12.4-13.7c0.2-7.8-5.2-10.9-11.6-12.6
	c-11.4-3.1-22-1.1-32.4,4.5c-5.9,3.1-12.3,5.3-18.8,7.1c-8.2,2.4-17.3,2.6-24.8,6.5c-12,6.3-23.8,12.7-37.5,14.9
	c-1.7,0.3-3.4,1.4-4.9,2.4c-7.9,5.6-7.7,11.5,0.2,17.2c5.4,4,11.3,7.8,15.4,13c13,16.6,29.7,25.8,50.5,27.6
	c9.2,0.9,16.2,5.3,20.9,13.4c2.3,3.8,4.2,7.8,6.9,11.4c10.5,14.1,23.4,25.3,41,29.2c11.7,2.5,23.4,4.2,35.2,6.5
	c9.1,1.8,14.6-1.5,17-10.5c4.2-15.8,1.4-40-16.9-49.5c-1.9-1-3.7-2.3-4.9-3.8c-2.4-3.2-6.4-7.1-5.8-10c0.6-2.7,5.8-5.1,9.4-6.7
	c7.5-3.3,15.7-5.5,23-9.3c8.5-4.5,16.5-9.9,24.3-15.6c5.2-3.7,10.4-8,14.4-13c4.9-6.1,4-15-0.8-21.1c-7.3-9.2-18.6-13.2-27.6-10
	C1842.8,1152.6,1844,1159.9,1844.3,1167z M675.9,1665.2c15.5,0.5,28.6-5.5,35.6-18.2c5.7-10.6,11.1-21.4,15.2-32.3
	c8.2-21.6,2.7-40.4-21.3-54.4c-18.2-10.6-27-25-32.7-41.9c-3.5-10.2-10.2-20.8-18.9-28.7c-18.9-17.4-24.3-35.3-11.7-56.3
	c3.6-6,6.6-12.2,9.8-18.4c10.8-20.4,7.5-39.4-6.8-58.3c-12.3-16.3-21.6-34-33.7-50.4c-10.7-14.4-22-28.7-35.6-41.5
	c-10.6-10-26.2-13.1-43-8.7c-16.7,4.2-20,15.1-22.9,26.9c-2.6,10.8-4,23-11.4,31.6c-20.2,23-22.8,48-22.9,74.8
	c-0.1,14.4-4.1,30.5-12.8,43c-26.9,38.9-17,59.7,37.6,69.3c24.3,4.2,40.9,14.8,52.9,31.7c6.5,9.2,13.7,18.5,23.1,25.7
	c14.6,11.2,21.9,24.3,24,39.8c1,7.1,2,14.2,3.9,21C610.7,1645.1,642,1665.3,675.9,1665.2z M99.4,407.4c-0.2-0.6-0.4-1.2-0.6-1.8
	c-7.4,2.5-17,3-22,8c-13.8,13.7-23.1,30.6-18.4,51.2c1.7,7.3,5.8,14.6,10.2,21c9,12.8,12.4,26.7,11.4,42.1
	c-0.6,7.7-1.1,15.6-1.1,23.4c0,6.4,0.8,13.1,8.1,15.3c7.3,2.2,13.2-1,17.4-7.2c1.5-2.2,2.5-4.5,3.9-6.8c2.6-4.5,5.2-9.1,8.2-13.3
	c10.2-14,23-21.6,41-16.2c3.4,1.1,7.1,1.7,10.7,2.4c17,3,32.6-3.5,41.2-17.4c5.8-9.2,7-19.6,0.2-27.9c-8.9-11-19-21.4-30.2-30.3
	c-9.3-7.3-18.5-14.1-24.1-24.9c-4.7-8.9-12.4-13.9-22.5-14.9C121.7,409,110.5,408.3,99.4,407.4z M418.9,1793.4
	c0.4-22.7-15.5-32.1-33.3-22.2c-1.6,0.9-3,2.2-4.7,2.8c-6.5,2.6-12.7,6-19.5,7.4c-16.5,3.6-23.6,11.4-25.2,28.1
	c-1.7,17.3,5.9,31.3,15.3,44.8c10.6,15.1,10.7,17.6,0.5,32.4c-8.7,12.7-5,25.2,9.8,29.3c13.6,3.7,24.2,9.7,29.3,24
	c2.7,7.7,10,8,15.5,1.8c1.9-2.2,3.6-4.7,4.3-7.3c3.9-16.3,13.5-25.6,30.1-30.2c20.5-5.8,25.4-22.3,12.4-39.5
	c-9-12-19-23.5-29.5-34.3c-7-7.1-9.4-14.6-7.4-24C417.5,1801.4,418.5,1796.3,418.9,1793.4z M128.6,276.8
	c21.4-4.9,38.2-11.7,47.6-30.4c4.2-8.3,4.7-16.1-1.2-23.4c-6.7-8.3-5.7-16.3-0.1-24.4c2.4-3.4,5-6.7,7.1-10.3c4.6-8,7-16.4,2.1-25.2
	c-3.9-7.1-2.4-13.9,0.8-21c6.4-13.8-1.5-27.6-16.6-27.3c-7.5,0.1-17,2.4-21.9,7.4c-11.3,11.4-20,25.3-30.1,37.7
	c-6,7.3-11.8,15.5-19.3,20.8c-14,9.6-22.2,22.7-26.8,38.1c-4.4,14.8,4.9,30.7,19.1,32.3c11.8,1.4,19.4,6.9,26.2,16
	C118.6,271.7,124.6,274.1,128.6,276.8z M196.7,1893.8c-1.4-17.8-4.1-24.4-16.1-37.4c-2.9-3.2-6-6.9-7.6-10.8
	c-9.7-23.1-29.2-39.1-43-59.3c-1.8-2.5-4.4-4.4-6.7-6.6c-7.7-7.3-17.2-11.1-27.2-8.2c-10.6,2.9-21.4,7-30.6,12.9
	c-12.4,8-13.9,24.3-3.2,34.7c8.4,8.1,18.4,15.6,29,20.4c11.3,5.1,17.7,11.6,18.7,24.1c1.3,14.9,7.7,27.1,20.5,36.1
	c5.8,4.1,10,10.5,14.7,16c2.4,2.7,3.9,6.2,6.3,8.9c12.8,14.8,34,11.1,40.1-7.3C194.2,1909.7,195.1,1901.7,196.7,1893.8z M1556.8,690
	c0-0.4,0.1-2,0-3.5c-1.4-25-17.5-45.3-44.3-42.7c-7.1,0.7-14.4-3.6-21.7-4.9c-6.5-1.1-13.6-3-19.6-1.4c-18.5,5.2-28,29.1-19.9,46.5
	c5.1,10.8,9.7,21.8,14.2,32.9c4.2,10.4,9.6,20.2,19.4,25.8c6.3,3.5,14.6,7.1,21.1,5.8C1530.5,743.3,1559.6,725.9,1556.8,690z
	 M874.5,536c17.9-1.5,31.1-12.2,45.5-20.3c1.7-1,3.1-2.9,4-4.7c8.2-17,22-28.6,36.8-39.6c19-14.2,18.9-29.1,0.2-43.9
	c-7.3-5.8-11.6-12.9-14.5-21.5c-3.9-11.5-8.4-22.9-13.9-33.8c-6.8-13.6-11.3-13.5-19.8-0.7c-1.5,2.2-2.4,4.6-3.9,6.8
	c-3.9,5.5-7.5,11.3-12.1,16.1c-9.3,9.5-8.9,14-1.1,24.8c6.7,9.3,12.1,20,16,30.8c4.2,11.9-0.1,22.5-10.5,30.3
	c-16.1,11.9-31.9,24.1-48,36c-7,5.1-6.6,12.5,1.6,15.5C861,533.9,867.9,534.6,874.5,536z M292.4,1677.2c-1.7-10.8-5.1-17-14.4-20.4
	c-6.5-2.4-14.1-4.9-20.4-3.5c-13.3,2.8-26.2,7.9-39.2,12.5c-11.3,4-17.4,12.1-16.9,24.5c0.5,12.5-3.9,22.2-13.6,30.8
	c-16.3,14.5-15.6,39.2,0.6,54c6.5,6,14.3,6.8,21.8,3.4c5.4-2.4,11.8-5.5,14.4-10.2c9.4-16.6,22.6-29.6,35.5-43.2
	c8-8.4,14.9-18.1,21.5-27.8C286.1,1691.2,289,1683.9,292.4,1677.2z M1929.4,777.8c-0.9-2.7-1-7.6-3.5-9.8
	c-12.3-10.3-24.5-21.1-38.1-29.3c-11.1-6.7-17.2-3.2-25,7.5c-4.6,6.5-9.9,12.8-16.1,17.7c-11.4,9-14.2,17.5-5.5,29.3
	c6.6,8.9,14.6,17.1,23.4,23.8c9.4,7.1,16.2,14.8,18.9,26.5c2.8,12.2,11.9,17.7,24.1,15c6.5-1.5,13-4.1,18.5-7.6
	c16.4-10.6,19.4-24.2,9.5-40.8C1929.8,800.3,1925.9,790.4,1929.4,777.8z M1772.6,1555.4c12.5-4.8,23.8-9.8,35.9-15.4
	c37.9-17.6,44-19.5,84.5-11.8c23.6,4.5,51.2,5.4,41.1-29.1c-10.1-34.4-47.7-19-69.8-27.6c-17.5-6.8-25.6-24.6-42.5-30.1
	c-22.4-7.3-72.1,10.1-88.7,27.7C1684.9,1520.2,1697.2,1584.5,1772.6,1555.4z M1215.1,1939.8c-0.1,22.3,11.6,31.6,30.8,25.6
	c7.5-2.4,14.5-7,21.4-11.1c17.4-10.4,34.5-21.3,56-21.6c5.1-0.1,11.9-3.8,14.8-8c6.2-8.7,7.4-19.1,4.7-29.9
	c-3.4-13.4-21.9-25.6-36.4-19.6c-8.6,3.5-18.6,4.3-28.1,5.3c-11.6,1.2-20.7,5.6-28.4,14.3c-6.5,7.3-13.6,14.3-21.3,20.4
	C1219.7,1922.1,1214.7,1930.5,1215.1,1939.8z M1273.2,609.9c13-1,22.4-2.8,26.7-12.8c4.4-10.2-0.7-18.1-7.7-25.1
	c-2.5-2.5-5.5-4.8-8.2-7.2c-12.8-11.8-24.1-23.8-22.9-43.7c0.8-13.4-11.2-24.6-26.5-28.8c-9.6-2.6-12.1-1.1-16.5,7.8
	c-5.1,10.5-10.1,21.1-16.6,30.8c-8.3,12.3-7.6,21.8,4.3,30.9c3.1,2.4,6.5,4.4,9.7,6.6c15.7,10.2,32.1,19.2,44.4,34.2
	C1263.4,606.9,1270.2,608.4,1273.2,609.9z M1768.7,728.9c10.5,1.5,17.5-7.8,22.9-19.9c9.1-20.7,0.4-35.7-22-36.8
	c-9.6-0.5-19.4,0.9-28.9-0.2c-6.6-0.8-13.9-3-19.1-6.9c-12.9-9.6-28.3-11.5-43.1-14.6c-3.5-0.8-10.5,3.7-11.9,7.3
	c-1.5,3.6,1,9.9,3.5,13.7c2.4,3.6,7.2,5.9,11.4,8c12.2,6.2,17.9,15.8,18.3,29.4c0.1,3.9,2.4,9.8,5.3,11.1c9.1,3.9,18.9,7.1,28.7,8.5
	C1743.6,730.1,1754,728.9,1768.7,728.9z M1771.2,1832.3c4.7,68.6,49.4,43.4,97.1,46.9c28.3,2.1,103.7,31.7,96-46.2
	C1957.7,1765.3,1770.2,1733.5,1771.2,1832.3z M445,660.8c-5.8-8.7-9.6-20.8-17.6-25.5c-39.3-22.5-58-20.3-80.1,5.6
	c-10.9,12.8-25,17.9-41.8,12c-3.2-1.2-6.9-1.6-10.3-2c-20.3-2.4-39.5,10.5-43.4,28.9c-3.5,16.6,5,26.8,27.1,35.1
	c16.8,6.2,33.5,13,49.8,20.7C377.3,758.4,442,717.1,445,660.8z M1803.4,1087.9c0.1,0,0.1,0,0.2,0c0,2.4-0.6,4.9,0.1,7.1
	c1.7,5.4,2.4,13.1,6.4,15.5c6.5,3.8,13.5-0.3,18.6-6c9.3-10.3,18.7-20.4,27.6-30.9c3.3-3.9,6.2-8.5,7.9-13.3
	c5-13.2-0.1-26.2-12.2-32.6c-14.8-7.7-26.2-5.1-35.5,7.6c-10,13.6-17.7,27.7-13.1,45.5C1803.9,1083.1,1803.4,1085.5,1803.4,1087.9z
	 M642.3,1713.6c0.1,0.7,0.2,1.4,0.2,2c7.9-0.9,16.2-0.8,23.7-2.9c11.1-3.2,14.8-13.7,7.5-22.7c-4.6-5.9-11.5-10.8-18.2-13.9
	c-16.5-7.7-33.6-5.7-50.4-0.8c-13,3.8-19.9,15-17.2,26.6c2.4,11,11.4,16,25.7,14.5C623.2,1715.4,632.8,1714.5,642.3,1713.6z
	 M1326.7,962.3c9.8-41.3,13.7-76.4-20.5-90.1c-49.9-20-61.9,37.9-76.6,78.3c-12.7,34.9-44.2,91.2,7.8,99.6
	C1273.6,1056,1320.8,987.3,1326.7,962.3z M528.5,1777.6c-0.9-17.6-10.9-26.5-25.7-21.7c-11.1,3.6-19.2,11.1-21.9,22.5
	c-2.5,10.6-3.6,21.5-4.7,32.3c-0.9,9,3.9,14,13.1,14.9c13,1.2,27.1-7.1,32.1-20.3C524.8,1796.5,526.3,1786.9,528.5,1777.6z
	 M364.4,1615.2c19.7-2.4,38.5-9.7,51.4-27.6c8.3-11.6,2.7-26-11.4-27.9c-5.9-0.8-13.9,0.5-18.2,4c-9.3,7.8-19.6,12.4-30.7,16.6
	c-9.2,3.4-13.3,12.5-11.3,22.3C346,1610.5,352.5,1615,364.4,1615.2z M1912.4,526.8c5.8-2.4,16.6-5.7,26.1-11.1
	c7.7-4.4,11.5-12.6,11.5-21.8c0.1-7.3-4-12.5-11.2-12.4c-15.2,0.1-29.2,4.9-40.9,14.5c-3.1,2.5-5.2,7.2-6.2,11.4
	C1888.7,518.7,1895.6,526.9,1912.4,526.8z M237.6,330.5c7.5,0.1,13.9-2.3,17.6-9.3c3.3-6.3,3.1-12.8-1.3-18.4
	c-7.6-9.7-17.5-16.4-30.1-17.9c-11-1.4-17.8,4.7-18.7,15.9C204,316.5,219.1,330.3,237.6,330.5z M1667,92.6
	c-3.4-5.7-5.7-12-10.1-15.9c-5.6-4.9-12.2-1.7-18,1.9c-5.5,3.4-11.5,6.4-16.5,10.4c-2.6,2.2-5.2,6.2-5.1,9.4
	c0.1,8.2,13.9,22.7,22,24.2c7.2,1.4,14.1-0.4,17.8-6.8C1661,109,1663.4,101.3,1667,92.6z M1678.1,718.7
	c-13.1,0.1-21.5,9.4-19.9,22.3c1.7,12.5,8.8,21.8,19.8,27.2c3.9,2,11.1,1.9,14.4-0.6c3.2-2.3,4.9-8.7,5-13.3
	c0.1-7.1-2-14.4-2.9-21.5C1692.9,721.7,1689.4,718.6,1678.1,718.7z M813.8,478.5c-5.6,1.9-11.7,2.9-16.5,5.9
	c-10.5,6.5-10.9,22-1.5,29.4c7.3,5.7,30.5,3.8,36.6-3.1c1.3-1.5,2.2-3.5,2.5-5.5C838.5,488,831.7,479.8,813.8,478.5z M183,632.4
	c-15.9,0-26.1,8.2-25.4,19.9c0.7,11.7,13,19.8,27.4,18c1.1-0.1,2.1-0.3,3-0.5c9.6-2.3,18.1-12.2,17.5-20.5
	c-0.6-7.8-10.3-16-20.1-16.8C184.5,632.5,183.4,632.5,183,632.4z M1692.8,220c0.7,13.9,8.6,20.6,19.8,15.5
	c9.4-4.3,15.8-11.9,18.7-21.8c2.5-8.7-3.2-19.4-11.4-22.3c-9-3.2-16.7,0.3-21.3,10.4C1696.1,207.5,1694.7,213.8,1692.8,220z
	 M347.5,1241.2c-11.6-0.2-19.1,5.6-19.2,14.8c-0.1,11.9,10.6,24,21.4,24.1c9.8,0,21.9-11.4,22.2-20.9
	C372.1,1249.3,361.7,1241.5,347.5,1241.2z M1673.2,1429.3c4.6-0.5,8.2-0.6,11.8-1.2c11.2-2.1,15.2-14,7.7-22.5
	c-8.1-9.3-32.4-10.4-39.9-0.8c-3.1,4-4.8,10.8-3.8,15.6c0.6,3,7,5.6,11.3,7.1C1664.7,1428.9,1669.5,1428.8,1673.2,1429.3z
	 M1857.6,1692.9c24-1.1,38-23.8,29.2-48c-5.9-16.1-20.2-26-33-18.3c-15.4,9.3-29,22.4-41,36c-7.3,8.4-3,18.8,8.6,22.2
	C1833.4,1688.1,1845.6,1690.3,1857.6,1692.9z M1548.2,54.3c-0.2,12.3,11.8,21.1,23.1,16.2c6.9-3,13.5-6.9,19.8-11
	c6.5-4.1,6.4-9.1-0.2-13.5c-9.3-6.2-19.7-8.3-30.7-6C1552.9,41.7,1548.4,46.3,1548.2,54.3z M1083.2,335.9c3.4-2.4,8.4-4,9.7-7.1
	c0.9-2.4-2.3-8.1-5.2-9.8c-10.3-6.1-19.3-13-25.3-23.7c-1.4-2.4-6.4-4.3-9.1-3.7c-3.2,0.7-7,3.8-8.4,6.9c-2.5,5.3-1.2,10.9,3.6,14.8
	c7.2,6,14.5,11.9,22.1,17.3C1074,332.8,1078.2,333.8,1083.2,335.9z M1410.1,112.7c9-5.7,17-9.9,24-15.5c6.7-5.3,7-15.2,2.1-20.3
	c-4.9-5-12.4-3.4-19.1,3.2c-3.6,3.6-7.7,6.9-11.9,9.6c-4.1,2.6-10.8,4.3-8.1,10.2C1399,104.7,1404.8,107.8,1410.1,112.7z
	 M590,1810.2c0.7,3.4,1,6.9,2.1,10c3.4,9.9,13.2,11.7,20,3.7c6.4-7.4,7-21.8,0.3-28.8c-2.6-2.8-7.7-5.2-11.4-4.7
	c-3.1,0.4-6.6,4.5-8.3,7.8C591,1801.7,590.9,1806.1,590,1810.2z M191.3,1082.5c-11.1,0.1-16.3,3.3-15,10.1c1,5.3,3.5,11,7.1,15.1
	c4.2,5,10.7,5.2,16.6,2c6.2-3.3,10.2-8.6,9.7-15.8c-0.5-7-6.6-8.7-12.1-10.4C195,1082.8,192.3,1082.6,191.3,1082.5z M719.9,1129.2
	c0.1-8.4-5.4-15.4-12-15.6c-7.4-0.2-14.4,6.6-14.6,14.2c-0.2,8.3,6.3,14.9,14.7,14.9C714.7,1142.7,719.9,1136.9,719.9,1129.2z
	 M1347.2,114.8c7.2,0,14.4-5.7,14.5-11.6c0.2-6.2-11.8-14-21.2-13.9c-6.3,0.1-9.8,2.8-9.9,9.4
	C1330.5,107.7,1337.9,114.8,1347.2,114.8z M1776.4,1017.5c0.2-6-1.7-10.2-8.6-10.4c-9.9-0.2-17.5,6.4-17.8,15.7
	c-0.3,7.3,4.7,12.5,11.9,12.5C1770.1,1035.4,1776.2,1028,1776.4,1017.5z M409.6,1327.5c0-6.7-4.2-10.6-10.2-9.7
	c-7.5,1.2-17.2,12.2-17.4,20c-0.2,6.5,3.2,9.7,9.6,9.2C400.8,1346.4,409.7,1336.7,409.6,1327.5z M1344.3,1218.4
	c0.5,0.5,1,0.9,1.5,1.4c3.7-2.9,9.6-5.4,10.4-8.9c0.7-2.7-4.3-8.3-8-10.3c-4.3-2.3-10.3-3.1-15-2.2c-3.2,0.7-6.8,5.4-7.7,8.9
	c-0.6,2,3.3,6.4,6.1,7.8C1335.3,1217.2,1340,1217.4,1344.3,1218.4z M481.3,1549.6c-9,0.1-13.4,2.8-13.2,8.5
	c0.2,6.9,7.3,12.4,15.5,12.2c6.9-0.2,12.1-4.7,12.3-10.5C496.1,1553.2,490.8,1549.5,481.3,1549.6z M965.5,367.1
	c1.3,1.1,3.3,4.4,6.1,5c4.8,1.1,12.3-8.1,11.8-14.3c-0.2-2.4-2.6-5.9-4.8-6.5C973.7,350.1,965.7,358.9,965.5,367.1z M870.1,1286.7
	c-1.9-1.4-4.3-4.4-7.3-5.1c-5.3-1.2-10.4,4-9.3,9.5c0.6,2.9,4,7.2,6.6,7.4C865.9,1299.3,869.2,1295,870.1,1286.7z M1046.8,392.1
	c3.4-4.3,6.6-6.8,7.2-9.8c0.3-1.6-3.8-5.4-6.3-5.8c-4.4-0.7-8.7,1.8-7.9,7.1C1040.1,386,1043.3,388.1,1046.8,392.1z M1225.4,1250.4
	c-4.4-2.6-7.1-5.4-9-5c-2.4,0.5-5.6,3.6-5.7,5.8c-0.1,2,3.5,5.8,5.3,5.7C1218.5,1256.8,1220.9,1253.8,1225.4,1250.4z"/>
</svg>
