<?xml version="1.0" encoding="utf-8"?>
<!-- Generator: Adobe Illustrator 21.1.0, SVG Export Plug-In . SVG Version: 6.00 Build 0)  -->
<svg version="1.1" id="Layer_1" xmlns="http://www.w3.org/2000/svg" xmlns:xlink="http://www.w3.org/1999/xlink" x="0px" y="0px"
	 viewBox="0 0 2000 2000" style="enable-background:new 0 0 2000 2000;" xml:space="preserve">
<style type="text/css">
	.st0{fill:#81C2F7;}
</style>
<g>
	<path class="st0" d="M610.2,0.1c0.3,10,1.4,20,0.9,29.9c-0.4,8.4,2.6,13.6,9.9,16.9c8.9,3.9,17,8.9,23.9,16.2
		c8.9,9.4,13.5,20.8,15.3,33.3c1.9,12.6-4,20.2-16.7,21.3c-19,1.6-36.5-2.8-51.7-15.2c-3-2.5-5.8-5.3-8.6-8.2
		c-12.7-13.2-28.4-16.9-45.8-14.7c-9.1,1.2-16.4,6.4-21.6,14c-3.5,5.1-6.2,10.8-9.5,16c-3.5,5.6-6.7,11.5-11.1,16.5
		c-15.5,17.4-40.3,12.5-49.1-9.2c-6.7-16.4-3.1-34.4,9.2-46.8c2.5-2.5,5.3-4.7,8.1-6.9c1.9-1.5,3.9-2.9,6.1-4
		C493.9,47,511,26.9,525.8,4.5c1-1.5,2-2.9,3-4.4C555.9,0.1,583,0.1,610.2,0.1z M584.4,45.6c-2.9,0.5-6.2,0.8-9.3,1.8
		c-6.4,1.9-8,7.7-3.7,12.9c3.2,3.9,7.3,6.5,12.6,5.1c5.9-1.6,11-4.4,12.8-10.9c1.1-3.9-0.3-6.4-4.3-7.5
		C590,46.1,587.3,46,584.4,45.6z"/>
	<path class="st0" d="M0.3,576.7c1.9-0.3,3.9-0.3,5.8-0.8c4-1.1,8-2.3,11.9-3.7c10.9-3.8,21.9-4.3,33-1.5c2.1,0.5,4.3,0.9,6.4,1.3
		c5.5,1.1,10.4-0.3,14.8-3.8c4.5-3.5,9-7.3,13.9-10c18.2-10.1,36.1-9.5,53.2,2.8c5.2,3.8,10.2,7.7,15.2,11.7
		c2.2,1.8,4.4,3.7,6.4,5.8c8.8,9.5,8.6,21.1-0.4,30.3c-6.5,6.6-14.5,10.9-23,13.9c-13.3,4.7-26.6,9-40,13.2
		c-10.7,3.4-20.4,1.7-28.3-6.9c-6.3-6.7-13.9-9.3-22.7-7.4c-15.7,3.3-30.9-0.3-46.2-3.6C0.3,604.3,0.3,590.4,0.3,576.7z"/>
	<path class="st0" d="M0.3,1785.8c9.7,1.1,19.5,1.2,28.8,3.6c17.1,4.3,24.9,16.9,22.9,34.8c-0.5,4.7-1.6,9.5-3.3,13.9
		c-3.7,9.9-7.9,19.7-12,29.5c-6.1,14.3-16.8,22.8-31.8,25.7c-1.6,0.3-3.1,0.8-4.5,1.2C0.3,1858.2,0.3,1822,0.3,1785.8z"/>
	<path class="st0" d="M1897.4,9.9c2.4,7,4.6,14,7,21c2.3,6.6,2.1,13.1-1,19.3c-3.6,7.4-10.2,8.4-15.8,2.4c-2.9-3.1-5.3-6.6-7.6-10.1
		c-4.6-7.2-10.4-13.3-17.5-17.8c-5.9-3.7-10.6-8.5-13.9-14.7C1864.8,9.9,1881.1,9.9,1897.4,9.9z"/>
	<path class="st0" d="M241.4,9.9c-4.1,11.6-12.7,17.7-24.3,20c-15.7,3.1-26.9-3.8-32.4-20C203.6,9.9,222.5,9.9,241.4,9.9z"/>
	<path class="st0" d="M1174,96.9c-0.2,5.1-2.4,11.5-6.7,17.1c-6.4,8.2-17.6,7.6-23.1-1.3c-1.7-2.8-2.8-5.9-4.2-8.9
		c-1.8-4.1-3.9-7.9-7.1-11c-6.5-6.2-13.8-5.8-19.3,1.3c-1.8,2.3-3.3,5-4.5,7.7c-2.9,6.3-7.2,11.2-12.6,15.4
		c-0.9,0.7-1.8,1.4-2.7,2.1c-7.5,5.3-13.6,11.9-17.7,20.3c-5,10.1-13.5,15.7-24.2,18.4c-8.1,2-15.2-0.2-21.2-5.5
		c-6.7-5.9-11.8-13.1-14.9-21.6c-1.4-3.7-1.6-7.4-1-11.4c1-5.3,1.5-10.8,2.1-16.1c1.2-10.6,6-16.5,16.2-19.4c2.7-0.8,5.5-1.2,8.2-2
		c5.8-1.8,7.6-6.3,4.5-11.7c-1.3-2.3-3.3-3.9-5.8-4.8c-2.4-0.8-4.9-1.4-7.3-2c-5.1-1.2-7.8-4.6-8.2-9.6c-0.6-8.2,1.9-15.6,7.3-21.6
		c3.9-4.3,9.5-5.3,14.8-4.8c8.2,0.9,16.3-0.3,24.4-0.5c3.6-0.1,7.3,0.5,10.9,0.8c4.8,0.3,9.5,0.8,14.3,0.7
		c7.1-0.2,13.7,1.6,19.8,5.1c6.3,3.6,12.5,7.2,18.8,10.8c4.5,2.6,8.2,6,11,10.4c5,7.9,11.1,14.7,18.4,20.5
		C1170.7,80,1174.2,86.6,1174,96.9z"/>
	<path class="st0" d="M323.8,1236.6c14.9-10.8,23.5-8.6,38.7,0c6.3,3.7,13.1,5.2,20.2,4.7c8.6-0.7,17.2-0.6,25.8,0.8
		c11.9,1.8,20.4-3.3,26.8-13.1c4.3-6.8,7.7-14,10.1-21.7c1.6-5.3,3-10.6,4.7-15.9c5-16.4,15.3-28.7,29.1-38.2
		c27.2-19.3,46.8,1.6,70,9.2c18.5,6,42.4-13.3,44.6,14.1c4.3,52.6-109.5,0.9-95.6,39c1.5,4.1,4.2,7.4,7.3,10.4
		c3.3,3.2,6.7,6.4,9.4,10.1c5.1,6.9,5,13.8,0,20.8c-10,14-23.1,22.3-40.6,21.8c-10.9-0.3-20.7,2.2-30.2,7.6
		c-11.7,6.7-24.7,7.9-37.9,6.4c-6.7-0.8-12.2-4.3-17.2-8.7c-2.6-2.3-5.3-4.8-8.2-6.7c-7.3-4.8-14.2-4.3-20.8,1.6
		c-15.5,13.1-32.2,28.9-48.5,5.5c-5.2-7.6-7.1-16.9-4.4-25.8C308.2,1255.2,312.7,1249.3,323.8,1236.6z"/>
	<path class="st0" d="M187.6,303.8c-0.2,6.1-2.2,11.4-6.9,14.8c-8.9,6.4-14.4,15.4-20.2,24.5c-9,14.2-20.7,25.7-36.5,32.3
		c-5.8,2.3-11.4,5.3-17.1,7.9c-5.3,2.3-10.6,2.8-16.1,0.8c-6.7-2.4-9.5-7.1-7.7-14.2c0.7-3.1,2.1-6,3.1-8.9c1.8-4.8,4-9.5,5.3-14.5
		c3.9-14.9,12.3-26.7,23-37.2c2.5-2.3,5.7-3.8,8.5-5.9c3.5-2.5,7.3-4.8,10.5-7.8c6-5.9,5.3-13-1.6-17.5c-4.3-2.8-8.8-5.2-13.3-7.4
		c-5.1-2.5-10-5.3-14.2-9.3c-4.1-3.8-9-6.1-14.5-6.4c-13.6-0.8-23.2-8.7-31.5-18.6c-2.5-2.9-4-6.4-4-10.4c-0.1-5.4,3.1-9.5,8.5-9.8
		c3.2-0.2,6.5,0.6,9.6,1.3c5.9,1.3,11.8,3.2,17.8,4.4c4.3,0.9,8.4,2,12.3,4.1c5.5,2.9,8.5,2.3,12.8-2.2c1.6-1.6,3-3.3,4.5-5
		c4.6-5,10.2-5.9,16.4-3.9c4.8,1.5,8.4,4.6,11.1,8.7c2.1,3.1,4,6.4,5.4,9.9c4.4,10.2,10.1,19.6,17.8,27.6c6.3,6.6,10,14.6,12.3,23.4
		c1.1,3.9,2.5,7.8,3.5,11.7C186.7,298.8,187.1,301.3,187.6,303.8z"/>
	<path class="st0" d="M1466.2,2000c-6.2-0.7-11.5-2.4-16.2-6c-10.4-7.8-16.1-18.2-16.5-31.2c-0.2-11.9,4.9-21.1,15.8-26.2
		c2.2-1,4.4-2.1,6.6-3.1c7.9-3.5,13.1-9.4,15.5-17.9c0.3-1.1,0.7-2.1,1-3.2c1.9-9.4,7.2-16.3,14.7-22.1c5.4-4.2,10.1-9.2,14.7-14.3
		c7.8-8.8,17.4-13.3,28.9-13.7c4.9-0.2,9.6-0.5,14.5-0.4c13.5,0.3,26.6-1.9,39.3-6.6c4.5-1.7,9.1-3.3,13.8-4.3
		c11.9-2.7,22.1,4.6,23.6,17c1.2,9.7-1.5,18.1-9.3,24.3c-3.5,2.8-7.1,5.2-10.8,7.7c-15.4,10.4-23.5,25.3-26.1,43.6
		c-0.9,6.9-2.2,13.6-3.6,20.3c-1.6,8.1-6.9,12.6-14.8,14c-2,0.3-3.9,0.8-5.8,0.9c-22.7,0.8-43.9,8-64.9,15.7
		C1479.8,1996.9,1472.9,1998.2,1466.2,2000z"/>
	<path class="st0" d="M1675.1,1207.9c-0.4-19.6,4.8-37.9,14.9-54.5c6.4-10.5,18.2-13.6,30.1-8.2c7.9,3.6,14.7,8.9,20,15.9
		c5.8,7.6,7.7,16.3,5.5,25.8c-0.7,3-1.7,6-2.3,9c-1.6,8.6,0.5,14.8,8.2,18.5c12.6,6,23.8,14,35,22.3c4.6,3.4,10.5,5.5,16.2,6.9
		c10.4,2.6,19,7.7,26.4,15.4c12.2,12.7,22,27.1,29.1,43.4c2.5,5.8,4.4,11.7,4.1,18.1c-0.2,8.9-4.4,13.3-13.1,13.2
		c-5.2-0.1-10.5-1.2-15.5-2.5c-15-4.2-29.9-8.5-43.5-16.8c-4.5-2.8-10.2-4-15.6-5.2c-12.6-2.8-24.1-7.9-34.6-15.6
		c-10.2-7.7-17.3-17.6-21.4-29.7c-1.5-4.4-2.7-8.9-4.1-13.4c-2.6-8.3-7.9-13.7-16.1-16.1c-3.4-1-6.7-1.9-10-3.1
		c-10.2-3.6-13.2-7.8-13.3-18.6C1675.1,1211.1,1675.1,1209.5,1675.1,1207.9z"/>
	<path class="st0" d="M1711.9,441.3c-0.6,17.1-8.5,30.3-22.9,38.9c-10.9,6.4-22.7,11.5-34.4,16.5c-9.7,4.2-19.7,4-29.1-1.7
		c-5.8-3.6-10.1-8.5-12.2-15.2c-3.3-10.7-7.8-20.6-14.5-29.8c-2.5-3.3-3.1-8.2-4.4-12.4c-0.7-2.3-0.7-4.8-1.1-7.3
		c-1.1-6.9-4.9-11.2-11.4-13.2c-3.4-1-6.7-1.8-10.1-2.8c-3-0.8-5.9-1.7-8.7-2.8c-8.1-3.6-12.3-10.4-10.5-19.3
		c0.9-4.8,3.2-9.7,5.8-14c5.2-8.8,10.9-17.1,16.5-25.7c1.8-2.8,3.8-5.5,5.9-7.9c3.8-4.3,8.7-6.6,14.4-7.2c8.6-0.8,15,3.3,17.5,11.8
		c0.9,2.9,1.1,6.1,1.7,9.2c1,5,1.8,10.1,3.2,15c1.6,5.5,5.8,8.1,11.4,8.3c5.8,0.3,11.2-1.6,16.4-4.3c5.4-2.9,10.8-6,16.4-8.4
		c12.9-5.7,25.1-0.6,30.7,12.6c0.8,2,1.6,4.2,1.9,6.4c2,11.3,6.1,21.7,11.5,31.8C1709.8,426.2,1712.2,433.4,1711.9,441.3z"/>
	<path class="st0" d="M9.2,1294.9c0.7-19.7,9.4-32.4,23.4-41.7c7-4.7,14.9-4.9,22.8-2.7c4.2,1.2,8.3,2.8,12.3,4.4
		c9,3.8,17.8,3.6,26.8-0.3c12.8-5.6,24.4-13,35.7-21.1c7.2-5.3,14.9-9.4,23.6-11.2c16.4-3.5,34,6.1,40.1,21.9
		c3,7.8,2.6,15.4-1.4,22.6c-2.3,4.3-5.2,8.4-8.5,11.8c-7.1,7.3-14.6,14.1-22.2,20.8c-10.9,9.5-23.8,13.9-38.2,13.9
		c-3.5,0-7,0.2-10.5,0.4c-8.1,0.6-15.1,3.8-21.6,8.8c-10.3,7.9-20.8,15.5-31.4,23.2c-2.3,1.7-4.9,2.9-7.5,4.1
		c-4.1,1.8-8.3,1.6-11.9-1c-3.8-2.6-7.7-5.3-10.6-8.9c-8.4-9.9-14.7-21.1-18.7-33.4C10.1,1302.1,9.7,1297.4,9.2,1294.9z"/>
	<path class="st0" d="M427.5,311.8c-7.9-0.5-15.7-0.9-23.6-1.6c-7.2-0.5-12.9-3.8-17.5-9.4c-2.2-2.8-4.5-5.4-6.6-8.3
		c-4.6-6.5-10.9-10.1-18.6-11.5c-2.1-0.3-4.4-0.7-6.5-1.1c-12.4-2.4-19-10.1-19.6-23.1c-0.4-9,2.5-17.1,7.1-24.7
		c5.4-8.9,11.4-17.4,17.1-26.2c5.1-7.9,12.1-10.7,21-7.7c10.3,3.4,20.6,3.8,31,0.6c7.9-2.4,15.8-1.5,23.1,2
		c6.8,3.3,13.7,7,19.9,11.5c7.9,5.7,11.8,14.1,9.9,23.9c-2.8,14.5-1.2,28.2,4.8,41.7c1.5,3.3,2,7.3,2.3,11
		c0.8,8.8-2.4,14.8-10.6,17.8c-5.7,2.1-11.9,3-17.9,3.8c-4.9,0.6-10,0.1-15.1,0.1C427.5,311.3,427.5,311.5,427.5,311.8z"/>
	<path class="st0" d="M1321.2,987.2c-1.6,6.7-3.8,16.4-6.4,25.9c-1.1,3.9-4.1,5.9-8.1,6c-2.6,0-5.4,0.1-7.8-0.8
		c-14.7-5.5-30.2-6.5-45.6-6.8c-7.2-0.1-14.2-1.6-21-4.3c-8.7-3.5-15.2-9.3-18.1-18.4c-2.2-6.7-4.1-13.5-5.3-20.5
		c-1.8-10.6-5.5-20.1-12.2-28.5c-6.9-8.5-6.3-16.5,1.1-24.5c3.8-4.2,8.5-6.9,13.8-8.6c6.2-1.9,11.6-0.6,15.9,4.3
		c2.1,2.4,3.8,5.2,5.5,7.9c2.8,4.2,5.2,8.9,8.5,12.8c7.7,9.2,15.6,18.1,23.7,27c7.4,8.1,16.7,11.3,27.6,10.6
		c5.5-0.4,11-0.6,16.3,0.1C1317.5,970.6,1321.3,975.9,1321.2,987.2z"/>
	<path class="st0" d="M1228.7,1587.4c-1.1,4.5-1.7,9.2-3.4,13.5c-3.5,9.1-7.4,18.1-11.5,26.9c-1.7,3.8-4.1,7.4-6.7,10.6
		c-10,12.4-26.2,13.3-37.7,2.4c-8.6-8.2-12.4-18.6-13.5-30.3c-0.4-4.2-0.4-8.4-0.6-12.6c-0.4-11.3-4.2-21.2-11.4-29.8
		c-6.3-7.5-13.4-14-21.8-19.1c-7.4-4.4-14-9.9-19.1-17.1c-3.4-4.8-5.5-10.1-5.7-16.1c-0.2-8.3,3.4-13.5,11-16.1
		c7.2-2.4,14.4-1.9,21,1.8c5.1,2.9,10,6.4,14.7,10.1c6,4.8,12.5,8.1,19.8,10c4.4,1.2,8.9,2.5,13.3,3.9c7.9,2.5,13.8,7.5,17.9,14.9
		c1.3,2.3,2.6,4.7,3.6,7.1c3.5,8.3,9.1,14.6,16.8,19.1c1.5,0.8,3,1.9,4.4,3C1225.5,1573.8,1228.5,1579.7,1228.7,1587.4z"/>
	<path class="st0" d="M731.1,1867.9c1.5-6.4,2.3-13.1,4.5-19.3c4.4-12.4,4.8-24.5,1.9-37.4c-1.6-7.3-1.6-15-1.4-22.5
		c0.1-4,1.6-8.4,3.6-11.9c12.7-23,45.2-24.6,60-3.1c2.9,4.2,5.2,8.8,7.9,13.1c5.9,9.6,6.9,20.1,2.2,30c-5.9,12.5-8.1,25.1-7.1,38.7
		c0.7,8.2-2.6,15.7-7.3,22.4c-5.8,8.4-12.8,15.8-20.9,22c-1.9,1.4-4,2.8-6.2,3.8c-11.9,5.9-23.9,1.9-30.2-9.9
		C734,1885.8,732,1877.2,731.1,1867.9z"/>
	<path class="st0" d="M1507.2,1520.1c3.3,0,5.8,0,8.1,0c6.1-0.1,11-2.6,14.7-7.5c2.4-3.2,4.6-6.5,7.2-9.6
		c12.8-15.8,35.9-16.6,49.9-1.8c2.1,2.3,3.9,4.8,6,7.1c5.1,5.2,10.2,10.3,15.5,15.3c2.2,2.1,4.8,3.9,7.2,5.9
		c14.8,11.7,7.7,32.3-4.7,38.4c-6.3,3.1-12.8,4.8-19.8,3.4c-11.7-2.4-23-1.2-34.6,0.9c-7,1.3-14.3,1.2-21.6,1
		c-9.2-0.2-18.4-1-27.6-1.3c-11.5-0.4-22.1-3.2-30.5-11.9c-6.7-7-7.3-12.5-2.2-20.9c0.8-1.3,1.6-2.6,2.6-3.8
		C1485.1,1524.5,1494.4,1517.7,1507.2,1520.1z"/>
	<path class="st0" d="M1963.6,737.4c-3.6-0.8-10.6-2-17.3-4.2c-7.8-2.6-13.6-1.3-18.5,5.6c-9.7,13.4-23,19.5-39.3,20
		c-11.2,0.3-22.5,1.6-33.8,2.5c-12.4,1-24.6-0.1-36.5-4.2c-3.5-1.2-6.9-2.7-10.1-4.6c-13.1-7.9-15.8-23.6-6.2-35.6
		c2.2-2.6,4.7-5.1,7.5-7c13.3-8.8,24.9-19.5,35.8-31.1c4.7-5.1,10.2-9.2,16.8-11.6c11-4,20.3-1.5,27.1,8.2
		c3.8,5.4,6.9,11.3,10.2,17.1c4.4,7.8,10.3,14.1,18.8,17.3c9.7,3.6,15.1,1.9,21-6.7c4.2-6.1,8.4-12.3,13.1-18
		c5.7-7,13.4-10.1,22.4-9.4c18.6,1.5,29.1,16.6,24.4,34.9C1994.8,727.2,1982.1,737.7,1963.6,737.4z"/>
	<path class="st0" d="M899.1,982.7c-27.3-0.9-53.5-7.1-79.1-16.4c-5.6-2-10.9-5.4-15.7-9c-10.3-7.9-12.4-22.3-4.6-32.7
		c3.7-5,8.6-9.5,13.8-12.8c13.3-8.5,26.9-16.5,40.8-24c14.1-7.6,27.8-6.4,40.4,4c15.1,12.4,30.4,24.6,42.4,40.3
		c3.2,4.2,6.3,8.6,8.6,13.3c6,12.5,2.3,23.7-10,30.3c-8.8,4.7-18.3,6.3-28.1,7C904.9,982.8,901.9,982.7,899.1,982.7z"/>
	<path class="st0" d="M1204.8,1733.6c0,3.7,0.2,7.5,0,11.2c-2.1,26.9-29.6,45.4-54.7,36.4c-4.7-1.7-9.2-5.1-13-8.6
		c-3.3-2.9-6-6.7-8.3-10.5c-9.4-15.1-18.5-30.3-27.5-45.6c-4.6-7.9-7.6-16.4-7-25.8c0.6-9.1,4.1-16.6,11.8-21.4
		c12.6-7.9,26.1-13.5,40.9-15.7c9.3-1.4,17.7,0.8,25.1,6.7c17.3,14,29,31.3,31.5,54.2c0.7,6.3,1.2,12.7,1.7,19.1
		C1205,1733.6,1204.9,1733.6,1204.8,1733.6z"/>
	<path class="st0" d="M161.4,1545.3c-0.7-7.1-1.2-14.1-2.1-21.2c-2-16.2-1.3-32.3,1.7-48.4c1.6-8.2,4.9-15.6,10-22.2
		c6.3-8.4,13.8-15.5,22.7-21c4-2.5,8.7-4.2,13.3-5.3c8.9-2,15.9,1.5,20.8,9.1c6.3,9.5,6.4,20.1,4.7,30.8c-1.2,7.9-4.7,14.9-9.1,21.3
		c-6.1,8.9-9.2,18.6-8.7,29.4c0.2,3.1-0.6,6.2-0.8,9.3c-0.6,6.8-3.6,12.4-8.6,16.7c-8.6,7.6-17.1,15.3-25.8,22.6
		c-6.7,5.7-14.3,3.3-16.8-5.3c-1.4-5-1.6-10.4-2.3-15.7C160.8,1545.4,161.1,1545.4,161.4,1545.3z"/>
	<path class="st0" d="M201.6,1881.7c-1.4,7.6-2.6,15.3-4.1,22.9c-2.6,12.1-9.8,20.6-20.5,26.3c-6.7,3.6-13.7,6.1-21.2,6.5
		c-12.8,0.7-19.9-3.7-23.5-14.7c-0.9-2.8-1.8-5.5-2.8-8.2c-2.5-6.9-4.8-13.9-7.5-20.6c-4.1-9.9-4.6-19.9-1.2-30
		c3-8.8,6.3-17.6,10.1-26.1c6.2-13.7,19.4-17.7,32.3-10.3c2.3,1.3,4.5,2.8,6.3,4.7c7.1,7,14.2,14,20.8,21.3
		C197.4,1861.5,201.5,1870.7,201.6,1881.7z"/>
	<path class="st0" d="M1251.2,204.9c-0.2,11-4.1,19.7-9.3,27.9c-4.2,6.7-9,13.1-13.5,19.7c-5.2,7.7-4.6,11.4,3.5,16.1
		c5.4,3.2,11.2,5.7,16.8,8.8c5,2.8,10.2,5.6,14.7,9.2c13,10.2,17.8,29.1,11.9,44.7c-4.8,12.5-14.8,17.8-27.7,14.9
		c-6.4-1.5-11.6-4.9-16.1-9.6c-8.4-8.9-18.6-12.5-30.6-11.9c-4.4,0.2-9,0.1-13.4-0.3c-7.4-0.7-11.5-4.2-13.4-11.5
		c-2.2-8.4-1.2-16.5,4.3-23.4c2.8-3.5,6.1-6.6,9.4-9.7c2.5-2.4,5.2-4.4,7.8-6.7c8.9-8.2,9-10.9,1.2-20.5c-2.3-2.9-4.6-5.8-6.4-9.1
		c-7.9-14.5-8.7-29,1.4-42.8c4-5.5,9.1-10.3,13.7-15.3c0.9-1,2.1-1.7,3.2-2.4c9.4-5.8,19.4-9.1,29.9-3.6
		C1249.2,184.6,1250.4,195.3,1251.2,204.9z"/>
	<path class="st0" d="M934.2,1151.7c-3.3,9.4-6.1,18.7-9.6,27.8c-2,5.2-5.8,9.3-11.1,11.8c-4.4,2-8.8,2.4-13.4,0.9
		c-10.5-3.6-20.3-8.6-28.4-16.3c-3.6-3.4-6.3-7.8-9-12.1c-2.5-3.9-4.1-8.3-6.4-12.4c-3.4-6.4-8.8-9.8-16-10c-7.7-0.2-14.6-3-20.5-8
		c-8.8-7.4-12.9-16.8-10.4-28.4c2.8-13.3,14.5-18.4,25.5-10.8c4.3,2.9,7.7,7.1,11.2,11.1c2.5,2.8,4.4,6.1,6.6,9.1
		c4.8,6.3,10.9,8.7,18.6,6.5c3.1-0.9,6.2-2.1,9.4-2.8c6.2-1.6,12.3-3.7,18.5-4.4c14.5-1.7,29.7,8.2,33.8,22.3
		C934.5,1140.7,933.8,1146.3,934.2,1151.7z"/>
	<path class="st0" d="M733.1,1413c-14.3-1.2-29-2.2-43.6-3.6c-10.9-1-21.1-4.3-28.2-13.8c-8.9-11.8-14.5-24.7-13.5-39.8
		c0.4-6.3,3.7-11.2,9-14.2c4.7-2.7,10-4.8,15.1-6.7c11-4.2,22.1-8.3,33.3-11.9c6.7-2.1,13.6-3.8,20.5-4.6c7.5-0.9,14.3,2,18.8,8
		c9.6,12.7,19.1,25.4,27.4,38.9c7.5,12.1,7.5,30.8-11.5,41.6C752.1,1411.7,743.2,1414.3,733.1,1413z"/>
	<path class="st0" d="M196.9,888c16.3,0.3,31,6.1,41.9,20c7.9,10,10.8,21.4,6.2,33.7c-5.4,14.4-11,28.8-17.6,42.6
		c-6.6,13.9-20.2,18.5-34.7,12.6c-5-2.1-9.8-5.3-13.8-9c-10-9.1-19.6-18.4-29-28.1c-3.9-4.1-7.4-9-10.3-14
		c-5.9-10.6-5.2-21.4,0.8-31.9c4.5-7.8,11-13.5,19-17.4C171,890.9,183.2,888.2,196.9,888z"/>
	<path class="st0" d="M582.4,696.2c5.6-0.2,10.6,2.7,13.7,8.9c3.3,6.7,7.7,12.6,12.7,17.9c5.9,6.4,9.4,14.1,12.6,22.1
		c1.7,4.2,1.1,8.2-1.2,12c-4.7,7.6-11.4,11.5-20.4,10.6c-8.8-0.8-16.9-3.6-24-8.8c-3.3-2.4-6.3-5.6-8.6-8.9
		c-4.4-6.3-8.2-13-12.2-19.6c-0.9-1.6-1.7-3.3-2.3-5c-3.9-11-0.8-19,9.5-24.2C568.1,698.3,574.4,696.2,582.4,696.2z"/>
	<path class="st0" d="M924.3,702.5c-8.8,0.1-18.1-1.7-27.3-5.5c-8.3-3.4-13.8-9.4-17-17.8c-8.3-21.7-2.4-48.9,14.2-65
		c12.4-12.1,30.5-13.7,44.9-4c9,6.1,15.6,14.1,20,24.1c4.4,10.1,6.5,20.8,7.7,31.6c0.7,6.4-0.9,12.1-4.9,17.1
		C948.6,699.8,942.5,702.5,924.3,702.5z"/>
	<path class="st0" d="M1117.9,405.8c-0.2-23.2,9.6-35.7,28.8-39.8c11.1-2.4,21.4,0.5,29,8.5c10.8,11.5,21,23.8,30.5,36.5
		c7,9.3,5.9,20.1,1,30.3c-7.7,15.7-31.3,27.8-48.4,25.2c-8.4-1.3-15.5-5.1-21-11.6C1125.2,439.9,1119.3,422.3,1117.9,405.8z"/>
	<path class="st0" d="M475.1,1636.8c4.8,1.8,10.1,2.9,14.4,5.5c6,3.5,7.4,9.5,4.7,16c-1.3,3.2-3.2,6.1-5,9
		c-6.7,10.5-13.1,21.2-20.3,31.3c-3.5,4.9-7.8,9.3-12.4,13.1c-4.9,4.1-10.8,4.1-16.3,0.7c-13-8.3-24.3-18.7-32.3-32.1
		c-6.8-11.4-2-26.2,10-29.6c17.6-5.1,35.7-8.5,53.6-12.7c1-0.2,2.1-0.1,3.2-0.2C474.9,1637.5,475,1637.2,475.1,1636.8z"/>
	<path class="st0" d="M1690.3,1592.3c-0.4,8.5-2.8,16.2-9.1,22.2c-8,7.7-17.8,9-27.4,3.4c-2.1-1.2-4-2.6-5.7-4.2
		c-15.2-15.5-30.1-31.2-38.2-51.9c-1.5-3.7-3-7.4-3.6-11.3c-1.3-7.3,3.1-12.5,10.4-12.8c2.3-0.1,4.8,0.1,6.9,1
		c18.4,8.3,37.5,15.2,53.1,28.8c3,2.6,5.7,5.5,8.2,8.6C1688.4,1580.7,1690.1,1586.3,1690.3,1592.3z"/>
	<path class="st0" d="M416.6,1456.7c-17.7,0.2-30.9-8.2-36.5-21.2c-2.1-4.6-2.2-9.1-0.5-13.9c6.1-17.2,25.9-31.4,44-30.9
		c12,0.3,22.5,4.7,27.7,16.4c5.5,12.2,3.5,23.8-5.5,34.1C437.1,1451,426.8,1457,416.6,1456.7z"/>
	<path class="st0" d="M204.2,1632.2c7-0.1,13.5,1.6,19.5,5.3c7.2,4.4,10.6,11,9.3,19.5c-0.7,4.4-1.8,9-3.8,12.9
		c-5.1,9.6-10.8,18.8-16.6,28.1c-1.2,2-2.9,3.8-4.6,5.4c-5.9,5.5-12.2,6.2-18.4,1.2c-3.8-3.1-7.3-7-9.9-11.2
		c-6.1-9.8-9.2-20.8-10.5-32.3c-1.2-9.9,2.9-17,11.3-21.7C187.8,1635.3,195.5,1632,204.2,1632.2z"/>
	<path class="st0" d="M790.9,256.9c1.3-3.1,3-9.3,6.2-14.6c5.4-8.8,11.7-17,17.8-25.3c7.3-9.8,17.3-12.5,28.7-10.4
		c9.2,1.7,16.6,6.7,22.6,13.6c5.2,6,4.2,12.6-2.5,16.9c-2.9,1.8-6.1,3.1-9.4,4c-12.7,3.5-22.9,10.2-29.3,22.3
		c-1.5,2.8-3.5,5.4-5.4,7.8c-5.2,6.5-11.8,8.9-17.9,6.6C795.3,275.6,790.7,268.2,790.9,256.9z"/>
	<path class="st0" d="M117.8,1617c5.3,1.7,12.4,3.5,19.1,6.2c5.3,2.1,8.7,6.7,10.4,12.4c1.6,5.3,0.9,10.2-3.2,13.9
		c-12.9,11.7-27.3,20.8-44.8,23.4c-13.1,2-23.4-5.4-26.4-18.2c-2-8.4,0.3-15.7,6-22C88.9,1621.6,102.1,1619,117.8,1617z"/>
	<path class="st0" d="M707.9,206.1c24.6-3.4,30.7,52.7-6.1,56.4c-15.3,1.5-28.8-9.5-30.2-25.3C669.6,213.9,683.3,209.5,707.9,206.1z
		"/>
	<path class="st0" d="M1845.3,388.5c15.8,0.2,24.2,10.4,21.5,26.2c-1.7,9.4-6.1,17-14.5,21.7c-6.4,3.6-12.7,7.5-19.5,10.3
		c-11.6,4.9-23.3-2.3-24.9-14.9C1805.1,411.7,1825.4,388.2,1845.3,388.5z"/>
	<path class="st0" d="M274.8,1342c2.1,0.3,5.5,0.5,8.9,1.3c12.3,2.8,18,11.8,15.5,24.3c-4.3,21.5-24.4,29.7-42,16.8
		c-3.9-2.9-7.6-6.6-10.6-10.5c-7.1-9.2-5.8-17.2,3.5-23.9C257,1344.9,265,1342.4,274.8,1342z"/>
	<path class="st0" d="M1636.2,1291c-5.8-1.1-12.2-1.6-18.1-3.5c-9.8-3.1-14.1-11-12.4-21.1c2.2-12.6,9.5-21.1,21.1-25.7
		c6.6-2.6,12.5-1.2,17.2,4.2c2.6,3,4.8,6.4,6.2,10c3.1,7.9,5.6,16,8.1,24.2c1.7,5.5,0.4,8-5.3,9.5
		C1647.7,1289.9,1642.1,1290.2,1636.2,1291z"/>
	<path class="st0" d="M514.9,1831.3c6.2,2,12.8,3.1,18.4,6.1c9.9,5.2,11.5,15.1,5.2,24.3c-7.3,10.5-21.3,15.9-33.3,12.9
		c-10.9-2.8-18.8-13-18.5-23.8c0.2-6.4,2.8-11.6,8.8-13.9C501.6,1834.5,508,1833.2,514.9,1831.3z"/>
	<path class="st0" d="M1799.6,1003.2c9.3,0.2,16.3,1.9,22.8,5.7c9.6,5.7,13.5,14.4,12.7,25.4c-0.8,10.7-8.6,17.3-19.1,16.4
		c-7.4-0.6-13.7-4.1-18.2-9.8c-4.9-6.1-9.5-12.7-13.3-19.6c-4.2-7.8-1.4-14.1,7-16.7C1794.6,1003.7,1798,1003.5,1799.6,1003.2z"/>
	<path class="st0" d="M283.2,257.9c0,9.1-4.1,15-12.2,17.3c-9.5,2.8-19.7,0.1-24-7.3c-6.8-12-9.3-24.9-5.1-38.4
		c2.4-7.7,7.3-10.2,14.6-8C270.3,225.6,283.3,243.4,283.2,257.9z"/>
	<path class="st0" d="M538.2,1279.1c22.5-47.7,51.8,73.2,12,46.4C533.2,1314,528.9,1298.8,538.2,1279.1z"/>
	<path class="st0" d="M1930.6,340.9c-11.6-0.5-20.7-7.6-23.1-18c-2.5-10.6,3.2-19.8,13.7-22.3c8.6-2,16.4-0.1,22.1,6.7
		c5.9,6.9,7.2,15.3,4.4,23.9C1945.7,338,1939.3,341.3,1930.6,340.9z"/>
	<path class="st0" d="M1276.7,1231c-0.3,6.5-2.6,12.2-6.8,16.7c-5.1,5.3-10.6,10.2-16.3,15c-1.6,1.3-3.6,2.3-5.6,2.8
		c-5.9,1.5-9.8-1.9-9.5-8.1c0-0.5,0-1.1,0.2-1.6c3.6-11.6,6.9-23.4,11.1-34.8c2.8-7.4,9.2-9.7,16.1-7.1c4.1,1.5,7.2,4.4,8.8,8.6
		C1275.7,1225.2,1276,1228.1,1276.7,1231z"/>
	<path class="st0" d="M940.3,748.2c12.8,0.2,19.3,8.2,16.5,20.8c-1,4.5-3,9.1-5.4,13c-4.2,6.5-12.5,8.9-20.2,6.7
		c-7.1-2-11.4-7.5-12.3-15.7C917.1,758,925.8,748,940.3,748.2z"/>
	<path class="st0" d="M811.3,1723.2c9.4,0.1,17,6,18.8,14.9c2.9,13-5.8,22.9-18.8,21.1c-3.5-0.5-7.2-1.6-10.4-3.4
		c-7-3.9-10.3-12.3-8.2-19.7C794.9,1728.1,802.1,1723.1,811.3,1723.2z"/>
	<path class="st0" d="M755.7,1004.5c-1.1,0.7-2.1,1.5-3.2,2c-2.5,1.2-4.7,0.7-5.7-1.9c-3.3-8.4-4.6-16.9,0.5-25.1
		c3-4.8,6.9-6.7,10.9-5.7c3.9,1.1,7.8,5.8,8.1,10.5c0.1,2.1,0.1,4.5-0.9,6.2c-2.8,5-6,9.6-9.1,14.4
		C756.1,1004.7,755.9,1004.6,755.7,1004.5z"/>
	<path class="st0" d="M1027.5,1617.8c-0.2,12-10.2,20.4-21.8,18.3c-5.1-0.9-8.5-4-9.7-9.2c-2.3-9.2,3.3-19.2,12.2-22.1
		c0.8-0.2,1.5-0.4,2.3-0.6C1022.2,1601.4,1027.7,1605.8,1027.5,1617.8z"/>
	<path class="st0" d="M955.1,1247.4c5.6,0.3,8.5,3.6,8.5,8.6c0.1,9.2-11.7,21.4-20.9,21.6c-6,0.1-10.1-4-9.1-10.1
		c0.4-2.8,1.6-5.7,3.2-8C941.4,1252.9,948.1,1248.8,955.1,1247.4z"/>
	<path class="st0" d="M649.8,1545.6c6.3-0.1,11.3,4.9,11.5,11.6c0.3,7-4.1,12.5-10.3,12.7c-6.7,0.3-12.7-6.2-12.6-13.5
		C638.5,1550.3,643.3,1545.7,649.8,1545.6z"/>
	<path class="st0" d="M1833.9,98.8c0.2,5.9-4,10.8-9.4,10.7c-4.9,0-9-4.1-9.1-9.2c-0.1-5.7,4.9-11.4,10.1-11.4
		C1830,89,1833.8,93.3,1833.9,98.8z"/>
	<path class="st0" d="M1174,1076c0,4.3-3.4,8.6-6.7,8.6c-3.5-0.1-6.8-4.7-6.7-9.5c0.1-4.7,2.5-7.8,6.1-7.9
		C1170.6,1067.1,1174,1071.1,1174,1076z"/>
	<path class="st0" d="M1154.6,645.1c0.1,4.4-3.3,8.9-6.9,9.2s-7.5-3.6-7.5-7.5c0-4,3.9-8,8.1-8.1
		C1151.8,638.5,1154.5,641.3,1154.6,645.1z"/>
	<path class="st0" d="M1723.1,630.7c1.6,0.6,3.3,1.1,4.7,1.8c0.1,0-0.3,2.1-0.9,2.4C1724.7,635.9,1723.2,634.8,1723.1,630.7z"/>
</g>
</svg>
