<?xml version="1.0" encoding="utf-8"?>
<!-- Generator: Adobe Illustrator 21.1.0, SVG Export Plug-In . SVG Version: 6.00 Build 0)  -->
<svg version="1.1" id="Layer_1" xmlns="http://www.w3.org/2000/svg" xmlns:xlink="http://www.w3.org/1999/xlink" x="0px" y="0px"
	 viewBox="0 0 2000 2000" style="enable-background:new 0 0 2000 2000;" xml:space="preserve">
<style type="text/css">
	.st0{fill:#3279E0;}
</style>
<g>
	<path class="st0" d="M1994.3,1000.3c-3.5,2.7-7,5.6-10.4,8.3c-16.2,13-37.6,11.5-50.7-4.4c-6.5-7.8-12.1-16.4-17.1-25.2
		c-7.8-13.9-5.4-26.2,7.1-36.2c7.1-5.7,15.3-10.1,23.4-14.5c8.4-4.5,14.5-10.6,16.5-19.8c3.6-16.8,14.3-25.3,31.2-27.1
		C1994.3,921.2,1994.3,960.8,1994.3,1000.3z"/>
	<path class="st0" d="M1463.1,0.1c-2.3,14.3-9.2,24.2-23.3,30.7c-19.6,9.1-39.6,15.2-60.9,18.6c-18.5,2.9-28.3-0.8-38-16.2
		c-3.8-6-8.6-11.2-11.9-17.4c-2.7-4.8-3.9-10.5-5.8-15.7C1369.8,0.1,1416.5,0.1,1463.1,0.1z"/>
	<path class="st0" d="M647.2,0.1c2.8,6.2,5.8,12.2,8.3,18.6c2.6,6.7,0,11.8-6.4,14.9c-13.1,6.3-26.4,6.5-38.4-2.1
		c-11.1-7.8-19.7-18.1-23.9-31.3C607,0.1,627.2,0.1,647.2,0.1z"/>
	<path class="st0" d="M1984.7,0.1c-7.6,17-33.1,30.8-51.5,27.6c-8.9-1.6-14.6-6.8-17.6-15c-1.5-4.1-2.6-8.4-4-12.6
		C1936,0.1,1960.3,0.1,1984.7,0.1z"/>
	<path class="st0" d="M1994.3,726.8c-5.6-1.6-11.4-2.4-16.7-4.7c-16.5-6.9-21-22.5-11.3-37.4c6.7-10.3,16.4-15.9,28.2-19
		C1994.3,686.2,1994.3,706.6,1994.3,726.8z"/>
	<path class="st0" d="M1994.3,245.5c-9.8,0-15.8-5.2-18.7-13.9c-2.2-6.6-4.1-13.4-5.6-20.2c-3.3-15.1,3.5-24.9,19-28.4
		c1.8-0.4,3.5-1.1,5.3-1.6C1994.3,202.8,1994.3,224.1,1994.3,245.5z"/>
	<path class="st0" d="M1989.5,2000.6c1.6-2.1,3.2-4.2,4.8-6.3C1994.2,1997.5,1995.9,2002.1,1989.5,2000.6z"/>
	<path class="st0" d="M1460.4,1158.5c-25.1-6-40.4-18.4-58.1-24.6c-22.1-7.7-42.3-4.8-65-11.5c-57.2-17-84.5-54-65-107.4
		c12.8-34.9,34-72.8,67.6-48.6c22,15.9,29.9,77.8,42.6,100.7c25,45.2,87.1,43,105.5,7.9c18.3-35.1,43.3-101.6,66.8-71.9
		s-20.2,93.6-29.3,103.5s-13.3,19.3-21.6,28.9C1495.3,1145.1,1485.4,1164.5,1460.4,1158.5z"/>
	<path class="st0" d="M358.2,1027c-15.5-3-30.5-6.7-46.2-1.6c-16.8,5.7-25.4,22.9-41,29.1c-14,5.7-28.2-0.2-42.6,3
		c-14.9,3.3-28.1,14.5-44.6,15.1c-23.7,0.9-70.7-32.9-71.2-59.2c-0.3-14.3,17.4-31.4,27.5-40.3c9.8-8.6,26.3-25.6,36.1-31.4
		C199.6,928,227,958,250,966.9c14.6,5.7,31.4,10.2,44.1,1.6c11.4-7.8,9.1-20.7,26.4-19.4c14,1.2,19,16.6,30.3,21.7
		c14.2,6.5,21.7-4.7,34.8-2.2C417.3,975,378.6,1027.2,358.2,1027z"/>
	<path class="st0" d="M254.3,1583.5c15.2,0.3,28.5,5.1,36.3,18.6c5.9,10.1,10.2,20.9,14.9,31.6c3.8,8.6,6.5,17.6,10.3,26
		c7.7,16.3,5.1,24.3-11.3,31.8c-15.7,7.1-16.7,11-6.8,25.2c4.2,6,7.8,12.4,12.3,18.2c13.4,17,9,34.3,1.4,51.6
		c-3.3,7.6-10.5,6.5-17.3,5.4c-12.5-2.1-25-4.7-37.6-6.1c-8.4-0.9-16.9-0.9-25.3,0c-14,1.6-25.6-1.7-34.7-12.7
		c-4.7-5.6-10.3-10.5-15.4-15.7c-2.9-3-6.1-6-8.2-9.5c-8-13.1-1.8-27.8,13.3-31c7-1.5,14.3-0.8,21.3-2c6.5-1.1,13.1-2.3,18.9-5.1
		c9.9-4.8,10-11.8,1-17.7c-8-5.2-16.6-9.2-24.7-14.3c-18.6-11.5-22.6-31.6-10.2-49.4c1.5-2.2,3.1-4.3,4.9-6.2
		c9.3-9.4,18.4-18.8,27.9-27.9C233.4,1586.9,243.2,1583.2,254.3,1583.5z"/>
	<path class="st0" d="M838.6,492.5c-13.9,0-16.8-3.1-15.6-13c1.2-9.4,2.5-18.8,3.9-28.2c1.2-8.3,6.1-13,14.5-14.2
		c4.7-0.7,9.4-0.9,14-1.7c4.2-0.7,8.5-1.4,12.4-2.9c12.9-5,15.1-9.7,10.2-22.4c-4.5-11.4-1.9-21.1,4-31.4
		c11.9-20.9,29.3-35.2,51.3-44.9c11.4-5.1,22.6-7,34.5-2c9,3.8,17.7,2.9,26.8-0.4c5.8-2.1,12.1-3.2,18.2-3.2c2.9,0,7.2,3.2,8.3,6
		c6.2,15.1-1.3,35.7-16.1,43.1c-20.4,10.2-35,25.8-46.7,44.5c-4.7,7.5-11.4,11.8-20,13.3c-7.1,1.3-14.2,2.6-21.3,2.6
		c-13.2-0.1-22.2,5.8-28.6,16.5c-2.4,4-5,7.8-7.1,12C871.8,485.2,856,493.3,838.6,492.5z"/>
	<path class="st0" d="M511.3,571.7c-7.2-6.6-8.9-18-3.9-26c1.3-2.2,2.9-4.3,4.4-6.3c3.4-4.5,5.2-9.4,4.9-15.2
		c-0.2-3.8,0.6-7.6,1.5-11.3c1.7-6.8,0.8-12.8-3.3-18.7c-9.2-13.1-6.1-20.6,9.3-25.6c5-1.6,9.9-5.1,13.5-8.8
		c6.7-7,13.5-13.1,23.6-15.3c3.7-0.8,7.1-3.8,10.3-6.1c3.6-2.5,7-4.7,11.6-2.6c4.7,2.1,7.2,6,7,10.7c-0.3,6-1.5,12-2.8,17.9
		c-1.5,6.7-4,13.2-5.4,19.8c-1.7,7.8-5.7,13.4-13.1,16.7c-2.3,1-4.4,2-6.7,2.9c-7.9,3.1-11.3,8.9-11.6,17.1
		c-0.1,3.8-1.4,7.9-3.2,11.3c-3,5.6-4.7,11.2-3.5,17.4c1.6,8.3-1.9,14.3-9.1,18.4c-3.6,2.1-7.5,3.9-11.3,5.6
		C518.8,575.8,514.6,574.8,511.3,571.7z"/>
	<path class="st0" d="M763.7,824.9c-0.5,6.1-0.9,12.2-1.5,18.4c-0.5,5.5-3.3,9.8-8.3,12.4c-6,3.1-9.8,8.1-13.9,13.2
		c-4.9,6.1-10.7,11.7-16.9,16.5c-4.6,3.7-10.4,3.1-15.6-0.1c-7.8-4.8-11.4-13.3-9.7-22.6c0.4-2,0.7-4,1.3-5.9
		c3.1-9.9-1.2-16.9-9-22.5c-2.4-1.7-4.9-3-7.4-4.5c-1.3-0.8-2.6-1.3-3.8-2.1c-3.6-2.3-5.2-5.5-4-9.6c1.2-4,5-4.5,8.5-4.5
		c4.4,0,8.7,0.3,13.1,0.6c8.6,0.6,16.3-1.3,23.5-6.2c3.5-2.4,7.5-4.7,11.7-5.6c11.5-2.6,20.9,2.5,28.6,10.1c2.8,2.7,3.1,8,4.5,12.1
		C764.4,824.7,764.1,824.8,763.7,824.9z"/>
	<path class="st0" d="M170.8,420.2c-2.9-0.6-8.1-1.5-13.2-2.5c-9.6-2-17.1,0.5-24.4,7.4c-10.9,10.5-22.6,20.4-34.8,29.4
		c-17.4,12.8-34.2,8-40.1-12.4c-4.8-16.5-14.1-26.1-30.6-30c-2.7-0.7-5.3-2.4-7.5-4.3c-6.4-5.5-6-12.7,1.8-15.4
		c14.5-5.1,20.6-15.6,24.4-29.2c4.1-14.8,16.7-18.4,29.8-9.8c15.1,10.2,17.7,10.1,32.9-0.5c13.6-9.5,27.9-16.9,45.5-15.3
		c17,1.6,24.9,8.7,28.6,25.1c1.5,6.7,4.9,13,7.6,19.5c0.7,1.7,2,3,2.9,4.7C203.5,404.7,193.9,420.5,170.8,420.2z"/>
	<path class="st0" d="M1759.4,233.2c2.8-3.9,5.2-10,9.8-13.3c9.3-6.8,14.9-14.5,16.2-26.2c1.7-14.2,17.8-23.5,32.8-19.1
		c15.7,4.6,29,12.9,38.7,26.8c5.3,7.6,13.6,13.3,21.1,19.3c12.7,10.2,26.8,18.9,38.3,30c5.1,4.9,7.4,14.5,7.6,21.9
		c0.3,15.2-13.7,23.1-27.8,16.6c-7.2-3.2-14-4.7-21.3-0.8c-9,4.9-17.4,2.5-25.6-2.1c-3.7-2.1-7-4.8-10.4-7.1
		c-8.3-5.5-16.4-6.6-24.8,0.1c-7.5,5.9-15.2,5.4-23.8,1.2C1771.1,271.4,1764.4,254.6,1759.4,233.2z"/>
	<path class="st0" d="M69,198.3c-8-1.7-16.2-2.6-23.9-5.1c-18.7-6.1-22.5-27.2-7.5-40c2.8-2.3,6.3-3.9,9.1-6.3
		c5.6-4.7,12-8.9,16.2-14.7c9.3-12.7,21.7-19.2,36.8-20.4c12.7-1.1,19.2-7.5,24.5-18.7c4.9-10.6,12.4-20.5,20.7-28.9
		c10.5-10.7,27.1-9.2,35.2,3.2c6.1,9.2,10.1,19.9,13.1,30.5c2.8,10.1-0.9,19.6-8.4,27.2c-2.2,2.2-4.2,4.9-6.7,6.6
		c-20.4,13.8-36.7,33.1-60.2,42.9c-4.1,1.7-7.7,4.7-10.9,7.6C93.7,194.1,87.1,196.8,69,198.3z"/>
	<path class="st0" d="M1291.9,1556.2c-36.4,2.7-54.1-26.3-59.3-50.7c-1.4-6.4,2.3-14.8,5.9-21c5.7-9.8,15.6-15.2,26.2-19.4
		c11.2-4.5,22.5-9.1,33.4-14.2c17.7-8.2,42,1.3,47.3,19.8c1.7,6-0.3,13.1-1.4,19.6c-1.3,7.3-5.7,14.7-5,21.7
		c2.6,26.7-18.1,42.8-43.4,44.2C1293.9,1556.2,1292.3,1556.2,1291.9,1556.2z"/>
	<path class="st0" d="M1087.2,673c13.1-61.6,48.6,36.9,87.5,37.2c15.6,0.1,29.2-23.1,44.4-21.8c5.7,0.5,45.2,25.1,45,33.5
		c-0.3,12.8-47.2,24.2-56.8,28.7c-24.5,11.6-19.4,25-47.1,15C1133.8,756.1,1089.6,701.5,1087.2,673z"/>
	<path class="st0" d="M289.1,293.8c-6.9-3.4-14.2-6.3-20.6-10.5c-9.9-6.6-19.6-13.5-28.3-21.5c-13.8-12.8-27-26-43.9-35.4
		c-4.8-2.6-8-9.1-10.3-14.4c-3.4-7.6-2.5-15.4,3.5-21.8c15-16.1,40.1-16.8,54.8-0.6c8.7,9.6,18.5,14.1,31.2,13.6
		c12.4-0.5,20.7,5.7,24.9,16.9c4.7,12.9,9.9,25.8,12.7,39.1c1.4,6.3-1.3,13.9-3.6,20.3C306.4,288.7,300,292.2,289.1,293.8z"/>
	<path class="st0" d="M1202.8,1928.1c-12.8-3.4-22.9,0.4-32.8,6.3c-16.9,10-30.7,6.8-41.5-9.5c-3.7-5.6-6.3-12.1-7.8-18.5
		c-2.8-12.2,2.8-21.2,15.2-24.1c11.9-2.7,19.7-9.5,27-18.9c6.8-8.8,15.1-16.8,24.2-23.4c11.9-8.6,20.6-5.9,29.8,5.5
		c5,6.2,11.4,11.3,18,16c10.9,7.7,14.4,13.9,7.7,24.9c-8.4,13.6-19.3,25.8-29.8,38C1210.5,1927.1,1205.5,1927.2,1202.8,1928.1z"/>
	<path class="st0" d="M431.2,1754.3c-1.2-25.6,62.9,17.3,69.9,32c9.2,19,4.9,30.8,1,48.2c-0.9,4.2-14,37.9-16.9,43
		c-9.2,16.1-23.9,36.9-37.6,11.9c-7.5-13.8,9.1-31.8,6.4-48.1C448.7,1808.5,433,1790.2,431.2,1754.3z"/>
	<path class="st0" d="M22.2,1214.9c9.5-0.4,18,4.6,25.2,13.4c6.3,7.6,13.2,14.8,20.7,21.2c8.9,7.7,13.4,16.9,14.5,28.4
		c0.9,9.5,1.7,19.5,5.4,28.1c6.1,14.5-6.4,32.9-19.9,36.4c-10.9,2.7-21.5,1.5-30.3-4.7c-4.3-2.9-8.2-9.7-8.2-14.8
		c-0.4-21.5-11.4-38.5-22-55.9c-4.2-6.8-8.9-13.8-11.2-21.3C-10,1226.6-0.5,1214.8,22.2,1214.9z"/>
	<path class="st0" d="M1367.1,1292c1.6-2.9,3.1-9.8,7.5-13.3c15.2-12.2,24.4-28.6,34.7-44.3c2.2-3.3,4.3-6.6,6.7-9.7
		c9.3-11.9,18.9-12.6,31.4-4.3c9.8,6.5,20.6,11.4,31.2,16.5c9.1,4.3,10.6,6.8,8,16.4c-4.3,15.4-15.6,27.4-29.3,26.5
		c-20.2-1.2-32.4,10-44.4,22.9c-2.5,2.6-4.8,5.7-7.4,8.2c-7.1,7-15.1,12.1-25.5,7.7C1369.9,1314.4,1368.1,1305,1367.1,1292z"/>
	<path class="st0" d="M1252.3,1767.7c0-14.8-1.1-25,0.3-34.9c1.4-9.8,4.7-19.6,8.7-28.7c1.3-2.8,7.4-5.1,11.2-5.3
		c13.9-0.4,23.7-6.1,29.8-18.3c2.1-4.1,4.5-8.9,8.2-11.3c3.9-2.6,10.2-5,13.9-3.5s8.3,8.4,7.5,11.9c-3.2,14.8-5.1,30.1-14.8,43
		c-4,5.3-6.3,12.5-7,19.1c-1.1,9.5,0.3,19.3-0.2,28.8c-1.2,22.4-16.4,31.1-37.4,22C1260.3,1785.2,1250.8,1778.2,1252.3,1767.7z"/>
	<path class="st0" d="M159.2,1852.8c19.2-0.1,30.6,10,34.5,30.6c4,21.1,1.9,40.3-15.9,55.5c-3.9,3.3-5.9,9.1-8.3,14
		c-5.9,12-14.5,13.6-24.5,4.6c-5.8-5.3-12.1-10.1-18.2-15.1c-7.1-6-8.2-11.1-2.3-18.1c8.6-10.3,9.9-21.2,5.8-33.6
		C120.7,1862.3,140.4,1854,159.2,1852.8z"/>
	<path class="st0" d="M1262.7,265.6c-29.8-1.6-51.6-35.2-39.6-60.6c4-8.4,7.7-17.1,10.9-25.9c4.3-11.5,9.8-15.9,18.5-14.1
		c9.8,2.1,16.5,12,15.3,22.6c-0.2,1.8-0.4,3.6-1,5.4c-3.1,8.8-0.4,16.1,6.4,21.8c13.7,11.5,14.9,21.2,3,41.7
		C1273.7,260.6,1267.3,262.5,1262.7,265.6z"/>
	<path class="st0" d="M744.1,1570.3c2.4,0,4.9,0.5,7.2-0.1c18.1-4.6,32.4,3.1,46.3,13.1c12.9,9.3,15.6,20.7,7.8,35.4
		c-6.5,12.1-19.7,17.3-33.1,12.2c-4.9-1.9-9.6-4.6-13.5-7.9c-10.6-8.9-21-18.4-31.3-27.6c-5.8-5.1-9.9-12.1-6.1-18.6
		c2.3-3.8,10.1-4.6,15.7-6.4C739.1,1569.8,741.7,1570.4,744.1,1570.3C744.1,1570.4,744.1,1570.4,744.1,1570.3z"/>
	<path class="st0" d="M251.9,643.1c-0.9-9.6-1.8-19.1-2.7-28.6c-1.4-14.4,3.6-23.3,14.7-25.6c11.8-2.6,23.2,4.3,27.1,17.2
		c5,16.8,7.1,33.9-0.8,50.4c-3.3,6.8-8.3,13.6-14.1,18.2c-9.2,7.1-19.9,3.5-23.1-7.5c-2.2-7.5-2.1-15.7-3-23.7
		C250.6,643.3,251.3,643.2,251.9,643.1z"/>
	<path class="st0" d="M1054.1,1224.8c0.8-16.2,8.3-29.2,18.9-40.6c5.9-6.3,16-7.6,23.6-4c7.9,3.8,10.4,11,8.8,18.4
		c-2.8,12.6-3,25-2,37.8c0.9,10.7-9,20.3-19.9,22c-13.4,2-21-2.2-25.1-14.7C1056.3,1237.6,1055.4,1231,1054.1,1224.8z"/>
	<path class="st0" d="M187.1,529.6c-9.5-2.3-19.2-3.7-28.2-7.1c-13.4-5-21.8-19.1-20.6-32.1c0.9-9.2,6-14,15.1-13.1
		c11,1.1,22.1,2.2,32.8,4.7c11.5,2.7,19.2,10.9,22.9,21.9C213.9,518.7,205,528.7,187.1,529.6z"/>
	<path class="st0" d="M352,365.6c0.2-11.7,4.8-18.3,12.7-19.9c10-2,19.2,2.1,22.7,11.2c4.2,11,9,21.3,16.8,30.6
		c3.7,4.3,5,12.2,4.1,18.2c-2,14-16.6,19.7-28.4,11.3C361.9,404,354.4,385.3,352,365.6z"/>
	<path class="st0" d="M1457.7,1911.2c0-16.8,8.2-23.7,19.8-20.8c4.2,1.1,9,3,11.5,6.2c9.8,11.7,14.6,25.8,14.7,40.9
		c0.1,7.1-5.2,11.2-12.6,11.1c-9.4-0.1-17.7-3.8-22.2-11.4C1463.4,1927.7,1460.1,1917,1457.7,1911.2z"/>
	<path class="st0" d="M1657.2,239c0.2-18.5,14.2-33.5,30.1-32.4c11.3,0.9,17.5,7.7,16.1,18.7c-1.6,12.5-8.3,22.4-18.2,30
		c-5.7,4.4-12.3,4.5-18.7,1.3C1659.4,252.9,1657,246.5,1657.2,239z"/>
	<path class="st0" d="M1898.8,1666.1c-8.9-3.6-16.7-6-23.6-9.9c-6.6-3.7-8.3-10.6-6.9-17.8c1.6-8.1,16.3-21.9,24.6-22
		c3.2,0,7.4,2.4,9.6,5.1c4.1,5,7.1,11,10.5,16.4c3.6,5.8,6.9,12.4,1.9,18C1911,1660.4,1904.5,1662.7,1898.8,1666.1z"/>
	<path class="st0" d="M1233,1587.8c0.1,11.3-3,14.8-14.2,16.3c-7.4,1-14.6,3-21.9,2.9c-4.7,0-11.2-1.7-13.5-5
		c-2.4-3.4-2.6-10.5-0.6-14.4c5.5-11,14.9-18.1,27.7-19.8C1223.5,1566.3,1232.9,1574.7,1233,1587.8z"/>
	<path class="st0" d="M1506.8,814.3c-1.3,17.8-9.7,24.6-27,21.2c-2-0.4-4.1-1.3-5.6-2.5c-7.1-6.2-9-29.2-3.2-36.6
		c7.4-9.4,23.3-9,29.8,1.5C1503.8,802.7,1504.8,808.8,1506.8,814.3z"/>
	<path class="st0" d="M1350.3,184.5c0,0.4,0,1.5-0.1,2.5c-0.9,9.8-9.2,19.5-17.1,20c-8.4,0.6-18.5-7.9-20.8-17.5
		c-0.2-1-0.4-2.1-0.5-3c-1.7-14.4,6.5-26.6,18.3-27.4C1341.9,158.5,1350.3,168.7,1350.3,184.5z"/>
	<path class="st0" d="M1769.4,1691.8c6.3,2,12.6,3.3,18.6,5.9c10.2,4.4,13.8,12.2,10.5,21.2c-3,8.1-13.8,13.9-22.7,11.3
		c-10-2.9-17.8-9.3-22.2-18.7C1748.5,1700.4,1755.3,1692.5,1769.4,1691.8z"/>
	<path class="st0" d="M731.8,348.8c-0.3,14.1-8.2,24.5-18.3,24.2c-9.6-0.3-21.2-12.4-21.2-22.2c0-10.7,12.4-21.4,24.5-21.3
		C726.2,329.7,732,337.2,731.8,348.8z"/>
	<path class="st0" d="M540.8,1672.4c0.5-3.7,0.4-8.6,1.9-12.9c1.5-4.2,4.1-10.7,7.2-11.2c5-0.9,11.8,0.7,15.8,3.8
		c9.8,7.5,8.7,31.7-0.8,39.8c-8.7,7.4-20.8,3.3-22.9-7.7C541.4,1680.6,541.3,1676.9,540.8,1672.4z"/>
	<path class="st0" d="M304.8,1834.5c1.5-6.6,2.6-13.3,4.6-19.8c1.9-6.4,7.7-8.7,12.3-4.7c7.6,6.6,14.8,14,20,22.4
		c4.3,6.8-1.2,14.8-10.1,18C318,1855.3,305.4,1847.6,304.8,1834.5z"/>
	<path class="st0" d="M1627.6,1350.2c8.2,0.2,12.8,4.7,14.4,12c2.4,11,0.2,21.3-6.1,30.6c-4.4,6.6-9.5,6.6-13.7,0.2
		s-8.1-12.9-11.1-19.8C1606.2,1362,1615,1350,1627.6,1350.2z"/>
	<path class="st0" d="M1878.3,1409.7c5-5.3,8.1-11,12.8-13.2c6-2.7,7.7,4,10.3,8.1c2.8,4.3,6.1,8.3,9.8,11.9
		c6.9,6.7,8.4,14.2,3.3,19.1s-15.1,4.6-20.6-2.1C1888.5,1426.7,1884.2,1418.7,1878.3,1409.7z"/>
	<path class="st0" d="M153.9,591c4.1,0.9,8.7,0.9,12.2,2.7c3.4,1.8,7.6,5.2,8,8.3c0.4,3.6-2,8.6-4.8,11.3
		c-7.1,6.6-21.8,6.1-29.3-0.3c-8.1-6.7-6.2-16.6,3.8-19.9C147,592,150.5,591.7,153.9,591z"/>
	<path class="st0" d="M930.9,117.5c-0.2,1-0.3,3.6-1,6.1c-1.7,5.6-3.4,11.7-10.5,12.1c-7.3,0.5-12.6-3.5-16-9.7
		c-3.2-5.9-3-12.3,2-16.5c4.2-3.5,9.9-6.1,15.3-7C927.4,101.3,930.8,106.4,930.9,117.5z"/>
	<path class="st0" d="M679.2,695.6c-7.9,0-13.7-5.2-13.7-12c0-8.3,6.7-14.8,15.1-14.7c7.8,0.1,14.7,7.1,14.4,14.6
		C694.8,690.2,687.7,695.6,679.2,695.6z"/>
	<path class="st0" d="M1876.3,1346.8c0-9.3,7.3-16.7,16.3-16.5c6.7,0.1,9.5,3.6,9.6,9.9c0.1,9.4-7.9,21.3-14.1,21.1
		C1881.9,1361.2,1876.3,1354.1,1876.3,1346.8z"/>
	<path class="st0" d="M959.2,1775.3c-10.6-0.2-18.2-6.3-18.1-14.6c0-7.1,5.3-12.1,12.7-11.8c9.5,0.3,16.1,7.9,15.9,17.8
		C969.5,1773.8,965.2,1775.6,959.2,1775.3z"/>
	<path class="st0" d="M644.2,410.9c-9.4,0.1-19.1-8.8-19.8-18c-0.5-6.4,2.9-9.8,9.4-9.6c7.9,0.2,19.1,9.9,20.3,17.4
		C655,406.7,651,410.8,644.2,410.9z"/>
	<path class="st0" d="M557,1294.9c-1.1-13.6,5.5-43.6,24.8-46c17.6-2.2,26.1,17,26.8,30.9c0.7,12.8-9.2,38.8-23.7,42.5
		C573.7,1325.2,558.1,1308.6,557,1294.9z"/>
	<path class="st0" d="M418.6,482.4c0.1,9.5-3.7,14.8-10.3,14.6c-5.9-0.2-10.5-5.5-10.6-12.3c-0.2-8.2,5.5-15.3,12.4-15.4
		C415.7,469.1,418.6,473.4,418.6,482.4z"/>
	<path class="st0" d="M1619.8,965.7c8.5,0.3,17.3,8.2,16,13c-0.6,2.2-4.2,4.5-6.6,4.8c-6.3,0.6-15.5-6.9-14.5-11.7
		C1615.4,969,1618.8,967,1619.8,965.7z"/>
	<path class="st0" d="M512.5,844.8c-8.5-0.9-12.8-4.2-12.1-10.1c0.3-2.5,4.6-6,7.6-6.6c5.7-1.1,10.8,4,9.7,9.3
		C517,840.4,513.9,843,512.5,844.8z"/>
	<path class="st0" d="M1594.5,1046.9c4.1-3.4,6.2-6.7,8.8-7c5.4-0.8,7.9,3.5,7.2,7.9c-0.4,2.4-4.3,6.6-5.9,6.3
		C1601.4,1053.5,1598.9,1050.3,1594.5,1046.9z"/>
	<path class="st0" d="M567.8,631.8c-2.7-3.7-5-5.8-5.7-8.3c-0.3-1,3.3-4.5,4-4.2c2.5,1.1,5.2,2.8,6.4,5.1
		C573,625.3,570.2,628,567.8,631.8z"/>
</g>
</svg>
