<?xml version="1.0" encoding="utf-8"?>
<!-- Generator: Adobe Illustrator 21.1.0, SVG Export Plug-In . SVG Version: 6.00 Build 0)  -->
<svg version="1.1" id="Layer_1" xmlns="http://www.w3.org/2000/svg" xmlns:xlink="http://www.w3.org/1999/xlink" x="0px" y="0px"
	 viewBox="0 0 2000 2000" style="enable-background:new 0 0 2000 2000;" xml:space="preserve">
<style type="text/css">
	.st0{fill:#232742;}
	.st1{fill:#3349BA;}
	.st2{fill:#4F8FFA;}
	.st3{fill:#FD7E68;}
	.st4{fill:#FEE8B8;}
	.st5{fill:none;stroke:#FD7E68;stroke-miterlimit:10;}
</style>
<rect x="-23.1" y="-22.8" class="st0" width="2046.6" height="2046.6"/>
<path class="st1" d="M2021.1,652.1c0,227.5,0,455,0,682.5c-15.3-0.1-20.8,3.8-26.8,17.7c-3.5,8-7.9,15.6-12.1,23.3
	c-5,9.1-11,17.6-15.3,27c-5.3,11.6,2,26.9,14.5,32.3c9.3,4,14,0.5,22.3-13.3c4.7-7.8,11.5-14.3,17.4-21.4c0,57.5,0,115.1,0,172.6
	c-20,4.6-38.8,13.8-60.1,14c-7.2,0.1-15.1,4.4-21.5,8.5c-6.6,4.3-12.7,8.2-21,8c-5.3-0.1-12.7-0.9-13.7,6.3
	c-1.1,8,6.1,10.2,12.2,12.4c1,0.4,2.1,0.7,3.1,0.7c10.1-0.6,17.2,5,23,12.2c5.1,6.4,9.8,13.2,13.7,20.4c7,12.8,12.6,16.3,27,13.6
	c11.3-2.1,19,2.2,24.7,11.5c4.1,6.8,8.4,13.5,12.6,20.2c0,107.6,0,215.2,0,322.9c-4.8,0-9.6,0-14.4,0c-3.8-17.4-11.9-32.9-21.5-47.7
	c-7.6-11.7-20-16-33.3-11.2c-5,1.8-9.6,4.5-14.3,7c-15.1,8.3-24.3,6.4-34.4-7.3c-1.3-1.7-2.5-3.5-3.8-5.1c-4.3-5.5-9.8-6.8-16.4-4.5
	c-9.9,3.4-14,11.2-13.1,25.3c0.8,12.8-2.5,18.4-15,19.9c-11.5,1.4-23.3,1.3-34.9,0.5c-18.4-1.3-32.1,7-35.6,23.2
	c-264.8,0-529.6,0-794.4,0c-5.3-13.8-9.3-17.1-23.8-15.9c-13.1,1.1-24.5-2.3-35.7-8.7c-6.6-3.8-14.1-6.3-21.6-7.8
	c-18.1-3.5-30.7,6.8-32,25.2c-0.2,2.4-0.3,4.8-0.5,7.2c-51.1,0-102.3,0-153.4,0c1.2-3.2,2.7-6.4,3.6-9.7c2.9-10.5,6.4-20.9,8.2-31.6
	c1.9-11.4-1.4-14.6-12.9-16.3c-10-1.5-20.2-2.4-29.8-5.1c-13-3.7-24.6-2-35.8,5.2c-3.1,2-6.4,4-9.8,5.3c-19.1,6.8-19.8,23-7.7,36.6
	c4.2,4.7,7.2,10.4,10.8,15.6c-58.6,0-117.2,0-175.8,0c-4.2-10.2-12.7-14.2-22.9-13.6c-10.1,0.6-19.9,3.3-25.1,13.6
	c-66.6,0-133.2,0-199.8,0c-0.6-2.3-0.7-4.9-1.9-6.9c-7.8-12.3-15.6-24.7-24.1-36.6c-2.3-3.3-6.4-5.7-10.1-7.6
	c-10.9-5.4-18-3-23.8,7.6c-7.5,13.7-8.6,28.3-5.6,43.4c-61.8,0-123.6,0-185.4,0c0-106,0-212,0-318.1c28.1-7.5,39.6-72.6,63.5-80.3
	c17.8-5.7,25.4,27.2,58.7,13.1c9.7-4.1,34.3-17.9,40.7-34.9c17.5-47-40.8-41.6-39.9-75.9c0.9-32,37.2-42.6,37.5-70.8
	c0.3-33.4-27.2-28.9-12.5-64.1c21.9-52.7,92.2-36,123.6-4.6c10.3,10.1,19.7,21.1,33.6,26.4c14.2,5.4,25.4,0.2,28.1-12.7
	c18.8-89.1-69.4-77.6-119.4-120.2c-7.9-6.8-17.3-9.2-27.5-8.1c-4.5,0.5-9,1.3-13.4,1.9c-30.5,4.5-38.3-46.9-48.4-59
	S79,1194.9,82,1183.6c3-11.3,17.8-10.4,23.4-10.8c5.6-0.5,20.2-8.4,11.9-45.5c-2.8-12.5-9.2-39.3-29.5-47.7
	c-81.7-30.4-38.7,59.2-44.5,71.6c-16.7,35.9-111.3,75-52.1,137.9c41.7,44.3,61.2-26.8,97.3-16.1c38,11.3-40.9,78.9-47.3,97
	c-23.4,66,25.3,48.2,25.7,82.5c0.7,56.2-51.9,90.9-91.9,113.5c0-36.3,0-72.6,0-108.9c0-14.5,0-29,0-43.6c-6.4-18-0.4-28.3,18.1-31.2
	c7.1-22.4,40.2-76.8-18.2-51.3c0-226.4,0-452.9,0-679.3c5.4-1.9,11.1-3.1,16.1-5.8c6.3-3.4,11.7-8.3,17.8-12
	c15.8-9.8,19.6-19.7,16.6-38.2c-3.4-21.4-9.7-41.6-19-61.2c-6.5-14-16.7-20.9-31.2-23.2c0-150.2,0-300.5,0-450.7
	c4.3-1.3,8.7-2.4,12.9-4c8.3-3,13.7-8.8,15.3-17.7C6.7,20.5-7.3-5.3-24.7-12.9c0-3.2,0-6.4,0-9.6c61.8,0,123.6,0,185.4,0
	c0.6,1.8,1.2,3.5,1.6,5.3c3.5,15.6,13.6,22.4,29,19.1c7-1.5,13.9-3.4,20.7-5.6c8.9-2.9,14.1-9,14.2-18.8c64.5,0,128.9,0,193.4,0
	c1.9,15.2,11,26.3,21.7,36.2c18.2,16.9,25,38.1,22.6,62.1c-1.3,13.1,0.5,24.4,8.1,35.5c9.4,13.6,7.1,35.2-5,46.3
	c-10,9.2-15.5,20.1-17.8,33c-1.9,10.6-8,17.4-17.3,22.4c-6.9,3.7-14.3,7.9-19.3,13.8c-10.8,12.8-23.4,18.7-40.2,19
	c-17.8,0.3-22.5,7.3-17.7,24.2c3.7,12.9,0.9,23.1-8.7,32.6c-9.8,9.7-18.6,20.5-27.7,30.9c-6.1,7-6.3,15.1-3.5,23.3
	c2.3,6.5,7.7,9.6,14.2,10c18,1.1,34-2.4,43.3-20.3c2.1-4,4.8-7.7,7.7-11.1c10.8-12.4,27.4-13.2,39.7-2.5c5.6,4.9,11.6,9.3,17.7,13.6
	c19,13.5,36.3,28.6,50.8,47.1c4.3,5.5,9.9,10.9,16.1,13.8c17,7.9,26.4,21.3,32.7,38.3c3.2,8.6,8,16.8,13,24.6
	c6.4,10.1,14.1,19.3,20.6,29.3c7.1,11,16.5,18.8,29,22.6c6.1,1.9,12.4,3.1,18.6,4.6c15.2,3.6,20,9.1,21.3,24.6
	c0.2,2.4,0.5,4.8,0.5,7.2c0.2,11,5.3,19.8,14.3,25.4c9.4,5.9,19.4,11.3,29.7,15.4c15.1,6,26.6,1,32-14c4.9-13.5,12.3-24.5,23.5-33.4
	c7.2-5.7,11-13.5,11.2-22.9c0.1-11.9-3.6-16-15.6-15.6c-8.9,0.3-16.7-1.7-23.7-7.5c-11-9.1-22.6-9.1-34.9-2.3
	c-4.3,2.4-9.2,4.7-14,5.3c-12.7,1.7-20.3-7.9-16.2-20c1.4-4.3,3-8.7,5.4-12.4c15.1-23.1,9-58.6-11.6-74.8
	c-5.3-4.2-9.6-11.9-10.9-18.7c-2.3-12.2-3.4-24.5-8.8-36.2c-3.4-7.4,0-13.3,8.2-14.9c15.9-3.1,31.7-6.5,48-1.2
	c17.1,5.5,27.3-1.5,30-19.2c0.4-2.6,0.6-5.3,0.4-8c-1-13.7,4.1-23.7,15.7-31.8c6.3-4.4,11.8-11.8,14.6-19c5-12.7,12-20,26.5-19.4
	c9.3,0.4,16.3-7.4,16.9-16.7c0.7-10.8-3.5-16.3-15.2-21.6c-13.8-6.2-27.6-12.4-40.8-19.7c-13.4-7.5-26.6-9.6-33.2,10.3
	c-2.3,6.9-7.4,11.4-15,10.8c-15.5-1.2-26.2,4.5-33.9,18.5c-5.8,10.6-13.4,12.5-25.3,9.5c-3.9-1-7.6-2.6-11.5-3.3
	c-10.1-1.9-20.2-3.7-30.4-5.1c-11.8-1.7-23.8-2.4-35.5-4.5c-10.6-1.9-14.3-8.2-14.7-18.7c-0.5-11.6-1.9-23.2-3-34.8
	c-0.8-8.5-1.7-16.9-2.6-25.4c-0.7-7.4,3-10.2,10-9.7c5,0.3,10.1,0.8,15.1,0.7c6.3-0.1,11.2-3,11.7-9.7c1.4-17.2,0-33.8-14.8-45.8
	c-10.9-8.8-18.4-19.9-22.4-33.3c-5.5-18.6-15.8-33.3-32.4-44c-4.3-2.8-6.6-8.8-9.8-13.4c59.7,0,119.3,0,179,0
	c3,11.8,8.9,21.5,19.4,28.3c15.1,9.7,31,5.2,38.2-11.4c2.3-5.3,3.3-11.2,4.8-16.8c52.7,0,105.5,0,158.2,0
	c1.8,17,10.5,27.8,27.7,31.4c9.5,2,15.6,8.2,20.2,16.6c4.5,8.1,9,16.3,14.8,23.5c10.1,12.5,22.8,14.9,37,7.1
	c9-4.9,17.8-10.7,25.8-17.2c16.3-13.3,17.8-34.7,4.5-51c-2.8-3.5-5.7-7-8.5-10.5c262.7,0,525.3,0,788,0c4,7.3,7.4,15,12.3,21.7
	c5.3,7.3,12.4,13.1,17.8,20.3c8.1,10.8,17.1,13.3,28.9,6.4c4.6-2.7,8.9-5.8,13.3-8.8c8.1-5.6,15.7-5.2,23.4,0.9
	c21.5,17,46.6,22.5,73.2,21.1c13.6-0.7,21.8,3.4,27.2,16.2c6.9,16.4,16.3,19.8,33.5,14.6c1.8-0.5,3.6-0.9,5.4-1.4
	c0,147.6,0,295.2,0,442.7c-14.4,1.6-24.4,8.9-31,21.9c-6.1,12-13.2,23.5-20.4,34.9c-7.4,11.7-5.5,26.5,6.8,32.3
	c14.6,6.8,21.6,17.4,24.5,32.7C2003,643.6,2010,650.5,2021.1,652.1z M1154.5,361.7c2.4,38.3-37.2,23.3-54.1,50.8
	c-14,22.8-0.5,110.5-41.6,112.7c-18,0.9-29.6-28.6-48.9-20.5c-16,6.7-14.8,26.7-34.8,28.5c-14.9,1.3-26.3-16.1-41.8-6.6
	c-25.8,15.7-8.2,52.7-13.3,74.1c-7.5,31.7-62,38.2-65,73.9c-1.6,18.8,8,14.2,25.3,16.1c26.4,2.8,53,11.3,79.9,9.6
	c48.8-3,51.9-54,95.5-60.4c58.2-8.5,74,39,105.4,76.2c10,11.9,31.6,27,48.7,22.7c16.4-4.2,27.7-29.4,39.3-40.9
	c15.5-15.4,23.7-18.7,19.6-41.9c-5-28.2-16-33.7-41.1-30.7s-20.6,5.1-34-15.2c-11.3-17.1-22.3-22.6-36.2-36.4
	c-31.4-31,1.5-69.9,5.7-103c2.2-17-14.8-32.8,4.4-43.7c8.1-4.6,42.7,2.4,50.4,3.9c12.1,2.4,29.9,16.5,38.1,2.9
	c8-13.3-11.8-64.2-14.8-78.4c-3-14.5-17.6-39.1-15-52.6c3.6-18.3,30.1-26.8,41.2-39c27-29.6-15-61.1-19.6-89.8
	c-0.9-5.8,6.2-11.7,4.8-18.1c-2.8-13.3-13.3-16.5-23.6-23.7c-14.3-10-39.9-33.3-58-33.5c-15.9-0.2-53.2,24.8-66.2,36
	c-15.5,13.2-17.9,34.9-24.8,53.3c-12.1,32-2.6,42.9,30.5,35.5c31.2-7,29.8-5.1,40.7,26c6,17.1,29.9,48.2,27.3,65.1
	C1175.7,334.1,1150.7,337.4,1154.5,361.7z M1539.4,124.6c-25.4,3.6-49.4,6.8-73.5,10.4c-3.8,0.6-7.4,2.5-11.1,3.8
	c-29.9,9.9-53,27-71,49.7c-7.9,9.9-12.8,20.6-10.8,33c2,11.6,11.5,17,24.4,14c5.3-1.2,10.6-2.7,16-3.4c23.5-3.4,51.7,9.8,60.7,28.2
	c3.4,6.9,5,14.1-0.9,20.5c-9.8,10.6-18.3,22.9-30.7,30.6c-23.5,14.6-34.7,33.4-39.4,57.6c-4.2,21.6-1.8,28,22.5,33.8
	c9.3,2.2,15.1,6.7,17.5,14.6c1.2,3.9,2.6,7.7,3.3,11.6c2.6,15.1,9,28.7,19.7,40.8c16.2,18.3,32,36.9,48.6,54.9
	c3.3,3.5,9.5,5.4,14.7,7c4.5,1.3,9.7,1.3,14.5,1.5c16.2,0.7,25.2,7.9,29.9,21.5c4.3,12.4,10.3,24.6,17.8,35.7
	c14.5,21.4,44,27.3,68.9,15.2c10.7-5.2,14.7-11.9,13.1-22.5c-0.5-3.1-1.6-6.2-2.6-9.3c-3.5-11-1.5-14.6,10.7-19.3
	c8.4-3.2,17.1-6.1,24.8-10.2c10.4-5.6,20.6-8.4,33-6c13.8,2.6,26.9,0,37.8-8.3c10.1-7.7,10.2-19.7-0.9-26c-6.4-3.6-15.2-5.3-23-5.5
	c-8.1-0.2-16.2,3.4-24.3,3.5c-25.8,0.2-49,8.4-72.3,16.7c-4.8,1.7-9.7,3.7-14.8,4.1c-14.5,1.2-29,1.7-43.6,2.4
	c-12.4,0.6-20.1-4.2-22.3-14.6c-1.1-5.4-1.5-11.1-1.3-16.7c0.4-11-3.5-18.8-16.6-22.8c-11.4-3.5-19.9-10.4-23.5-21
	c-3.2-9.3,2-17.9,14.4-24.1c8-4,16-2.4,23.3,5.4c4,4.3,7.4,9.2,10.4,14c6.8,10.9,9.7,12.3,23.4,10c3-0.5,6.1-0.8,9-1.6
	c14-3.9,24.4,1.2,33.5,9.8c3.1,2.9,5.8,6.3,9.2,8.9c9.8,7.2,23.6,5.1,27.2-4.9c8-22.4,11.8-45.1-5.9-65.7
	c-11.5-13.3-21.4-27.2-28-42.8c-0.9-2.2-2.6-4.2-4.1-6.2c-13.5-17.5-13.7-22.8-0.1-40.3c4.1-5.3,9.1-10,13.3-15.2
	c3.9-4.9,6.1-11.2,1-15.4c-3.8-3.2-10.5-3.9-16.2-5.1c-2.1-0.4-4.7,0.8-7,1.6c-25,8.3-49.4-7-47.4-30.4c1.1-12.5-0.6-24.3-5.9-36
	c-2.1-4.7-3.5-9.7-4.6-14.6c-1.1-4.9-1.8-10-2-15c-0.6-16.8,6.4-23.6,25.6-25.9c8.2-1,17.9-2,18.4-11.3c0.8-13.2,0.1-26.6-0.6-39.8
	c-0.2-5.1-1.8-10.4-9.1-11.5c-7.5-1.1-12.3,1.9-16.7,7.4c-3.8,4.7-9.7,8.2-15.1,11.8c-2.3,1.6-5.9,1.9-8.2,3.5
	C1562.6,124,1551.7,128.5,1539.4,124.6z M1332.5,1543.6c1.9-0.2-6.1-39.7-9-42.9c-11-12.1-23.4-5.2-37.4,0.3
	c-30.3,12-67,24.4-51.6-27.1c7.9-26.5,34.8-42.5,41.6-69.6c6.1-24.2-2.4-47.9,6.8-72.4c21.4-56.9,48.8-88.4,16.5-150.1
	c-18.1-34.6-51.6-90.8-96.3-95.5c-45.5-4.8-14.5,63.9-10.5,87.3c3.8,22.2-4.6,43.1-1.5,65.1c1.4,9.9,9.7,20.3,10.1,29.8
	c0.7,15.3-8.5,18-13.7,30.9c-7.6,19.2,2.9,41.7-4.5,58.8c-1.1,2.6-7.7,3-9.9,10.7c-2.9,10,3.8,21.7,10.2,28.8
	c6.1,6.8,24.7,11.8,27.6,20.6c5.8,17.5-26.8,34.4-36.2,44.8c-16.1,17.6-24.5,38.6-33.1,60.5c-10.3,26.3-30.6,54.7-32.8,83.1
	c-1.2,15.3,7.4,51.7,30.1,40.9c26.8-12.8-0.5-36-0.6-50.6c-0.4-45.7,93.3,1.5,111.6,9.7c9.6,4.3,51.6,13.4,54.8,23.4
	c3.4,11.1-11.2,22.8-14.8,33.3c-18,51.9,40.2,62.4,73.9,80c18.6,9.7,30.8,21.8,40.1,40.4c6.4,12.8,8.4,29,17.3,40.3
	c8.2,10.4,21.8,14.2,30.9,23.4c25.5,25.8,28.8,86.7,79.1,74.1c41.3-10.4,70-81.2,50.8-118.5c-26.9-52.3-96.9-28.2-141.7-39.3
	c-66.8-16.5,1.8-91.1-40.6-127.6c-17.7-15.2-53.5-12.8-66.4-33.1C1323.3,1587.7,1333.6,1560.8,1332.5,1543.6z M732.1,856.8
	c12.5,0.6,22.5-2.3,27.3-15.7c1.2-3.5,5.2-7.6,8.7-8.5c15.7-4,31.6-7,47.5-10.1c8.1-1.5,16.6-1.2,24.4-3.7
	c12-3.8,15.6-13.7,9.4-24.8c-2.7-4.8-6.4-9.3-10.5-13c-8.9-8-11.7-17.4-9.2-28.8c0.5-2.3,0.7-4.7,0.8-7.1
	c0.6-10.5-1.1-13.2-10.9-16.6c-5-1.7-10.1-3.3-15.3-4.7c-20.2-5.6-32.3,0.2-39.4,20c-3.6,10.1-9.7,16.3-19.8,20.1
	c-14.4,5.4-26.9,13.9-35.7,27.1c-12,17.9-33.9,19.2-48,2.8c-6.1-7-11.8-14.4-17.9-21.4c-7.3-8.4-8.8-17.7-6-28.3
	c2.7-10.3,5-20.7,6.7-31.2c3.1-19.3-1.9-26.5-20.6-32.3c-6.6-2-12.9-4.9-19-8.1c-11.3-5.9-22.2-12.6-33.7-18.2
	c-9.2-4.5-16.3-10.6-20.6-20.2c-5.3-11.8-14.9-19-27.3-21.3c-15.4-2.8-31-4.7-46.6-6c-11.4-0.9-17.9,5.3-19.1,16.8
	c-1.5,14.3,2.9,26.4,15.1,34.7c6.2,4.2,12.7,7.8,19.3,11.2c14.9,7.7,23.3,21.5,31.9,34.9c1.8,2.7,2.6,6.8,2.2,10
	c-2.3,18.9-2.8,38.1-12.2,55.7c-2.7,5-3.3,11.6-3.1,17.5c0.3,10.2-2.4,15.9-12.5,18.2c-6.4,1.4-13.2,1.1-19.8,1.5
	c-11.7,0.7-16.7,7.6-13.6,18.9c4.2,15.9,17.5,27.3,33.8,28.1c11,0.6,18,5.3,23.1,15.3c3.9,7.7,9.1,15.2,15.5,20.9
	c16.1,14.3,28.1,31.1,36.4,50.8c1.6,3.9,3.4,7.9,5.7,11.4c8,11.8,22.2,12.2,30.6,0.8c3.7-5.1,7-10.8,9.3-16.7
	c5.6-14.7,15.5-24.9,29.2-32.4c13.4-7.3,22-19.2,27.1-33.3c5.7-15.6,10-18.8,26.6-17.4C712,854.6,722.1,855.8,732.1,856.8z
	 M1582.8,816.8c-1.6,44.3,40.3,19.6,45.9,50c5.1,27.6-41.7,54.5-53.4,75.7c-14.4,26-26.2,101.9-78.1,60.4
	c-29.8-23.9,5.6-50.4-2.9-82.2c-5.8-21.6-25.3-21.8-34.6-40.7c-10.8-22.1-4.2-52-15.3-73.6c-14.6-28.4-41-40.6-63.3-3.1
	c-21.3,35.8,26.2,70.4,21.2,103.4c-3,19.7-31.8,55.1-39.4,74.6c-5.5,14.3-24,58.1-10.1,66.3c15.9,9.4,61.7-23.7,89.6-6.6
	c32,19.6,30.3,65.4,74.1,76.9c58.5,15.5,63.6-29.7,89.8-60.9c24-28.5,56.5-28.8,70.2-68.7c7.2-21-5.3-35.9-2.3-56.4
	c3.4-22.8,23.8-39.9,27.3-61.6c4.2-26.1-12.8-98.6-52-106.5C1621.6,758.4,1582.8,790.1,1582.8,816.8z M257.8,957.3
	c18.9-2.7,21.7-0.5,22.5,15.9c0.2,4.5,0.3,9,0.9,13.4c2,15.2,7.1,29.3,20.1,40.2c10.8,9.1,13.6,19.5,9.2,31.9
	c-5.2,14.6-1.8,27.1,12.6,36.7c9.4,6.2,12.5,14.6,10.8,24.6c-0.5,2.9-0.9,6-0.7,8.9c1,21.1,18.7,29.8,39.8,19.5
	c2.7-1.3,5.4-2.7,7.8-4.4c13-9.7,28.5-12.5,45.1-12.9c14.4-0.4,28.8-1.3,43.2-2.5c8.2-0.7,14.3-4.9,16.3-12
	c3.2-11.3,6.3-22.6,8-34.1c1.4-9.8-2.5-18.5-14.4-22.4c-19.6-6.4-39-13.1-58.9-18.6c-10.7-2.9-17.7-7.7-19.7-17.3
	c-2.1-10.2-7.8-18.4-17.4-24.5c-13-8.4-17-18.8-10.8-32.2c4.5-9.8,3.7-19.8-3.8-28.1c-7.8-8.6-16.1-17.5-26.3-23.8
	c-14-8.7-22.1-19.5-27.8-33.3c-7.2-17.6-17.2-33.6-40.4-40.1c-9.5-2.7-17.7-8.9-26.2-13.9c-8.5-5.1-16.4-10.9-24.9-16
	c-10.7-6.4-22.6-8-34.4-3.3c-12,4.8-21.4,2.2-31.4-4.2c-28.3-18.1-72.9-11.2-92.3,14.7c-7.5,10-16.1,17.1-29.4,20.9
	c-13.2,3.8-17.6,16.7-8.6,26.2c5.1,5.4,13.4,11.5,20.6,12c23,1.4,43.1,9.8,64.2,16c21,6.2,29.1,16.3,28.6,35.6
	c-0.2,6.3-1.2,12.6-0.7,18.8c1,10.4,1.2,21.8,15.3,26.1c14.4,4.4,23.6-3.7,31.6-12.2c8.9-9.3,19.2-12.3,32.9-9.8
	C231.9,955.5,244.9,956,257.8,957.3z M822.3,957.5c-1.3-32.2-23.3-40.2-41.6-16.6c-19.1,24.4-29.8,52.6-42.7,80.2
	c-4.1,8.8-5.8,16.6-13.5,23.1c-10,8.4-27,4.4-36.2,14.1c-6.6,7-11.6,17.9-4.8,27.1c11.2,15.2,22.2,2.6,33.7-1.6
	c13.6-5,50.4-24.9,46.3,9.8c-1.5,12.1-19,16-21.7,27.5c-2.8,12,6,19.4,10.9,29.1c10,19.6,7.8,20.4,30.9,21.5
	c13.3,0.6,27.5-2.7,40.6-0.9c34.5,4.5,32.8,40,56.7,60.5c10.3,8.8,10.3,9.4,22.6,9.7c5.5-2.8,10.9-5.7,16.4-8.7
	c6,0,9.9,3.2,11.9,9.4c12.5,4.9,6.1,11.2,22.2,12.3c12.9,0.9,28.2-14.1,37.7-20.8c14.4-10.1,51.9-26.6,36.1-48.9
	c-6.9-9.8-24.9-5-33-13.6c-7.3-7.7-5.7-18.5-13.8-26.4s-27.9-18.7-38.6-21.9c-15.4-4.6-23.6,5.2-37.1,4.2
	c-23.1-1.7-33.8-34.8-50.1-49.7c-17.6-16-46.5-19.9-50.8-46.7C800.4,1007.1,819.5,981.2,822.3,957.5z M1041.5,1432.6
	c0-68.2-64.1-46.2-99.8-57.3c-65.2-20.3-100.8-61.1-145.5-103.6c-36.3-34.5-78.8-95.4-129.6-111.2c-55.9-17.4-124.1,14.1-84.5,81.1
	c25.6,43.3,105.5,53.2,135.6,101.1c13.4,21.2,14.9,56.6,27.4,76.9c22.5,36.4,33.7,30.6,68.6,63.7c34.6,32.8,54.6,123.3,127.6,90.4
	c19.2-8.6,7.9-45.6,22.6-60.4C989.2,1488,1038.9,1479.7,1041.5,1432.6z M1577.2,1194.9c0.1-6.4-0.7-12.7-7.8-15.1
	c-7-2.3-13.1-0.1-17.7,5.8c-1.9,2.5-3.8,5.2-5.4,7.9c-4,6.5-9.5,8-15.6,3.9c-12.3-8.4-23.3-18.3-25.9-33.9
	c-2.2-12.8-10.1-20.1-21.2-24.8c-15.6-6.6-31.4-12.8-47.1-19.3c-8.3-3.5-16.5-3.4-23.3,2.4c-6.2,5.3-12.1,11.4-16.5,18.1
	c-2.6,4-3.9,10.5-2.7,15c3.4,13.5,8.8,26.1,22.1,33.7c12.8,7.3,20.7,19.1,25.8,32.5c7.4,19.4-8,43.6-28.2,45.6
	c-5.8,0.6-11.6,1.7-17.1,3.6c-8.9,3.1-12.1,8.3-11.6,17.7c0.2,3.4,0.9,6.9,1.7,10.2c2.4,10.5,1.2,20-7,28c-2.6,2.5-4.4,6.1-5.6,9.5
	c-2.1,5.6-3.2,11.8,2.4,16.2c5.7,4.5,12.4,4.7,18.8,1.5c2.8-1.4,4.9-4.4,7.8-5.4c5.6-2,11.4-4.2,17.2-4.5
	c11.6-0.7,23.2-0.5,34.8-0.3c20.5,0.4,39.8,4.3,53.2,21.9c4.2,5.5,7.5,11.7,12.2,16.8c2.1,2.3,8,4.4,9.7,3.1
	c11.4-8,20.8-18.4,17.1-35.4c-5-22.7-5.5-45.8-2.5-69c2-15.5,3.9-31,4.9-46.6c0.6-9.2,4.4-14.9,13.1-17.8
	C1572.8,1212.9,1577.3,1205.4,1577.2,1194.9z M741.8,1945.7c-0.3,17.5,1.9,19.8,15,19.8c13.3,0,26.6,0.6,39.8-0.7
	c6.4-0.6,15-3.1,18.1-7.8c9.7-15,21.7-29.1,24.1-48.1c0.7-5.4,2.3-11.4,5.4-15.7c13-17.2,11-34.5,2.7-52.7
	c-5.5-12.1-10.6-24.4-14.8-37c-5.5-16.7-7.5-33.5,0.9-50.4c5.8-11.9,9.6-24.7,14.9-36.9c6.8-15.9,4.1-31.5-7.6-39.7
	c-18.1-12.6-18-12.6-10.1-34.1c2.9-8,6.4-16.7-0.5-24.1c-7.3-7.8-12.1-16.3-14-27c-1.2-6.8-6.2-12-14.1-11.7
	c-7.8,0.3-10.7,5.9-12.2,12.6c-2,8.8-3.8,17.6-6.1,26.3c-2.6,9.7-5.5,19.4-8.6,28.9c-1.5,4.7-2.6,10.3-5.7,13.7
	c-9.5,10.4-14.2,22.2-15,36c-0.2,3.6-1.1,7.6-2.8,10.7c-8.9,16.7-5.8,32.3,1.6,48.8c9.9,21.9,17,44.8,11.9,69.7
	c-1.4,6.6-1.4,14.2,0.5,20.6c4.6,15.7,1.6,29.6-5.4,43.8C750.2,1909.5,743.4,1929.2,741.8,1945.7z M957.5,1060.7
	c-2.5,0,2.2,31,4.6,34.5c5.8,8.5,10.6,9.8,20.7,11.3c9.8,1.5,14.1-6.4,24.4-3.1c9.1,2.9,11.6,15.7,22.3,18
	c11.2,2.4,18.3-8.2,28.6-7.9c11.7,0.4,15.5,8.6,26.2,12.2c8.9,3,65.3,9.3,70.1,4.9c15.2-13.9-5.3-40.3-18.6-46.6
	c-24.2-11.4-54.2,2.3-78.7-10.3c-19.7-10-39.6-36.8-46.6-57.4c-11.1-32.8,16.8-36.1,34.8-60.2c5.6-7.5,7.7-18,15.9-23.5
	c10-6.7,22-3.2,32.8-7.2c17.5-6.5,39.7-26.3,54.8-38c43-33.4-40.9-64.4-68.5-64.5c-28.1-0.1-50.9-10.1-71.7,13.2
	c-15.1,16.9-23.9,41.3-30.9,62.5c-9.1,27.8,11.7,60.7,2.3,84.9c-3.7,9.5-14.8,12.7-18.7,22.8
	C955.5,1021.7,958.3,1044.4,957.5,1060.7z M1027.4,1621.9c0.1-8-3.1-14-9.5-18.5c-9.8-6.8-19.7-13.5-29.6-20.1
	c-2-1.3-4.2-2.3-6.5-2.9c-7.7-2.1-14.1,1.5-14.3,9.3c-0.1,5.8,1.6,12.1,3.9,17.4c4.7,10.5,4,17.8-4.1,26.1c-2.6,2.7-5.4,5.1-8.1,7.7
	c-14.6,13.9-18.9,32.3,4.6,42.2c6.5,2.7,10.9,8.4,9.6,15.9c-3,17.2-5,34.2-16.6,49.2c-9.2,11.9-15.1,26.8-21,40.9
	c-3.8,9.2-1.1,13.6,7.9,17.9c7.4,3.5,12,9,15.7,16.2c3.3,6.5,7.9,12.5,12.9,17.8c5.8,6.2,12.9,11.1,19,16.9
	c15,14.4,29.4,14.3,43.8-0.7c10.7-11.2,21-22.7,32.1-33.4c8.2-7.8,9.9-16.3,6.8-26.8c-2.3-7.9-3.6-16.1-5.7-24
	c-1-3.8-1.8-8.2-4.2-11c-7.9-9.4-8-19.7-5.9-30.9c2.2-11.7-0.9-22.2-9.3-30.9c-3.7-3.8-7.5-7.6-11-11.6c-13.9-16-18.5-34.3-13-55
	C1026.1,1629.7,1026.7,1625.8,1027.4,1621.9z M1546.5,1706.3c-0.3,13.9,4.3,25.9,14,35.8c11.5,11.7,23.4,23.1,35.2,34.5
	c2.3,2.3,5,4.2,7.7,6.1c22.4,15.4,47.7,10.3,62.3-12.7c6.3-10,11.4-20.7,18-30.6c7.5-11.3,16.4-10.9,22.4,1.2
	c3.5,7.1,5.1,15.5,6.4,23.4c1.4,8.7,0.6,17.8,2.4,26.4c4,18.7,22.5,26.4,39.1,16.5c4.4-2.6,8.2-6.5,12-10.1
	c6.7-6.3,12.8-13.3,19.8-19.1c13.9-11.4,17.9-25.7,16-43.1c-1.2-10.3-1.2-21-0.1-31.4c1.8-15.6,5-31.1,7.6-46.6
	c1.4-8.4,2.8-17.3-6.8-21.5c-21.8-9.4-43.7-14.9-65.1,1.7c-7.2,5.6-15.4,10.1-23,15.3c-18,12.4-22.8,11.2-31.8-8.3
	c-9.4-20.3-19.5-23.6-40.1-14.1c-10.7,4.9-22.1,8.2-32.9,12.9c-13.5,5.8-27.2,11.3-39.9,18.5
	C1553,1671.1,1546.9,1687.5,1546.5,1706.3z M1448,1652.3c20.6,0,38.9-10.6,49.1-34.1c2.2-5.1,5.1-9.9,7.8-14.8
	c7-13.2,17.4-20.8,33-21.4c8.4-0.3,16.8-2.3,25.1-4.2c10-2.3,17.8-7.8,22.9-17.1c12.9-23.1,29.3-42.7,52.9-56
	c17.1-9.6,24.7-34.9,16.7-52.7c-1.5-3.3-6.8-6.9-10.2-6.8c-7.2,0.3-14.8,2-21.4,4.8c-10.6,4.5-20.8,6-31.7,1.9
	c-14.3-5.4-27.4-2.5-40.7,4.2c-25.5,12.8-45.3,30.9-58.3,56.8c-6.4,12.7-8.9,24.6-3,38c6.6,15,4.1,20.8-10.9,27.5
	c-4.5,2-9.6,3.1-14.5,4.1c-5.4,1.2-11,1.8-16.5,2.8c-9.8,1.9-15.4,7.9-16.4,17.9c-1.1,11.4-2.2,22.8-3.1,34.1
	C1427.9,1649.4,1431.6,1653,1448,1652.3z M1862.1,1170.5c0.3,13.6-1.6,17.9-10.3,20.8c-9.1,3-18.3,5.6-27.5,8.1
	c-9,2.4-16.7,5.8-20.6,15.6c-1.4,3.5-6.8,7-10.8,7.7c-11,1.9-21.1-1.9-29.6-9c-7-5.9-8.6-13.9-6.9-22.5c1.5-7.9,6.8-12.4,14.5-14.1
	c4.2-0.9,8.4-1.6,12.5-2.4c8.1-1.6,12.5-6.4,12.7-14c0.2-8-5.3-11.1-11.8-12.9c-11.6-3.2-22.5-1.1-33.1,4.6
	c-6,3.2-12.6,5.4-19.2,7.3c-8.4,2.5-17.7,2.7-25.3,6.6c-12.3,6.4-24.3,13-38.3,15.2c-1.7,0.3-3.5,1.4-5,2.4
	c-8.1,5.7-7.9,11.7,0.2,17.6c5.5,4.1,11.5,8,15.7,13.3c13.3,16.9,30.3,26.3,51.6,28.2c9.4,0.9,16.5,5.4,21.3,13.7
	c2.3,3.9,4.3,8,7,11.6c10.7,14.4,23.9,25.8,41.9,29.8c11.9,2.6,23.9,4.3,35.9,6.6c9.3,1.8,14.9-1.5,17.4-10.7
	c4.3-16.1,1.4-40.8-17.3-50.5c-1.9-1-3.8-2.3-5-3.9c-2.4-3.3-6.5-7.3-5.9-10.2c0.6-2.8,5.9-5.2,9.6-6.8c7.7-3.4,16-5.6,23.5-9.5
	c8.7-4.6,16.8-10.1,24.8-15.9c5.3-3.8,10.6-8.2,14.7-13.3c5-6.2,4.1-15.3-0.8-21.5c-7.5-9.4-19-13.5-28.2-10.2
	C1860.6,1155.8,1861.8,1163.3,1862.1,1170.5z M669.2,1679.1c15.9,0.5,29.2-5.6,36.3-18.5c5.8-10.8,11.3-21.8,15.5-33
	c8.4-22.1,2.8-41.3-21.7-55.5c-18.5-10.8-27.6-25.5-33.4-42.8c-3.6-10.4-10.4-21.2-19.3-29.3c-19.3-17.8-24.8-36.1-11.9-57.5
	c3.7-6.1,6.7-12.4,10-18.8c11-20.8,7.6-40.3-7-59.6c-12.6-16.6-22.1-34.7-34.4-51.4c-10.9-14.7-22.5-29.3-36.3-42.4
	c-10.8-10.2-26.8-13.3-43.9-8.9c-17,4.3-20.4,15.4-23.4,27.4c-2.7,11-4.1,23.5-11.7,32.3c-20.6,23.5-23.2,49-23.4,76.3
	c-0.1,14.7-4.2,31.1-13.1,43.9c-27.4,39.8-17.4,61,38.4,70.7c24.8,4.3,41.8,15.1,54,32.4c6.6,9.4,14,18.9,23.6,26.3
	c14.9,11.4,22.4,24.8,24.5,40.6c1,7.2,2,14.5,3.9,21.5C602.6,1658.7,634.5,1679.3,669.2,1679.1z M80.5,394.9
	c-0.2-0.6-0.4-1.2-0.6-1.8c-7.6,2.6-17.4,3.1-22.5,8.2c-14.1,14-23.6,31.2-18.8,52.3c1.7,7.5,5.9,14.9,10.4,21.4
	c9.2,13.1,12.7,27.3,11.6,43c-0.6,7.9-1.1,15.9-1.1,23.9c0,6.5,0.8,13.4,8.3,15.6c7.5,2.2,13.5-1,17.8-7.4c1.5-2.2,2.6-4.6,4-6.9
	c2.7-4.6,5.3-9.3,8.4-13.6c10.4-14.3,23.5-22.1,41.9-16.5c3.5,1.1,7.2,1.7,10.9,2.4c17.4,3.1,33.3-3.6,42.1-17.8
	c5.9-9.4,7.1-20,0.2-28.5c-9.1-11.2-19.4-21.9-30.8-30.9c-9.5-7.5-18.9-14.4-24.6-25.4c-4.8-9.1-12.7-14.2-23-15.2
	C103.3,396.6,91.9,395.8,80.5,394.9z M406.8,1810.1c0.4-23.2-15.8-32.8-34-22.7c-1.6,0.9-3.1,2.2-4.8,2.9c-6.6,2.7-13,6.1-19.9,7.6
	c-16.8,3.7-24.1,11.6-25.7,28.7c-1.7,17.7,6,32,15.6,45.7c10.8,15.4,10.9,18,0.5,33.1c-8.9,13-5.1,25.7,10,29.9
	c13.9,3.8,24.7,9.9,29.9,24.5c2.8,7.9,10.2,8.2,15.8,1.8c1.9-2.2,3.7-4.8,4.4-7.5c4-16.6,13.8-26.1,30.7-30.8
	c20.9-5.9,25.9-22.8,12.7-40.3c-9.2-12.3-19.4-24-30.1-35c-7.1-7.3-9.6-14.9-7.6-24.5C405.3,1818.2,406.3,1813,406.8,1810.1z
	 M110.3,261.6c21.8-5,39-11.9,48.6-31c4.3-8.5,4.8-16.4-1.2-23.9c-6.8-8.5-5.8-16.6-0.1-24.9c2.4-3.5,5.1-6.8,7.3-10.5
	c4.7-8.2,7.1-16.7,2.1-25.7c-4-7.3-2.5-14.2,0.8-21.4c6.5-14.1-1.5-28.2-17-27.9c-7.7,0.1-17.4,2.5-22.4,7.6
	c-11.5,11.6-20.4,25.8-30.7,38.5c-6.1,7.5-12,15.8-19.7,21.2c-14.3,9.8-22.7,23.2-27.4,38.9c-4.5,15.1,5,31.3,19.5,33
	c12,1.4,19.8,7,26.8,16.3C100.1,256.4,106.3,258.8,110.3,261.6z M179.9,1912.6c-1.4-18.2-4.2-24.9-16.4-38.2c-3-3.3-6.1-7-7.8-11
	c-9.9-23.6-29.8-39.9-43.9-60.5c-1.8-2.6-4.5-4.5-6.8-6.7c-7.9-7.5-17.6-11.3-27.8-8.4c-10.8,3-21.8,7.1-31.2,13.2
	c-12.7,8.2-14.2,24.8-3.3,35.4c8.6,8.3,18.8,15.9,29.6,20.8c11.5,5.2,18.1,11.8,19.1,24.6c1.3,15.2,7.9,27.7,20.9,36.9
	c5.9,4.2,10.2,10.7,15,16.3c2.4,2.8,4,6.3,6.4,9.1c13.1,15.1,34.7,11.3,40.9-7.5C177.3,1928.8,178.2,1920.6,179.9,1912.6z
	 M1568.6,683.5c0-0.4,0.1-2,0-3.6c-1.4-25.5-17.9-46.3-45.2-43.6c-7.2,0.7-14.7-3.7-22.2-5c-6.6-1.1-13.9-3.1-20-1.4
	c-18.9,5.3-28.6,29.7-20.3,47.5c5.2,11,9.9,22.3,14.5,33.6c4.3,10.6,9.8,20.6,19.8,26.3c6.4,3.6,14.9,7.3,21.5,5.9
	C1541.7,737.9,1571.4,720.1,1568.6,683.5z M871.9,526.2c18.3-1.5,31.8-12.5,46.5-20.7c1.7-1,3.2-3,4.1-4.8
	c8.4-17.4,22.5-29.2,37.6-40.4c19.4-14.5,19.3-29.7,0.2-44.8c-7.5-5.9-11.8-13.2-14.8-22c-4-11.7-8.6-23.4-14.2-34.5
	c-6.9-13.9-11.5-13.8-20.2-0.7c-1.5,2.2-2.5,4.7-4,6.9c-4,5.6-7.7,11.5-12.4,16.4c-9.5,9.7-9.1,14.3-1.1,25.3
	c6.8,9.5,12.4,20.4,16.3,31.4c4.3,12.2-0.1,23-10.7,30.9c-16.4,12.2-32.6,24.6-49,36.8c-7.1,5.2-6.7,12.8,1.6,15.8
	C858.2,524.1,865.2,524.8,871.9,526.2z M277.6,1691.4c-1.7-11-5.2-17.4-14.7-20.8c-6.6-2.4-14.4-5-20.8-3.6
	c-13.6,2.9-26.8,8.1-40,12.8c-11.5,4.1-17.8,12.4-17.3,25c0.5,12.8-4,22.7-13.9,31.4c-16.6,14.8-15.9,40,0.6,55.1
	c6.6,6.1,14.6,6.9,22.3,3.5c5.5-2.4,12-5.6,14.7-10.4c9.6-16.9,23.1-30.2,36.2-44.1c8.2-8.6,15.2-18.5,22-28.4
	C271.2,1705.7,274.1,1698.3,277.6,1691.4z M1949,773.1c-0.9-2.8-1-7.8-3.6-10c-12.6-10.5-25-21.5-38.9-29.9
	c-11.3-6.8-17.6-3.3-25.5,7.7c-4.7,6.6-10.1,13.1-16.4,18.1c-11.6,9.2-14.5,17.9-5.6,29.9c6.7,9.1,14.9,17.5,23.9,24.3
	c9.6,7.2,16.5,15.1,19.3,27.1c2.9,12.5,12.1,18.1,24.6,15.3c6.6-1.5,13.3-4.2,18.9-7.8c16.7-10.8,19.8-24.7,9.7-41.7
	C1949.4,796.1,1945.4,786,1949,773.1z M1788.9,1567c12.8-4.9,24.3-10,36.6-15.7c38.7-18,44.9-19.9,86.2-12
	c24.1,4.6,52.3,5.5,42-29.7c-10.3-35.1-48.7-19.4-71.3-28.2c-17.9-7-26.2-25.2-43.4-30.7c-22.8-7.4-73.7,10.3-90.5,28.2
	C1699.4,1531.1,1711.9,1596.7,1788.9,1567z M1219.7,1959.6c-0.1,22.8,11.8,32.3,31.4,26.1c7.7-2.5,14.8-7.1,21.8-11.3
	c17.8-10.6,35.2-21.7,57.2-22.1c5.2-0.1,12.1-3.9,15.1-8.2c6.3-8.9,7.6-19.5,4.8-30.5c-3.5-13.7-22.4-26.1-37.2-20
	c-8.8,3.6-19,4.4-28.7,5.4c-11.8,1.2-21.1,5.7-29,14.6c-6.6,7.5-13.9,14.6-21.7,20.8C1224.4,1941.5,1219.3,1950.1,1219.7,1959.6z
	 M1279,601.7c13.3-1,22.9-2.9,27.3-13.1c4.5-10.4-0.7-18.5-7.9-25.6c-2.6-2.6-5.6-4.9-8.4-7.4c-13.1-12-24.6-24.3-23.4-44.6
	c0.8-13.7-11.4-25.1-27.1-29.4c-9.8-2.7-12.4-1.1-16.8,8c-5.2,10.7-10.3,21.5-16.9,31.4c-8.5,12.6-7.8,22.3,4.4,31.6
	c3.2,2.4,6.6,4.5,9.9,6.7c16,10.4,32.8,19.6,45.3,34.9C1269,598.6,1276,600.2,1279,601.7z M1784.9,723.2c10.7,1.5,17.9-8,23.4-20.3
	c9.3-21.1,0.4-36.4-22.5-37.6c-9.8-0.5-19.8,0.9-29.5-0.2c-6.7-0.8-14.2-3.1-19.5-7c-13.2-9.8-28.9-11.7-44-14.9
	c-3.6-0.8-10.7,3.8-12.2,7.5s1,10.1,3.6,14c2.5,3.7,7.4,6,11.6,8.2c12.5,6.3,18.3,16.1,18.7,30c0.1,4,2.4,10,5.4,11.3
	c9.3,4,19.3,7.3,29.3,8.7C1759.3,724.4,1769.9,723.2,1784.9,723.2z M1787.5,1849.7c4.8,70.1,50.5,44.3,99.1,47.9
	c28.9,2.1,105.9,32.3,98.1-47.2C1977.9,1781.4,1786.5,1749,1787.5,1849.7z M433.4,653.7c-5.9-8.9-9.8-21.2-18-26
	c-40.1-23-59.2-20.7-81.8,5.7c-11.1,13.1-25.5,18.3-42.7,12.3c-3.3-1.2-7-1.6-10.5-2c-20.7-2.4-40.3,10.7-44.3,29.5
	c-3.6,16.9,5.1,27.4,27.7,35.8c17.2,6.3,34.2,13.3,50.8,21.1C364.3,753.3,430.3,711.1,433.4,653.7z M1820.4,1089.7
	c0.1,0,0.1,0,0.2,0c0,2.4-0.6,5,0.1,7.2c1.7,5.5,2.5,13.4,6.5,15.8c6.6,3.9,13.8-0.3,19-6.1c9.5-10.5,19.1-20.8,28.2-31.5
	c3.4-4,6.3-8.7,8.1-13.6c5.1-13.5-0.1-26.8-12.5-33.3c-15.1-7.9-26.7-5.2-36.2,7.8c-10.2,13.9-18.1,28.3-13.4,46.5
	C1820.9,1084.8,1820.4,1087.3,1820.4,1089.7z M634.9,1728.6c0.1,0.7,0.2,1.4,0.2,2c8.1-0.9,16.5-0.8,24.2-3
	c11.3-3.3,15.1-14,7.7-23.2c-4.7-6-11.7-11-18.6-14.2c-16.8-7.9-34.3-5.8-51.5-0.8c-13.3,3.9-20.3,15.3-17.6,27.2
	c2.5,11.2,11.6,16.3,26.2,14.8C615.3,1730.4,625.1,1729.5,634.9,1728.6z M1333.7,961.5c10-42.2,14-78-20.9-92
	c-51-20.5-63.2,38.7-78.2,79.9c-13,35.7-45.1,93.1,8,101.7C1279.5,1057.2,1327.6,987,1333.7,961.5z M518.7,1793.9
	c-0.9-18-11.1-27.1-26.2-22.2c-11.3,3.7-19.6,11.3-22.4,23c-2.6,10.8-3.7,22-4.8,33c-0.9,9.2,4,14.3,13.4,15.2
	c13.3,1.2,27.7-7.2,32.8-20.7C514.9,1813.2,516.4,1803.4,518.7,1793.9z M351.1,1628.1c20.1-2.4,39.3-9.9,52.5-28.2
	c8.5-11.8,2.8-26.5-11.6-28.5c-6-0.8-14.2,0.5-18.6,4.1c-9.5,8-20,12.7-31.3,16.9c-9.4,3.5-13.6,12.8-11.5,22.8
	C332.3,1623.3,339,1627.9,351.1,1628.1z M1931.7,516.8c5.9-2.4,16.9-5.8,26.6-11.3c7.9-4.5,11.7-12.9,11.7-22.3
	c0.1-7.5-4.1-12.8-11.4-12.7c-15.5,0.1-29.8,5-41.8,14.8c-3.2,2.6-5.3,7.4-6.3,11.6C1907.5,508.6,1914.5,516.9,1931.7,516.8z
	 M221.6,316.4c7.7,0.1,14.2-2.3,18-9.5c3.4-6.4,3.2-13.1-1.3-18.8c-7.8-9.9-17.9-16.7-30.7-18.3c-11.2-1.4-18.2,4.8-19.1,16.2
	C187.3,302.1,202.7,316.2,221.6,316.4z M1681.1,73.5c-3.5-5.8-5.8-12.3-10.3-16.2c-5.7-5-12.5-1.7-18.4,1.9
	c-5.6,3.5-11.7,6.5-16.8,10.6c-2.7,2.2-5.3,6.3-5.2,9.6c0.1,8.4,14.2,23.2,22.5,24.7c7.4,1.4,14.4-0.4,18.2-6.9
	C1675,90.3,1677.4,82.4,1681.1,73.5z M1692.4,712.8c-13.4,0.1-22,9.6-20.3,22.8c1.7,12.8,9,22.3,20.2,27.8c4,2,11.3,1.9,14.7-0.6
	c3.3-2.3,5-8.9,5.1-13.6c0.1-7.3-2-14.7-3-22C1707.5,715.8,1704,712.7,1692.4,712.8z M810,467.5c-5.7,1.9-11.9,3-16.8,6
	c-10.7,6.6-11.1,22.5-1.5,30c7.5,5.8,31.1,3.9,37.4-3.2c1.3-1.5,2.2-3.6,2.6-5.6C835.2,477.2,828.2,468.8,810,467.5z M165.9,624.7
	c-16.2,0-26.6,8.4-25.9,20.3c0.7,11.9,13.3,20.2,28,18.4c1.1-0.1,2.1-0.3,3.1-0.5c9.8-2.3,18.5-12.5,17.9-20.9
	c-0.6-8-10.5-16.3-20.5-17.2C167.4,624.8,166.3,624.8,165.9,624.7z M1707.4,203.6c0.7,14.2,8.8,21,20.2,15.8
	c9.6-4.4,16.1-12.2,19.1-22.3c2.6-8.9-3.3-19.8-11.6-22.8c-9.2-3.3-17.1,0.3-21.7,10.6C1710.8,190.8,1709.4,197.3,1707.4,203.6z
	 M333.9,1246.3c-11.8-0.2-19.5,5.7-19.6,15.1c-0.1,12.1,10.8,24.5,21.8,24.6c10,0,22.4-11.6,22.7-21.3
	C359,1254.5,348.4,1246.6,333.9,1246.3z M1687.4,1438.3c4.7-0.5,8.4-0.6,12-1.2c11.4-2.1,15.5-14.3,7.9-23
	c-8.3-9.5-33.1-10.6-40.7-0.8c-3.2,4.1-4.9,11-3.9,15.9c0.6,3.1,7.1,5.7,11.5,7.2C1678.7,1437.9,1683.6,1437.8,1687.4,1438.3z
	 M1875.7,1707.5c24.5-1.1,38.8-24.3,29.8-49c-6-16.5-20.7-26.5-33.6-18.7c-15.7,9.5-29.6,22.9-41.9,36.8c-7.5,8.6-3.1,19.2,8.8,22.7
	C1851,1702.6,1863.4,1704.8,1875.7,1707.5z M1559.8,34.4c-0.2,12.6,12,21.5,23.6,16.5c7-3.1,13.8-7,20.2-11.2
	c6.6-4.2,6.5-9.3-0.2-13.8c-9.5-6.3-20.1-8.5-31.3-6.1C1564.6,21.5,1560,26.2,1559.8,34.4z M1085,321.9c3.5-2.4,8.6-4.1,9.9-7.3
	c0.9-2.4-2.3-8.3-5.3-10c-10.5-6.2-19.7-13.3-25.8-24.2c-1.4-2.4-6.5-4.4-9.3-3.8c-3.3,0.7-7.1,3.9-8.6,7
	c-2.6,5.4-1.2,11.1,3.7,15.1c7.4,6.1,14.8,12.1,22.6,17.7C1075.6,318.8,1079.9,319.8,1085,321.9z M1418.8,94
	c9.2-5.8,17.4-10.1,24.5-15.8c6.8-5.4,7.1-15.5,2.1-20.7c-5-5.1-12.7-3.5-19.5,3.3c-3.7,3.7-7.9,7-12.2,9.8
	c-4.2,2.7-11,4.4-8.3,10.4C1407.5,85.9,1413.4,89,1418.8,94z M581.5,1827.2c0.7,3.5,1,7,2.1,10.2c3.5,10.1,13.5,11.9,20.4,3.8
	c6.5-7.6,7.1-22.3,0.3-29.4c-2.7-2.9-7.9-5.3-11.6-4.8c-3.2,0.4-6.7,4.6-8.5,8C582.5,1818.5,582.4,1823,581.5,1827.2z M174.4,1084.2
	c-11.3,0.1-16.6,3.4-15.3,10.3c1,5.4,3.6,11.2,7.2,15.4c4.3,5.1,10.9,5.3,16.9,2c6.3-3.4,10.4-8.8,9.9-16.1
	c-0.5-7.1-6.7-8.9-12.4-10.6C178.1,1084.5,175.4,1084.3,174.4,1084.2z M714.1,1131.9c0.1-8.6-5.5-15.7-12.3-15.9
	c-7.6-0.2-14.7,6.7-14.9,14.5c-0.2,8.5,6.4,15.2,15,15.2C708.8,1145.7,714.1,1139.8,714.1,1131.9z M1354.6,96.2
	c7.4,0,14.7-5.8,14.8-11.8c0.2-6.3-12-14.3-21.6-14.2c-6.4,0.1-10,2.9-10.1,9.6C1337.5,88.9,1345.1,96.2,1354.6,96.2z
	 M1792.8,1017.9c0.2-6.1-1.7-10.4-8.8-10.6c-10.1-0.2-17.9,6.5-18.2,16c-0.3,7.5,4.8,12.8,12.1,12.8
	C1786.4,1036.1,1792.6,1028.6,1792.8,1017.9z M397.3,1334.4c0-6.8-4.3-10.8-10.4-9.9c-7.7,1.2-17.6,12.5-17.8,20.4
	c-0.2,6.6,3.3,9.9,9.8,9.4C388.3,1353.7,397.4,1343.8,397.3,1334.4z M1351.6,1223c0.5,0.5,1,0.9,1.5,1.4c3.8-3,9.8-5.5,10.6-9.1
	c0.7-2.8-4.4-8.5-8.2-10.5c-4.4-2.3-10.5-3.2-15.3-2.2c-3.3,0.7-6.9,5.5-7.9,9.1c-0.6,2,3.4,6.5,6.2,8
	C1342.4,1221.8,1347.2,1222,1351.6,1223z M470.5,1561.1c-9.2,0.1-13.7,2.9-13.5,8.7c0.2,7,7.5,12.7,15.8,12.5
	c7-0.2,12.4-4.8,12.6-10.7C485.6,1564.8,480.2,1561,470.5,1561.1z M964.8,353.8c1.3,1.1,3.4,4.5,6.2,5.1c4.9,1.1,12.6-8.3,12-14.6
	c-0.2-2.4-2.7-6-4.9-6.6C973.2,336.4,965.1,345.4,964.8,353.8z M867.4,1292.7c-1.9-1.4-4.4-4.5-7.5-5.2c-5.4-1.2-10.6,4.1-9.5,9.7
	c0.6,3,4.1,7.4,6.7,7.6C863.2,1305.6,866.5,1301.2,867.4,1292.7z M1047.9,379.3c3.5-4.4,6.7-6.9,7.4-10c0.3-1.6-3.9-5.5-6.4-5.9
	c-4.5-0.7-8.9,1.8-8.1,7.2C1041,373.1,1044.3,375.2,1047.9,379.3z M1230.2,1255.7c-4.5-2.7-7.2-5.5-9.2-5.1
	c-2.4,0.5-5.7,3.7-5.8,5.9c-0.1,2,3.6,5.9,5.4,5.8C1223.2,1262.2,1225.6,1259.1,1230.2,1255.7z"/>
<g>
	<path class="st2" d="M443.4-23.2c-1.8,15.5-7.7,29.4-16.8,41.8c-7.4,10.1-15.5,19.7-22.9,29.7c-5.8,7.9-11.5,16-16.3,24.5
		s-10.5,16-18.5,21.7c-15.4,11.1-31.6,20.7-50.3,25.6c-4.9,1.3-9.7,2.9-14.5,4.4c-12.5,3.8-23.6,10.1-32.3,19.9
		c-9.4,10.7-21.2,14.4-34.9,14.5c-11.1,0.1-21.7-1.9-32.2-5.3c-5.3-1.8-10.6-3.8-16-4.9c-4.1-0.8-8.5-1.1-12.6-0.4
		c-7.5,1.2-11.9,6.3-11.7,13.9c0.3,15.6,3,30.8,10,44.9c1.9,3.9,5.5,7.2,8.9,10c7.3,6.1,15.1,11.8,22.6,17.7
		c17.7,13.8,44.8,11.8,60.4-4.5c5.4-5.6,7.5-12.8,9.3-20.1c1.2-4.9,2-9.9,3.2-14.8c1.2-4.6,3.4-8.5,8.7-9.3
		c5.3-0.8,9.5,1.4,12.4,5.6c2.9,4.1,5.2,8.7,7.9,13c10.1,16,24.7,23.5,43.6,23.4c9.1,0,15.4-3.5,18.4-12.2c0.3-1,0.9-1.9,1.2-3
		c4.8-18.1,17.7-30,31.8-40.8c6.9-5.3,14.9-8.3,23.4-9.9c12.6-2.3,24.9-5.8,36.7-10.8c21.3-8.9,41.8-5.5,61.7,4.3
		c12.4,6.2,15.5,17.5,14.9,30.3c-0.1,2.9-1.1,5.7-1.8,8.6c-0.5,2.3-1.2,4.7-1.5,7c-0.5,3.9-0.3,7.7,3.8,9.6c4.1,1.9,7.3-0.4,9.9-3.1
		c2-2.1,3.7-4.5,5.5-6.9c2.2-3,4.3-6.1,6.6-9c4.4-5.6,10.3-8.3,17.3-8.5c8-0.3,15.5,1.4,22.2,5.6c7.8,5,15.2,10.7,22.7,16.2
		c5.5,4.1,10.6,8.9,16.4,12.7c9.4,6.1,19.4,6.7,29.7,2.1c5.6-2.5,11.2-5,17-7c12.4-4.3,23.2-1.1,31.9,8.5c3.2,3.5,6,7.5,8.3,11.7
		c5.3,9.6,10.4,19.2,15.1,29.1c8.1,17.1,5.6,30.6-8.1,43.3c-9.6,8.9-18.3,18.6-25.4,29.6c-6.2,9.4-14.7,15.9-25,20.4
		c-12.3,5.4-25,9.5-38.4,10.5c-34.5,2.5-56.9,22.3-72.4,50.9c-8.3,15.4-14.4,32-21.1,48.3c-4.6,11.4-4.2,23,0.7,34.2
		c5.6,12.7,11.1,25.4,17.4,37.7c9.1,17.7,12.8,36,8.5,55.7c-2.3,10.4-0.3,20.1,5.2,29.1c1.5,2.5,2.9,5.1,4.4,7.6
		c6.2,11,5.3,21.7-2.4,31.3c-3.7,4.7-8.6,8.7-13.6,12.2c-6.5,4.6-13.6,8.4-20.3,12.7c-4.5,2.8-9,5.8-13.2,8.9
		c-7,5.2-10,12.2-9.3,20.9c0.1,0.8,0.1,1.6,0.2,2.4c1.3,21.1-8.5,33.9-29.3,38c-2.9,0.6-5.8,0.7-8.7,1.2c-5.5,1-6.5,2.4-6.1,8.2
		c0.6,7.4,1.2,14.9,1.8,22.3c1,12.6-4.3,21.8-15.8,26.9c-6.8,3-13.9,5.6-21.1,7.3c-11.4,2.8-22.9,5-34.4,7.1
		c-18.1,3.2-35,9.1-50.4,19.2c-14.9,9.7-31.1,16.5-48,21.3c-7.3,2.1-15.1,3.3-22.7,3.3c-11.1-0.1-18.9-6.1-23.4-16.5
		c-6.3-14.8-6.1-29.6,3-42.8c11.6-16.7,19.2-34.6,24.7-54.1c5-17.7,17.8-30,33.6-39c5.8-3.3,11.9-6,17.9-8.9
		c7.7-3.8,14.5-8.7,20.5-15c4.5-4.8,9.6-9.2,14.7-13.4c6.6-5.5,10.2-12.1,9.6-20.8c-1.1-14.9,3.8-27.7,13.2-39.1
		c4.6-5.5,8.3-11.8,12.7-17.4c5.9-7.6,11.7-15.2,18.2-22.2c10.9-11.8,12.2-20.6,2.4-33.3c-13.6-17.6-21.1-38.1-29.3-58.3
		c-5.2-12.8-4.1-26,2.9-37.8c7.9-13.2,16.5-26.1,25.8-38.4c4.7-6.2,11.9-10.6,17.9-15.8c3.4-3,7.2-5.7,10-9.1c6.5-8,5.1-17-3.4-22.7
		c-3.3-2.2-6.9-4.1-10.7-5.3c-14.9-4.6-27.1-13.1-37.6-24.7c-4.4-4.9-9.7-9.1-15.2-12.9c-8.3-5.8-17.2-5.5-25.3,0.4
		c-10.2,7.5-18.9,16.6-24.9,27.7c-2.9,5.4-4.4,12.1-4.8,18.3c-0.7,12.5-0.5,25-0.1,37.5c0.3,11.4,5.1,21.7,9.5,32
		c3.1,7.3,6.8,14.5,9.6,22c6.6,17.7,3.3,33.4-10.5,46.7c-8,7.8-16,15.6-24,23.5c-1.5,1.5-3,3-4.3,4.8c-4.2,5.8-4.1,11.4,1,16.6
		c3.3,3.4,7.4,6,11.2,9c4.2,3.3,8.7,6.2,12.4,10c9.1,9.2,10.1,24.7,2.5,35.3c-6.1,8.4-14.6,12-24.5,9.4c-7.1-1.8-13.8-5.4-20.4-8.6
		c-4.3-2-8.2-5-12.5-7.1c-8.8-4.2-17.5-3.3-24.3,3.8c-9.5,10-20.8,13.1-34.1,11.3c-12.4-1.6-23.9,0.8-33.4,9.7
		c-1.2,1.1-2.6,1.9-3.9,2.8c-14.3,9.7-28.2,7.4-38.2-6.8c-11.1-15.7-17.6-33.4-20.7-52.3c-0.7-4.5-1.2-9-2.2-13.4
		c-4-18.1-22.5-28.7-40.5-23.8c-7.9,2.2-16,4.1-24.1,5.2c-5.2,0.7-10.6,0-15.8-0.7c-7.1-1-14.1-2.6-21.2-4.1
		c-10.2-2.1-20.1-1.2-29.8,2.7c-10.1,4.1-20.2,8.2-31,12.5c-0.1,2.4-0.4,5-0.4,7.6c0,36.5,0,73,0,109.5c0,8,0.3,7.5,7.1,11.1
		c6.3,3.3,12.7,7.1,17.7,12c18.8,18.8,35.3,39.4,50,61.4c10.2,15.2,15.1,32.2,12.2,50.9c-2.2,14.3-9.7,24.6-23.1,30.3
		c-11.5,5-23.6,6.4-36,4.7c-6.3-0.8-12.6-2.2-18.9-3.3c-2.5-0.4-5.1-0.7-8.3-1.1c-0.2,3.5-0.5,6.1-0.5,8.7
		c0,39.2,0.1,78.3-0.2,117.5c0,6,2,8.8,7.4,11.2c8.8,3.8,17.1,8.6,25.4,13.3c9.6,5.4,14.1,14.1,12.6,24.8
		c-2.8,20.6-7.4,40.9-16,59.9c-4.2,9.2-11.6,15.1-21.3,18c-2.3,0.7-4.5,1.4-7.5,2.3c-0.2,2.5-0.5,5.1-0.5,7.7
		c0,51.1,0,102.3-0.1,153.4c0,4.7,1.2,7.7,5.2,10.6c12.4,9.4,12.8,29.6,0.6,39.1c-4.7,3.6-5.8,7.4-5.8,12.8
		c0.1,87.6,0.1,175.3,0.1,262.9c0,106.8,0,213.6,0,320.5c0,3.4,0,6.8,0,11.2c3-1.2,5-1.7,6.8-2.6c19.8-11,32.6-27,36.2-49.8
		c1.6-10,3.8-19.9,5.9-29.8c4.4-20.7-0.5-38.1-21.7-50c-19.5-10.9-29-39.1-19.4-60.8c4.1-9.3,10.6-15.9,20.4-18.9
		c5.8-1.8,11.8-3.4,17.7-4.9c10.9-2.7,20.2-8,28.4-15.6c2.7-2.5,5.6-5,8.3-7.5c8.4-8,18.2-13.7,29.1-17.8c4.5-1.7,8.9-3.5,13.2-5.7
		c6.6-3.5,11.4-8.7,14.3-15.6c5.5-13.1,0.2-27.4-12.9-32.5c-6.3-2.5-13.4-3-20.2-4.1c-6.3-1-12.8-1-19-2.3
		c-26.2-5.8-27.5-31.8-15.9-45.9c3.2-3.9,7.2-7,11-10.4c3.7-3.4,8-6.3,11.3-10.1c8.9-9.9,7.3-20.5-3.8-27.6
		c-3.8-2.4-8.1-4.1-11.9-6.5c-3.3-2.1-6.8-4.3-9.4-7.3c-8.3-9.5-6.7-21.9,3.4-29.3c3.2-2.4,6.7-4.4,10.1-6.4
		c10.1-5.9,17.3-14.2,20.2-25.7c3.4-13.1,11.4-22.2,23.5-27.6c18.9-8.4,32.8-22.2,44.6-38.8c5.7-8,12.2-15.5,19.4-22.2
		c11.4-10.7,25.2-16.8,41.2-16.9c18.3-0.2,29.6,9.4,32.7,27.4c1.7,10.1,1,20.2-1.7,30.1c-2.5,9.2-5.3,18.4-8.6,27.4
		c-4,11.3-7.2,22.8-8.7,34.8c-0.8,6.1-2,12.1-3.6,18c-2.8,10.9-9.2,19.1-19.4,24.1c-6.5,3.2-13.2,5.8-19.4,9.4
		c-17.3,9.8-28.9,24.2-32.9,43.9c-3.4,16.7,8.6,29.9,25.6,27.6c7.2-1,14.3-3.9,21.2-6.7c6.1-2.5,11.7-6.5,17.7-9.3
		c22.4-10.5,42-4.8,55.2,16.1c2.7,4.3,5.4,8.6,8.1,12.8c4.6,7,10.2,13,17.3,17.5c14.9,9.2,26.1,21.6,34.5,36.9
		c5.9,10.9,7.2,10.9,17.5,3.4c2.1-1.6,4.3-3.1,6.6-4.5c12.2-7.2,24.1-6.4,34.8,2.6c9.5,8,16.9,17.8,22.1,29.1
		c3.3,7.1,4.7,14.7,3.5,22.6c-2.1,14.3-13.3,23-27.8,21.5c-7.7-0.8-14.7-3.7-19.5-9.8c-5.7-7-10.9-14.4-15.8-22
		c-4.2-6.5-7.4-13.5-11.3-20.2c-3.2-5.4-5-5.8-10.3-2.7c-1.6,0.9-3.1,2-4.7,3.1c-9.5,6.6-20,10.4-31.5,9.7
		c-18.7-1.1-35.7,3.8-52.4,11.8c-10.5,5.1-21.5,9.3-32.5,13.2c-17,6.2-31.1,16.2-42.1,30.5c-9.2,12-18.5,24.1-27,36.6
		c-12,17.5-17.4,37-14.6,58.3c1.4,10.9,5.8,20.6,12.3,29.1c5.8,7.6,12.4,14.6,18.8,21.7c6.4,7.1,13.1,14,19.5,21.1
		c8.2,9.2,10.6,20.3,8.3,32.1c-1.7,8.6-4.3,17-7.3,25.3c-3.3,9.1-10.8,14.1-20,15.3c-14.2,1.9-28.6,2.9-42.9,4.1
		c-5.3,0.5-10.6,0.5-15.9,1c-7.8,0.7-14.2,4.1-19.3,10.2c-8.1,9.5-14.2,20-16.1,32.5c-1.1,7.1-1.8,14.2-2.8,22
		c2.5,0.3,4.4,0.8,6.4,0.8c58.3,0,116.7,0,175,0.1c3.8,0,6.2-1.1,8.7-4.2c4.2-5.1,9-9.8,14-14.1c7.1-6,14.7-11.4,21.9-17.4
		c10.5-8.6,22.4-13.3,35.8-14.2c14.2-0.9,27.7-4.7,41.2-9.2c11.3-3.7,23.2-5.6,34.9-8.4c6.5-1.5,13.2-2.4,19.3-4.9
		c19.1-7.7,28.7-23.9,26.6-44.3c-0.6-6.3-2.1-12.6-3.6-18.8c-5.7-23.4-1.2-44.3,14.1-63c5.1-6.2,9.9-12.5,15.2-18.5
		c9-10.1,20.5-15,33.7-11.9c12.6,2.9,25.6,6.2,37.1,11.9c15.4,7.7,20.2,22.6,19.2,39.1c-0.3,5.8-1.9,11.6-2.5,17.4
		c-1.4,12.2,1.2,16.9,11.9,22.7c1.4,0.8,2.8,1.5,4.3,2.1c17.7,7.2,26.6,21.6,31.1,39.1c4.3,16.5-0.3,28-14.7,36.9
		c-20.2,12.4-41.7,17-65,9.9c-5.1-1.5-10.2-3-15.4-4.2c-7.6-1.7-15-1-21.6,3.3c-18.2,11.9-28.4,29.5-36.1,50.2
		c49.7,0,98.3,0,147.4,0c6.2-19.6,23.9-26.8,39.9-35.6c14.9-8.2,31.1-10.8,48-8.4c15.9,2.3,31.7,2.2,47.7-0.7
		c26.5-4.8,41.7,5.2,49,31.1c1.2,4.3,2,8.8,3,13.5c2.2,0.2,4.2,0.5,6.3,0.5c6.1,0.1,12.1,0,18.7,0c0.9-7.4-0.1-13.9-1-20.4
		c-0.9-6.6-2.3-13.2-2-19.8c0.6-15.7,8.4-22.9,24-22.2c14.8,0.6,27.9,6.5,39.9,14.8c5.2,3.6,8.1,9.3,9.7,15.2
		c2.1,7.7,3.7,15.5,5.5,23.3c0.6,2.8,1.2,5.6,1.9,8.8c103,0,205.4,0,308.3,0c1.1-3.6,2.2-7.1,3.2-10.6c2.8-9.6,8.3-17.1,17-22.3
		c11.9-7.1,23.6-14.5,35.6-21.4c18-10.2,32.8-8.9,48.7,4.2c9.9,8.1,19.4,16.6,29.1,25c7.6,6.6,12.8,14.9,16.1,24.9
		c75.6,0,151.1,0,227.9,0c-1.9-5.7-3.4-11-5.2-16.1c-2-5.8-4.6-11.4-6.3-17.2c-3.5-11.8-1.1-22.7,6.5-32.3
		c10.6-13.6,24.6-21.7,41.5-24.9c3.9-0.7,7.9-1.2,11.8-2c10.6-2,18.8-7.6,23.7-17.2c3.1-6.1,5.4-12.7,8.1-19.1
		c3.2-7.6,6.1-15.3,9.9-22.6c7.3-14.3,14.2-28.6,18.9-44c4.6-15,1.1-27.3-10.9-37.2c-5.4-4.4-11-8.4-16.4-12.8
		c-9.4-7.8-16.9-16.9-19.7-29.3c-3.5-15.8,1.5-30.4,15-39.1c18.4-11.8,37.9-21.7,58.5-29.2c5.7-2.1,11.9-3.1,17.9-3.7
		c14.6-1.5,29-3.4,43.3-7.2c19.4-5.2,38-3.1,55.5,7.3c9.1,5.4,15.6,12.8,19,22.8c2.3,6.8,4.4,13.7,6.2,20.6
		c2.6,10.3,8.5,17.6,18.4,21.5c14.9,5.9,29.1,13.2,42.6,21.9c12,7.8,24.7,9,38.2,4.2c8-2.9,16.2-5.4,24.9-5
		c11.2,0.6,15.7,3.9,19.1,14.7c3.7,12.1,5.2,24.5,4.6,37.1c-0.9,21.9-20.1,41-43.3,42.9c-6,0.5-12.3,0.2-18.2-1.1
		c-17.3-3.6-34.6-5.6-52.3-5.7c-8.2-0.1-16.4-1.4-24.6-2.8c-4.7-0.8-9.3-2.5-13.6-4.5c-19.8-8.9-26.6-24.4-20.1-45.1
		c1.4-4.3,3.3-8.5,4.6-12.8c2.5-8,1.1-15.4-3.3-18.5c-4.6-3.2-12.6-2.1-19.1,3.6c-4.2,3.6-7.6,8.2-11.3,12.3
		c-7.5,8.3-14.4,17.2-22.7,24.6c-10.5,9.6-17,20.8-19.9,34.6c-1.3,6.2-3.4,12.3-6.3,18c-5.2,10.2-13.1,18.1-23.3,23.4
		c-5,2.6-9.9,5.2-14.9,7.6c-9.1,4.3-15.4,11.2-19.5,20.3c-0.9,1.9-1.9,3.9-2.5,5.9c-4.1,13.9-10.5,26.6-19,38.5
		c-7.2,10.2-4.5,18.5,6.6,24.2c3.8,1.9,7.8,3.4,11.8,4.8c6.8,2.3,11.6,6.6,13.7,13.4c2.4,7.8,4.3,15.8,6.6,24.4
		c4.2,1.4,74.6,2.1,89.1,0.4c2.7-8.3,5.3-17,8.3-25.4c2.3-6.5,4.7-13.1,7.9-19.2c6.4-12,18-16.2,30.5-10.8
		c5.3,2.2,10.3,5.8,14.5,9.7c15.5,14.5,20.7,22.8,29.6,46c18.9,0,38,0,57.9,0c1.2-8,2.3-15.8,3.5-23.7c0.6-4,1.1-7.9,1.9-11.8
		c1.6-8.1,5.3-15.2,11.8-20.4c18.9-15.2,38.7-29.1,60.8-39.5c0.7-0.3,1.5-0.3,2.3-0.4c0,32.5,0,65,0,97.5
		c-682.3,0-1364.7,0-2047.5,0c0-3.8,0-7.7,0-11.6c0-676.2,0-1352.5,0.1-2028.7c0-2.3-1.8-5.4,1.5-7.2c0,0.8-0.1,1.6-0.1,2.4
		c0,78.2,0,156.5,0,234.7c0,2.3,0.4,4.6,0.5,6.8c22.5,6.2,43.3,4.2,62.7-7.9C60.3,200.7,77,187,89,168.1c1.3-2,2.9-3.8,4.3-5.7
		c6.5-8.7,15-13.7,25.9-15.6c9.6-1.7,19.1-4.8,28.3-8.1c8.8-3.1,10.3-6,8.9-15.2c-1.3-8.4-3.1-16.7-5.1-25
		c-4-16.6,0.7-30.4,12.6-42.2C172,48.4,182,43,193,39.3c7.8-2.6,15.7-5.2,23.3-8.2c7.5-3,14.1-7.4,19.5-13.5
		c5.6-6.3,8.2-13.6,6.7-22.1c-1.1-6.3-2.5-12.5-3.8-18.8C307-23.2,375.2-23.2,443.4-23.2z M-21.3,463.5c0.5,0.3,1.1,0.5,1.6,0.8
		c3.8-3.2,7.7-6.4,11.5-9.7c16.3-13.5,32.2-15.3,51-5.3c5.9,3.1,11.5,6.8,17.3,10c6,3.3,8.2,3.2,12.1-2.5
		c9-13.2,21.5-15.9,35.9-12.2c11.3,2.9,22.5,6.4,33.7,10.1c9.4,3.1,17.9,8.1,25.4,14.7c3,2.6,6.2,5.1,9.7,6.9
		c6.9,3.7,12.2,2.3,16.5-4.3c2.5-3.8,4.4-7.9,6.5-11.9c4.5-8.8,11.7-13.5,21.4-14.7c4.8-0.6,9.5-1,14.3-1.8
		c15.3-2.7,23.2-11.9,23.7-27.5c0.1-4.5-0.1-9.1-0.4-13.6c-0.8-13.2,0.4-26,4.9-38.5c1.6-4.4,2.2-9.4,2.3-14.1
		c0.1-7.5-3.6-11.9-10.9-13.8c-3.8-1-7.9-1.3-11.9-1.3c-12.3-0.1-24.5-1.3-36.3-5c-16.9-5.4-32.6-3.2-47.5,5.9c-2.5,1.5-5,3-7.7,4.3
		c-15.2,7-30.3,14.4-45.8,20.8c-15.2,6.3-31.2,6.8-47,2c-9.9-3-19.7-6.4-29.4-10.2C18,348,8.4,340.6,0.3,331.1
		c-4.5-5.3-9.3-10.3-14.2-15.1c-1.9-1.9-4-4.3-7.5-3.8C-21.3,362.6-21.3,413-21.3,463.5z M463.4,735.2c0.4,2.1,0.6,3.7,1.1,5.2
		c1.6,4.2,7,8.5,10.2,7.9c4.4-0.8,3.9-5.1,5.2-8.1c0.2-0.5,0.3-1,0.5-1.5c2.8-9.9,7.1-18.9,16.1-24.9c1.3-0.9,2.8-2,3.4-3.3
		c0.9-2,2.2-4.8,1.4-6.3c-0.8-1.6-3.9-2.7-6-2.7c-4.7,0-8.8,2.4-11.8,6c-6,7.1-11.8,14.3-17.5,21.7
		C464.7,730.9,464.2,733.4,463.4,735.2z M89,500.3c-0.1-6.1-3.8-12.4-8.1-14.5c-3.6-1.8-6.3-0.6-7,3.3c-0.9,5.2,3.5,14.6,8,17.3
		c2.9,1.7,5.1,1,6.3-2.1C88.8,502.8,88.8,501.2,89,500.3z"/>
	<path class="st2" d="M1354.4-23.2c2.8,4.8,5.2,9.8,8.3,14.4c16.3,24.2,14,44.1-7.5,63.7c-15.3,13.9-31.9,25.5-50.5,34.7
		c-12.6,6.2-24.5,13.9-36.6,21.2c-9.3,5.6-18.4,11.8-27.8,17.4c-24.4,14.4-44.4,33-57.2,58.6c-9.2,18.5-23.8,30.2-43.1,36.9
		c-8.3,2.9-16.3,6.6-24.6,9.4c-6,2.1-12.2,4.1-18.4,5c-13.7,2-22.7-3-27.9-15.8c-7.3-18-13.8-36.5-16.2-55.8
		c-2.1-17.1-7.6-32.2-18.4-45.9c-11.8-15-12.1-32.7-2.5-47.7c8.8-13.8,26-21.3,42.2-18.2c5,1,9.8,2.5,14.7,3.7
		c10.9,2.8,19.4-0.6,25.6-9.9c2.4-3.5,4.7-7.1,6.9-10.7c8.6-13.9,21.2-22.2,36.9-25.9c3.6-0.9,7.3-1.5,10.9-2.4
		c17.7-4.7,24.4-14,23.7-32.6C1246.8-23.2,1300.6-23.2,1354.4-23.2z"/>
	<path class="st2" d="M2024.1,1321c-2,1.7-4.2,3.3-5.8,5.3c-8.8,10.3-17.6,20.7-26.2,31.2c-6.7,8-10.1,17.4-11,27.8
		c-0.4,4.5-0.9,9-1.4,13.5c-2.2,17.8-10.8,32.2-24,43.9c-4,3.6-9.6,5.6-14.6,7.9c-3.4,1.5-7.1,2.3-10.8,3c-9.2,1.8-14.9,7-18.3,15.9
		c-6.1,15.8-8.1,16.7-25,15.9c-4-0.2-8-0.2-12-0.1c-4.6,0.1-7.5,2.5-8.7,6.8c-1.1,4.1-2.2,8.2-3.3,12.4
		c-6.1,22.7-23.9,34.2-47.1,30.2c-4.7-0.8-9.4-2.1-13.9-3.6c-12.9-4.2-24.3-2.4-35.3,6c-15.8,12.2-29.2,11.2-44.5-2.1
		c-10.2-8.9-17.1-19.6-19.5-33c-1-5.8-2.8-11.4-3.6-17.2c-2.1-14.4-9.5-25.8-19.6-35.7c-5.5-5.4-11.4-10.4-16.8-15.9
		c-7.8-7.9-11.8-17.5-11.6-28.8c0.2-10.5,3.9-19.4,12.2-25.8c10.1-7.8,20.3-15.6,31-22.5c15.4-10,31.9-6.6,42.7,8.3
		c2.8,3.8,4.6,8.4,6.7,12.7c0.9,1.9,1.5,4,1.9,6.1c3.6,17.8,14.7,27.1,32.6,28.7c3.2,0.3,6.3,0.9,9.4,1.7
		c14.2,3.6,23.1,12.5,26.9,26.7c1.4,5.1,2.4,10.4,3.9,15.5c3.6,12.1,11.6,18.8,24.3,19.6c1.6,0.1,3.2,0.3,4.8,0.3
		c12.2,0.1,13.5-0.6,15.8-12.8c2.4-12.3,7.5-22.6,18.5-29.4c7.2-4.4,10-11.4,10.2-19.7c0.2-8.4-1.2-16.4-4.6-24.1
		c-2.4-5.3-4.8-10.7-6.8-16.2c-3.1-8.3-2.8-16.7,0.5-25c0.6-1.5,1.1-3,1.9-4.4c15.1-25.7,29.5-51.8,50.2-73.8c23.1-24.5,59-33,91-21
		C2024.1,1273,2024.1,1297,2024.1,1321z"/>
	<path class="st2" d="M1893.1-23.2c0.7,6.7,5.3,11,9.9,14.8c5.1,4.2,10.9,7.6,16.5,11.2c4.3,2.7,8.9,4.8,13,7.7
		c15.9,11.2,17.4,32.3,3,45.5c-3.7,3.4-8,6.2-12.3,8.8c-11.1,6.6-18.2,16.2-21.7,28.5c-0.7,2.3-1.4,4.6-2.1,6.9
		c-3,10.4-8.9,18.5-17.9,24.7c-8.3,5.7-16.4,11.8-24.6,17.8c-8,6-16.9,7.3-26.5,5.4c-8.7-1.7-14.2-6.8-16.9-15.2
		c-3.1-9.6-2.5-18.9,1.5-28.1c1.8-4.1,4-8.1,5.7-12.3c5.3-13.3,1.1-24.4-11.7-30.6c-4.3-2.1-9-3.4-13.4-5.2c-3.9-1.6-8-2.9-11.7-5
		c-15-8.4-20.4-25.8-12.8-41.3c2.1-4.3,5-8.2,7.3-12.4c3.7-7,7.2-14.2,10.8-21.3C1823.8-23.2,1858.4-23.2,1893.1-23.2z"/>
	<path class="st2" d="M887.7-23.2c-6.3,19.4-17.1,35.8-32.3,49.5c-5.4,4.9-11,7.5-18.4,7.9c-7.8,0.5-15.7,2.4-23.3,4.6
		c-9.5,2.8-19,5.7-28.9,4.2c-5.9-0.9-11.9-2.9-17.4-5.4c-11.8-5.4-23.6-6.3-35.6-1.4c-11.3,4.6-23,4.7-34.5,1.8
		c-14.1-3.6-28-8.2-41.8-13c-9.8-3.5-19.4-7.2-29.8-8.4c-2.9-0.3-5.7-1.1-8.5-2c-19.1-6-26.8-17.5-25.2-37.8
		C690.6-23.2,789.2-23.2,887.7-23.2z"/>
	<path class="st2" d="M2024.1,1095.6c-3.3,1.5-6.9,2.7-10,4.6c-4.1,2.5-7.9,5.4-11.7,8.3c-12.1,9.2-25.3,10.3-39.3,5.4
		c-1-0.4-2-0.8-3-1.2c-10.6-4.2-21.2-8.4-31.9-12.5c-7.7-2.9-8.6-5-5-12.5c2.5-5.3,5-10.6,7.4-15.9c7-15.2,14-30.5,23.7-44.3
		c8.2-11.5,15.2-23.8,20.4-37c1.6-3.9,3.6-7.7,5.5-11.5c5.2-10.5,13.6-16.1,25.4-16.3c6.1-0.1,12.2,0.1,18.4,0.1
		C2024.1,1007.2,2024.1,1051.4,2024.1,1095.6z"/>
	<path class="st2" d="M2024.1,823.9c-8-2-14.4-6.9-19.8-12.7c-12-12.8-24.5-25-37.6-36.7c-16.5-14.8-19-41.2-7.2-60
		c3.4-5.3,7.8-9.5,13.4-12.2c17-8.1,34.1-16,51.1-23.9C2024.1,726.9,2024.1,775.4,2024.1,823.9z"/>
	<path class="st2" d="M2024.1,545.8c-20.8-9.3-40-21.2-55.4-38.3c-6.3-6.9-12.8-13.5-18.9-20.6c-5.3-6.1-7.9-13.2-6.6-21.4
		c1.4-8.7,5.7-13.6,14.5-14.5c5.5-0.6,11.3-0.6,16.6,0.7c17.3,4.4,34.2,10,49.8,18.9C2024.1,495.7,2024.1,520.7,2024.1,545.8z"/>
	<path class="st2" d="M1701.3-23.2c-6,27-24.8,41.4-52.2,39.8c-2.6-0.1-5.3-0.4-7.9-0.8c-9.3-1.1-18.5-0.7-27.6,1.8
		c-5.4,1.4-10.9,2.5-16.4,2.8c-12.7,0.6-20-4.8-23.7-16.9c-2.7-8.7-3.3-17.7-1.6-26.7C1615-23.2,1658.1-23.2,1701.3-23.2z"/>
	<path class="st2" d="M2024.1-16.8c-7.9,18.1-22.7,25.9-42.8,23.2c-18.1-2.5-30.3-11.8-35.5-29.6c26.1,0,52.2,0,78.3,0
		C2024.1-21.1,2024.1-19,2024.1-16.8z"/>
	<path class="st2" d="M2024.1,299.6c-3.5-1.9-7.2-3.5-10.5-5.6c-9.3-6.2-13.4-15.1-11.4-26c2.6-14.6,10.6-26.2,21.9-35.5
		C2024.1,254.9,2024.1,277.3,2024.1,299.6z"/>
	<path class="st2" d="M51.8-23.2C43.2-7.7,29.3-2.2,12.6-3.1c-13.2-0.8-23-7.3-27.9-20.1C7.1-23.2,29.4-23.2,51.8-23.2z"/>
	<path class="st2" d="M725.3,1156.3c-21.2-70.7,75.7-186.8,115.4-235.1c35.3-42.9,57.1-79.7,112.2-91.6c62.7-13.5,65.9-22.4,63.7-88
		c-1-28.1,4.5-96,44.9-68.9c19,12.7,23,60.1,39.1,73.3c30.9,25.3,172.9-40,151.3,49.4c-7.8,32.4-55.7,21.8-75.7,54.7
		c-21.7,35.7-0.5,86.9-44.9,109.7c-66.9,34.3-93-69.6-157.3-38.1C918.1,949,856,980.3,849.2,1042.4c-4.8,44.3-8.1,78.1-38.7,115.5
		C779.9,1195.2,741.6,1210.5,725.3,1156.3z"/>
	<path class="st2" d="M486.9,1334.2c-3.5-0.2-6.9-0.4-10.4-0.6c-10.5-0.4-19.8,2.6-28.4,8.8c-10.1,7.3-20.7,14-31.2,20.7
		c-5.5,3.5-11.7,5.3-18.2,5c-13-0.4-23.2-5.6-29.2-17.6c-2.6-5.2-5.1-10.6-6.9-16.1c-5.2-16.1-12.8-30.9-22.7-44.7
		c-3.4-4.7-6.2-9.9-8.8-15.2c-4.7-9.7-6.1-19.8-3.2-30.3c0.1-0.5,0.2-1.1,0.3-1.6c4.4-14.1,3.4-27.5-3.7-40.9
		c-4.8-9.2-7-19.5-8.1-29.9c-1-8.7-3-17.3-3.9-26.1c-1-9.5-1.6-19.1-1.8-28.7c-0.3-17.4-5.1-24.6-21.8-29.9
		c-10.3-3.3-19.7-8-27.6-15.5c-5-4.7-8.9-10-10.4-16.7c-0.9-3.8-1.4-8-1-11.8c1.4-12.6,13.3-20.4,25.6-17.1
		c5.3,1.4,9.7,4.4,13.2,8.5c2.4,2.9,4.7,5.8,6.9,8.8c4.8,6.4,11,8.9,18.9,7.5c3.4-0.6,6.8-1.4,10.2-1.7c4.2-0.3,8.5-0.7,12.7-0.1
		c8.1,1.1,13.7,5.8,15.9,13.8c1.3,4.6,2,9.4,2.8,14.1c2,11.3,8.3,18.2,19.7,20.2c2.1,0.4,4.2,0.9,6.3,1.2
		c8.7,1.2,15.4,5.5,20.4,12.6c7.5,10.7,15.4,21.1,22.5,32c8.6,13.1,19.9,20.4,36,19.1c8.9-0.7,17.2,2.2,24,7.4
		c15.4,11.7,33.3,17.5,51.3,23.4c5.7,1.9,10.9,5.4,16.3,8.2c7,3.7,13.9,7.8,21.1,11.3c7.5,3.7,14.9,3.4,21.9-1.5
		c7.6-5.3,16.2-6.9,25.1-5.9c11.9,1.3,23.9,2.3,35.6,4.8c24.9,5.4,45.3,18,59.6,39.6c5.2,7.9,8.3,16.7,9.4,26.1
		c1.1,8.8-1.1,17-5.8,24.4c-4.5,7-11.1,10.9-19.3,11.2c-7.7,0.3-15.4-0.1-23.1-0.9c-12.6-1.4-18.4,1.8-22.6,13.7
		c-6.6,18.6-13.1,37.1-19.7,55.7c-4.4,12.3-11.3,22.9-20.4,32.1c-10.8,10.9-23,13.3-36.3,5.6c-11.3-6.5-21.9-14.1-32.3-22
		c-7.6-5.7-12.2-14-15.2-23c-2.5-7.6-5-15.2-7.2-22.9c-2.7-9.9-9.4-14.5-19.2-15c-5.8-0.3-11.7-0.1-17.6-0.1
		C486.9,1334.3,486.9,1334.3,486.9,1334.2z"/>
	<path class="st2" d="M1130.8,1941.1c-11.4-0.4-22.9-0.4-34.2-1.4c-7.1-0.6-14.2-2.3-21.2-4c-13-3.1-25.7-3.3-38.7,0.3
		c-12.1,3.4-24.3,6-37,3.8c-19.7-3.4-33.6-14-41-32.7c-1.7-4.2-2.8-8.6-4.2-12.9c-3.2-10-7.9-19.1-14.9-27.1
		c-4-4.6-7.3-9.8-11.2-14.6c-11-13.7-24-17.3-40.5-11.4c-2.5,0.9-5,1.9-7.4,3.1c-8,4.1-15.9,3.8-23.8,0.1c-1.7-0.8-3.4-1.6-5-2.5
		c-11.6-6.7-23.9-11.2-37.3-13.4c-8-1.3-15.9-4.4-23.3-8c-10-4.9-14.4-13.4-13.1-22.5c1.4-10.4,8.6-18.3,19.4-20.8
		c9.8-2.3,19.2-0.7,27.4,5.1c5.2,3.7,9.8,8.1,14.4,12.5c4.1,3.8,8,7.9,11.6,12.1c9,10.3,30.2,12.8,41.3-0.2
		c8.9-10.4,20.9-17.3,33-23.5c11.4-5.8,23.6-8.5,36.4-5.2c17,4.4,27.6,16.8,28.3,34.3c0.3,7.1-1.3,14.2-2,21.4c-0.4,4-1.3,8-1,11.9
		c0.7,7.2,6.7,10,12.7,6.1c3.1-2,5.8-4.7,8.1-7.6c5.9-7.2,11.7-14.5,17-22.2c11.2-16.2,27.1-24.2,46-27.3c4.2-0.7,8.4-1.2,12.7-1.8
		c18.2-2.6,34-10.5,44.5-25.5c11.3-16.1,25.4-26.8,44.2-32c5.3-1.5,10-5,15.1-7.2c5.3-2.3,10.7-4.7,16.3-6.2
		c8.1-2.1,14.9,0.8,19.3,7.8c2.8,4.5,5,9.4,7.1,14.3c6.3,15.2,12.4,30.5,18.6,45.8c0.9,2.2,1.8,4.4,2.6,6.7
		c6.3,19.5,1,32.9-16.9,42.9c-8.7,4.8-17.7,8.5-27.7,9.6c-3.9,0.4-7.9,1.3-11.7,2.5c-6.8,2.1-10.7,7-11.1,14.1
		c-0.3,5-0.1,10.2,0.7,15.1c3.4,20.2-2.7,37.9-13.6,54.4c-3.4,5.2-8.3,7-14.4,6.8c-8.5-0.3-17-0.1-25.5-0.1
		C1130.8,1941.4,1130.8,1941.2,1130.8,1941.1z"/>
	<path class="st2" d="M761.7,670.4c0.8-3.7,2-10.2,3.6-16.6c1.1-4.4,2.6-8.7,4.1-12.9c8.1-21.8,13.6-44.2,16.4-67.3
		c0.7-5.5,2.4-10.9,3.9-16.3c3.8-14.1,7.8-28.2,11.7-42.3c0.8-2.8,1.4-5.7,2.4-8.4c3.4-9,11-13.8,20.6-13.2c3.7,0.2,7.4,1,11.1,1.1
		c10.9,0.4,16.2-3.1,20.1-13.3c2.2-5.7,4-11.6,6.2-17.3c5-13.1,12.9-23.9,25.2-30.9c15.6-8.8,23.9-22.1,26.5-39.5
		c1.4-9.3,4.7-18,9.6-26.1c10.8-17.5,29.7-24.4,49.1-17.3c6.2,2.3,12,5.6,17.9,8.8c11,5.9,21.7,12.5,32.9,18.1
		c14.2,7,24.5,17.2,31.3,31.7c5.3,11.3,11.8,22,18.2,32.8c9.1,15.3,10.5,31,3.5,47.4c-7.9,18.6-24.4,27.8-44.4,24.6
		c-6-1-12-2.4-18-3.6c-9.4-1.9-18-0.1-25.8,5.4c-5.2,3.7-10.4,7.4-15.6,11.2c-11.5,8.3-23.9,9.9-37.1,5c-4.7-1.7-9.3-3.9-14-5.7
		c-4.2-1.6-8.5-3.3-12.8-4.3c-12-2.5-22.7,0.3-29.7,10.7c-9.1,13.6-20.8,24.1-34.5,32.6c-2.7,1.7-5.1,3.9-7.4,6
		c-7.2,6.6-10.8,14.9-8.4,24.4c4.4,17.6,6.6,35.4,7.5,53.6c0.4,7.7,4.3,15.3,6.3,23c1.4,5.4,3.3,10.9,3.1,16.3
		c-0.5,20.5-18.8,34.3-39.4,29.7c-12.1-2.7-23-8.4-32.5-16.4C764.8,693.9,761.8,684.2,761.7,670.4z"/>
	<path class="st2" d="M1241.5,413c0.9-10.9,3.6-20.8,9.2-29.9c3.4-5.4,7.3-10.5,10.9-15.8c6.9-10.1,13.7-20.2,20.6-30.3
		c0.9-1.3,1.7-2.7,2.6-4c8.6-12.7,21.9-14.4,33.4-4.2c4.6,4,7.7,9.1,8.8,14.9c1.5,8.3,2.8,16.8,2.9,25.3c0.2,10.5,2.5,20.1,8.6,28.6
		c7.8,10.6,9.3,22.4,7.5,35c-0.4,3.2-0.9,6.3-1.5,9.5c-2.1,12.1,1.7,22,10.5,30.3c2.3,2.2,4.7,4.4,7.2,6.3
		c11.7,8.6,21.3,19.2,29.1,31.5c4.4,7,9.1,13.8,13.5,20.7c4.2,6.7,6.4,14,6,22c-0.1,1.9,0,3.7,0.1,5.6c0.3,7.7,4.1,13.1,11.1,16
		c6.1,2.6,12.4,4.9,18.6,7.4c10.2,4,18.3,10.3,24.8,19.3c10.3,14.2,21.7,27.6,29,43.9c2.2,4.9,6.3,7.9,11.3,9.5
		c5.1,1.6,10.2,3.2,15.3,4.5c23.2,5.9,31.2,38.7,16.2,57.2c-9.7,12-29.3,10.9-38.1-1.8c-5.3-7.6-7.6-16.3-8.7-25.4
		c-0.7-5.5-1.6-11.1-2.6-16.5c-1.5-7.4-6.1-11.5-13.5-12.7c-14.2-2.2-28.4-4.4-42.6-6.7c-9.5-1.5-18.9-3.1-28.4-4.7
		c-2.6-0.4-5.2-1-7.8-1.5c-15.4-2.9-24.5-12-26.8-27.7c-0.3-1.8-0.7-3.7-1.3-5.4c-2.5-7.8-7.2-10.1-14.7-6.7
		c-4.1,1.9-7.6,4.9-11.5,7.2c-4.8,2.8-9.5,6.1-14.7,7.8c-12.8,4.3-25.1-0.1-33.3-11c-4.9-6.5-8.3-13.8-9.3-21.8
		c-1.1-9-1.8-18-2.1-27c-0.7-20.7-0.7-41.5-3.7-62.1c-2.2-15.2-7.7-28.7-17.2-40.6c-6.2-7.8-11.3-16.2-14.5-25.6
		C1244.3,427,1243.1,419.9,1241.5,413z"/>
	<path class="st2" d="M1724.6,735.8c-0.5,5.6-0.8,11.2-1.6,16.7c-2,14.1-7.6,26.7-17.9,36.7c-12.2,11.8-18.4,26.1-22.1,42.5
		c-5.9,26.6-15.6,52-29.7,75.5c-6.2,10.3-11.6,20.9-14.5,32.7c-1,3.8-2.8,7.5-4.9,10.9c-4.1,6.7-10.5,9.6-18.2,9.6
		c-7,0-12.3-3.2-15-9.9c-1.6-3.9-2.7-8.1-4.3-12c-4.3-10.8-12.4-15.2-23.6-12c-5.3,1.5-10.5,4.1-14.9,7.4
		c-6.2,4.6-11.5,10.2-17.4,15.3c-3.8,3.3-7.6,6.8-11.8,9.5c-8.9,5.6-18,4.3-25.4-3.2c-4.9-4.9-7.5-11-8.3-17.8
		c-1.8-15.2,2-29.1,10.5-41.7c4.2-6.2,10.1-10.2,17.3-12.2c6.9-2,13.9-3.7,20.8-5.7c8.1-2.3,15.3-6.2,21-12.5
		c8.1-9,9.3-19.1,2.8-29.3c-3.1-4.9-6.8-9.6-10.7-13.9c-12.5-14-13.3-29.6-6.3-46.2c7.6-18.1,19.4-32.1,38.2-39.8
		c21.2-8.6,39.7-21.6,56.8-36.7c3.8-3.3,7.7-6.6,11.8-9.5c11.8-8.2,24.7-10.7,38.8-7c13.3,3.5,22.2,11.7,25.3,25
		c2.1,9,2.8,18.3,4.1,27.5C1725.3,735.7,1724.9,735.8,1724.6,735.8z"/>
	<path class="st2" d="M1872.7,1169.3c-0.8,5-0.9,11.9-2.9,18.1c-5.6,17.5-11.6,34.9-18.3,51.9c-6,15.4-18.2,23.8-34.5,26.3
		c-11,1.7-21.2-0.8-30.5-6.7c-4.7-3-9.1-6.5-13.6-9.8c-7.2-5.4-14.5-6.6-23.2-3.3c-15.8,6-32.2,7.3-48.6,2.9
		c-4.3-1.2-8.6-3-12.3-5.5c-8-5.4-14.6-12.4-19.7-20.7c-4.2-6.7-6.4-14-6.3-22c0.1-4.5,0.2-9.1,0.7-13.5c2.7-22.8,0.4-45.1-4.6-67.4
		c-1.5-6.7-2.6-13.6-2.9-20.5c-0.5-11.3,4.2-20.7,13-27.9c9.2-7.5,19.7-12.8,31.3-15.4c5.6-1.2,11.7-1,17.4-0.3
		c9.8,1.3,16.5,6.8,19.7,16.4c1.9,5.8,3.7,11.7,6.1,17.3c6.2,14.7,17.8,21.5,33.7,19.9c4.5-0.4,9-1.3,13.4-1.9
		c14.1-2,27.6-0.7,40.1,6.7c5.3,3.1,10.8,5.9,16.3,8.4c14.8,6.6,22.2,18.5,24.5,34C1872.2,1160.2,1872.3,1164,1872.7,1169.3z"/>
	<path class="st2" d="M1258.2,1050.6c-26.2,1.7-66.6-14.1-77-40c-4.6-11.6-7.6-30.9,1.9-41c9.6-10.2,28.8-10.1,40.6-17.4
		c13.7-8.4,21.4-23.5,35.5-31.2c15.5-8.5,37.7-9.4,54.5-5.4c26.5,6.3,39.4,25.4,42.3,51.6c1.8,15.8-0.9,31.7,8,45.8
		c8.2,12.9,22.8,19.6,29.5,33.9c16.8,35.8-12.5,51.1-35.8,71.1c-23.4,20.1-62.9,28.7-74.3-10.1
		C1275.7,1081.6,1302.9,1046.9,1258.2,1050.6z"/>
	<path class="st2" d="M405.1,1046.6c0.3-11.7,3.5-20.7,9-28.7c15.3-22.3,34.8-38.6,61.8-44.8c13-3,24.3-9.3,33.5-19.2
		c6.6-7.1,14.6-12.3,23.5-16.2c14.7-6.4,29.6-12.3,45.7-13.7c8.1-0.7,16.4,0.1,24.5,1.2c9,1.3,16.3,6.3,21.9,13.5
		c6.8,8.7,12.5,17.9,14.2,29.1c2.3,15.2-3.5,24-18.3,27.6c-2.6,0.6-5.2,1.2-7.8,1.8c-10.7,2.4-19.2,8-24.4,17.8
		c-10.2,19-25.8,32.3-44.1,42.8c-3.9,2.2-7.9,4.5-11.8,6.8c-11,6.5-16.8,16.3-17.1,28.9c-0.2,6.9,1.1,13.7,1.6,20.6
		c0.3,4,0.8,8,0.4,11.9c-0.8,7.1-5.1,11.5-12.1,13.1c-8.7,1.9-17,1-24.6-3.8c-10.4-6.6-20.1-14.2-27.1-24.5
		c-8.5-12.5-18.7-23.1-31.1-31.7C411,1070.8,405.5,1059,405.1,1046.6z"/>
	<path class="st2" d="M1510.5,1560c12.4,0.7,23.5,4,33.1,11.4c11.4,8.7,24.1,14.1,38.1,17.6c20.4,5,28.9,20.5,22.6,40.8
		c-1.8,5.7-5.1,11.2-8.7,16c-5.1,6.8-11.1,12.9-16.9,19.1c-5.9,6.3-11,13-14.4,20.9c-5.6,12.8-14.5,22.8-25.7,30.9
		c-8.2,5.9-16.4,11.9-24.9,17.4c-4.9,3.2-10.1,6-15.6,8c-19.5,7.2-38.3-4-41.6-24.6c-2-12.2,0-24,6-34.8c4.7-8.3,10.3-16.1,15.7-24
		c4.3-6.3,7.6-12.7,7.6-20.6c0-6.6-1.4-12.7-4.4-18.4c-2.6-5-5.4-9.8-7.8-14.9c-2-4.3-4.1-8.7-5.2-13.3c-3.2-12.1,1.5-21.3,13.5-25
		C1491.2,1563.7,1501,1562.2,1510.5,1560z"/>
	<path class="st2" d="M1701.5,201.8c0.2,18.6-9.2,36.5-23.4,52c-3.6,3.9-9,6.5-14,8.7c-4,1.8-8.7,2.6-13.2,2.9
		c-14.8,1-26.2,7.8-35.2,19.3c-2,2.5-4.2,4.8-6.4,7.1c-5.5,5.6-12.3,8.2-20.1,8.5c-8.7,0.3-15.5-3.1-19.9-10.7
		c-4.4-7.5-6.2-15.7-7-24.3c-1.3-14.8-2.6-29.6-4.3-44.4c-1.6-13.8,1.5-26.3,8.6-38.1c13.9-23.2,57.1-49.2,94.9-36.8
		c1.5,0.5,3,1,4.5,1.5C1692.1,156.9,1701.8,171,1701.5,201.8z"/>
	<path class="st2" d="M1847.9,524.5c2.9,17.4-4,33.2-19.5,45.5c-10.1,8-16.7,18.4-21.1,30.4c-2.4,6.8-5.3,13.4-8.5,19.8
		c-2.1,4.2-4.7,8.4-7.9,11.9c-11,12.2-27.6,14.4-41.2,5.3c-10.1-6.8-17.4-15.4-17.8-28.6c-0.3-10.4-1.7-20.7-2.1-31.1
		c-0.2-4.4,0.5-9.1,1.6-13.4c2.2-8.2,7-11.1,15.6-10c3.7,0.5,7.3,1.6,11,2.2c4.7,0.8,9.5,1.7,14.2,1.8c8.5,0.3,15.3-3.6,18.8-11.2
		c2.8-6.2,4.4-13,5.7-19.8c1.2-6.2,1.4-12.7,2.1-19c0.8-7.2,2.8-14.1,6.9-20.2c4.9-7.3,11.4-11.8,20.5-11.8
		c8.9,0,14.8,3.9,17.3,12.5c1.5,5.3,2.2,10.9,2.9,16.5C1847.1,511,1847.3,516.6,1847.9,524.5z"/>
	<path class="st2" d="M1491.7,144.6c-0.5,7.9-1.1,13.2-1.2,18.5c-0.2,22.1-11.3,37.8-29.4,49c-13.7,8.4-28.7,12.5-45,10.8
		c-25-2.6-40-24.2-33.9-48.6c3.1-12.3,9.7-22.4,19.5-30.3c1.9-1.5,3.7-3,5.8-4.2c15.9-8.8,30.7-19.1,42.9-32.8
		c1.6-1.7,3.7-3.1,5.7-4.4c12.3-7.9,25.9-4.2,31.7,9.3c2.3,5.2,3.1,11.2,3.6,17C1492.2,134.9,1491.7,141.1,1491.7,144.6z"/>
	<path class="st2" d="M1882.8,908.7c0,9.8-1.9,18-6.3,25.5c-7.6,13.1-21.1,18.3-35.5,13.7c-11.9-3.8-21.7-11.1-30.5-19.8
		c-10.6-10.5-20.9-21.2-31.8-31.3c-15.5-14.3-18-37-4.1-55.6c9.5-12.6,24.6-16.8,39.1-10.5c4.3,1.9,8.3,4.7,12.2,7.4
		c9.6,6.6,18.8,14,28.7,20.1C1874.2,870.1,1881.6,888.1,1882.8,908.7z"/>
	<path class="st2" d="M1382.6,743.4c15.3,0,27.8,3.3,39.5,9.4c16.7,8.8,22.1,24.3,23.9,41.6c0.5,4.7-0.1,9.6-1.2,14.2
		c-2.8,12.2-10.3,20.6-22.6,23.1c-7.7,1.6-15.9,2.3-23.7,1.6c-15-1.4-29-6.6-41.5-15.1c-13.5-9.2-18.8-22.4-14.5-38.1
		c2-7.4,5.4-14.4,8.7-21.3c4.1-8.6,11.1-13.4,20.6-14.4C1376.1,743.9,1380.3,743.6,1382.6,743.4z"/>
	<path class="st2" d="M1104.1,551.8c7,0.2,17.9,2.7,28.5,6.3c11.6,4,17.8,12.4,19,24.2c1.9,19.3-4.9,35.7-19.1,48.5
		c-11.7,10.6-30.9,10-45.1-0.2c-16.7-11.9-25.5-37.1-20-56.8C1071.7,558.6,1082.2,551.5,1104.1,551.8z"/>
	<path class="st2" d="M1599.3,636c-5.5-0.8-11.2-1.1-16.5-2.6c-14.5-4-18.4-19.4-7.5-29.9c3.1-3,7.4-5.5,11.5-6.7
		c7.9-2.3,16-4.3,24.1-4.9c15-1.1,28.6-5.3,40.7-14.5c7.4-5.7,16-8.4,25.4-8.1c9.5,0.4,15.5,5.3,17.2,14.7c1.7,9.7-1,17.9-9.1,24
		c-0.2,0.2-0.4,0.3-0.7,0.5c-26.3,13-52.6,25.7-82.7,27.1c-0.8,0-1.6,0-2.4,0C1599.3,635.7,1599.3,635.8,1599.3,636z"/>
	<path class="st2" d="M712.6,1858.7c-1.3,3.7-2,7.8-4,11c-5.7,9.2-17.2,10-24.2,1.8c-2.7-3.2-4.9-6.9-7.1-10.6
		c-3.9-6.7-9.4-10.5-17.2-11.3c-5.5-0.6-11.1-1.4-16.5-2.8c-18.4-4.6-27.3-22.4-19.8-39.8c5.8-13.4,16.3-21.4,30.5-24.4
		c9.5-2,16.7,1.3,21.5,9.8c1.9,3.4,3.3,7.3,4.2,11.1c1.6,6.2,2.8,12.5,3.8,18.7c1.4,8.3,5.6,14.2,13.5,17.4c2,0.8,3.8,1.9,5.7,2.9
		C709,1846.1,711.7,1851.5,712.6,1858.7z"/>
	<path class="st2" d="M931.9,63.5c-5.8-0.9-11.5-1.8-17.3-2.8c-3.7-0.6-7.3-1.4-11-1.9c-6.3-0.8-11.4,1.3-15.6,6.1
		c-4.1,4.9-8.2,9.8-12.8,14.2c-14.4,13.8-28.2,10-34.3-9.1c-2.7-8.6-1.6-16.8,2.7-24.6c3.2-5.7,7.8-8.6,14.4-7.5
		c4.5,0.7,8.9,1.3,13.4,2.1c6.9,1.3,13-0.1,19.1-3.6c4.8-2.8,9.9-5.2,15.1-7c7.2-2.5,14.4-1.6,20.5,3c6.5,4.9,12.9,10.3,18.7,16.1
		c5.5,5.5,3.8,10.9-3.5,13.3C938.3,62.8,935.1,63,931.9,63.5z"/>
	<path class="st2" d="M207,1009.3c-0.1,14.7-10.7,23.6-25.2,21.2c-17.5-2.9-33.9-21.5-34.4-39c-0.5-16,9.9-25.4,25.9-23.3
		C192.7,970.8,207.2,988.4,207,1009.3z"/>
	<path class="st2" d="M317.2,1775.9c0-20.8,15-37.4,32.9-38.2c18.1-0.8,30.1,13,25.6,30.5c-4.3,16.4-15.3,27.1-31.7,31.7
		c-7.9,2.2-14.7-0.3-20.1-6.5C319.3,1787.9,317.3,1781.5,317.2,1775.9z"/>
	<path class="st2" d="M1499,1383.7c0.8-2.9,2-9,4.2-14.5c2.6-6.6,8.3-9.6,15.2-9.6c9.5-0.1,17.2,4,22.3,11.8
		c6.6,10.1,8.4,21.2,4.8,32.9c-2.8,9.2-9.2,14.8-18.9,16.1c-9.3,1.2-15.8-3.5-20.7-10.8C1501.5,1402.6,1499.4,1395,1499,1383.7z"/>
	<path class="st2" d="M82.4,1180.7c-17.3-0.5-35.2-16.9-37-32.6c-0.9-7.4,2-12.3,8.9-15.1c13.2-5.4,33.5,0.1,41.9,11.5
		c6,8.2,6.6,17.2,2.5,26.4C95.2,1178.4,88.7,1180.7,82.4,1180.7z"/>
	<path class="st2" d="M1834.1,1077.1c-12.4,0.1-20-6.3-22.1-18.5c-3.3-19.8,14.1-35.8,33.5-30.6c10.6,2.8,15.2,11,17.3,20.9
		c2,9.7-2,17.1-9.9,22.7C1847.3,1075.6,1840.9,1076.9,1834.1,1077.1z"/>
	<path class="st2" d="M1343.7,714.5c-0.2,1.6-0.2,3.5-0.6,5.3c-1.6,8.4-6.4,12.2-14.7,10.6c-14.4-2.7-25.4-10.6-32.1-23.7
		c-5.1-10-2.5-21.2,5.3-26.5c8.8-5.9,22.1-4.8,29.2,3.1C1338.6,692.1,1343.4,702.3,1343.7,714.5z"/>
	<path class="st2" d="M221.7,806.8c-5.7,0.2-12.3-5.6-12.4-11.1c-0.1-4,2.9-6.8,7.8-7.1c6.6-0.3,12.2,3.8,12.6,9.3
		C230,802.7,226.5,806.6,221.7,806.8z"/>
	<path class="st2" d="M1012.2,1284.9c46.3-6.2,98.5,63.3,134.1,46.7c45.1-21-26-64.5,1.5-101.7c69.3-93.7,155.3,89.2,181.9,118.5
		c28.7,31.5,94.4,19.6,118.9,50.6c16.6,21,4.7,65.8-24.3,79.2c-49.4,22.9-89.9-45.8-137.9-38.8c-49.7,7.3-30.4,44.8-71.4,63
		c-18.8,8.3-34-1.2-51.2,1.7c-22.7,3.8-34.8,11.3-55.5,18.1c-38.2,12.5-80.1,14.8-83.2,50.9c-1,11.6,23.1,27.2,22.4,43
		c-1.3,32.3-20.8,39.9-48,48.7c-25.7,8.3-117.2,4.1-138.2-9.6c-56.8-37.1,36.5-58.1,41-95.7c4.4-36.3-62.3-69.7-6.4-105.8
		c45.4-29.3,63.3,18.5,53.5-48.6C940.1,1341.8,928.5,1301.9,1012.2,1284.9z"/>
</g>
<g>
	<path class="st3" d="M1999.3,1000.3c-3.5,2.8-7,5.7-10.5,8.5c-16.3,13.3-37.8,11.8-51-4.5c-6.5-8-12.2-16.8-17.2-25.8
		c-7.8-14.2-5.4-26.8,7.1-37c7.1-5.8,15.4-10.3,23.5-14.8c8.4-4.6,14.6-10.8,16.6-20.2c3.6-17.2,14.4-25.9,31.4-27.7
		C1999.3,919.4,1999.3,959.9,1999.3,1000.3z"/>
	<path class="st3" d="M1465.5-22.6c-2.3,14.6-9.2,24.7-23.4,31.4c-19.7,9.3-39.8,15.5-61.2,19c-18.6,3-28.4-0.8-38.2-16.6
		c-3.8-6.1-8.6-11.5-12-17.8c-2.7-4.9-3.9-10.7-5.8-16.1C1371.7-22.6,1418.6-22.6,1465.5-22.6z"/>
	<path class="st3" d="M645.5-22.6c2.8,6.3,5.8,12.5,8.3,19c2.6,6.9,0,12.1-6.4,15.2c-13.2,6.4-26.5,6.6-38.6-2.1
		c-11.2-8-19.8-18.5-24-32C605-22.6,625.3-22.6,645.5-22.6z"/>
	<path class="st3" d="M1989.7-22.6c-7.6,17.4-33.3,31.5-51.8,28.2c-8.9-1.6-14.7-7-17.7-15.3c-1.5-4.2-2.6-8.6-4-12.9
		C1940.7-22.6,1965.2-22.6,1989.7-22.6z"/>
	<path class="st3" d="M1999.3,720.6c-5.6-1.6-11.5-2.5-16.8-4.8c-16.6-7.1-21.1-23-11.4-38.2c6.7-10.5,16.5-16.3,28.3-19.4
		C1999.3,679.1,1999.3,699.9,1999.3,720.6z"/>
	<path class="st3" d="M1999.3,228.4c-9.8,0-15.9-5.3-18.8-14.2c-2.2-6.8-4.1-13.7-5.6-20.7c-3.3-15.4,3.5-25.5,19.1-29
		c1.8-0.4,3.5-1.1,5.3-1.6C1999.3,184.7,1999.3,206.5,1999.3,228.4z"/>
	<path class="st3" d="M1994.5,2023.3c1.6-2.1,3.2-4.3,4.8-6.4C1999.2,2020.1,2000.9,2024.8,1994.5,2023.3z"/>
	<path class="st3" d="M1462.7,1162.1c-25.2-6.1-40.6-18.9-58.4-25.2c-22.2-7.9-42.5-4.9-65.4-11.8c-57.4-17.4-84.9-55.2-65.3-109.8
		c12.8-35.7,34.2-74.5,67.9-49.7c22.2,16.3,30.1,79.6,42.8,102.9c25.1,46.2,87.6,43.9,106,8s43.5-103.9,67.1-73.5
		c23.6,30.4-20.3,95.7-29.5,105.8c-9.2,10.1-13.4,19.7-21.8,29.6S1487.9,1168.2,1462.7,1162.1z"/>
	<path class="st3" d="M355,1027.6c-15.6-3.1-30.7-6.9-46.4-1.6c-16.9,5.8-25.5,23.4-41.2,29.8c-14.1,5.8-28.3-0.2-42.8,3.1
		c-15,3.4-28.2,14.8-44.8,15.4c-23.8,0.9-71.1-33.6-71.6-60.5c-0.3-14.6,17.5-32.1,27.6-41.2c9.8-8.8,26.4-26.2,36.3-32.1
		c23.5-14,51.1,16.7,74.2,25.8c14.7,5.8,31.6,10.4,44.3,1.6c11.5-8,9.1-21.2,26.5-19.8c14.1,1.2,19.1,17,30.5,22.2
		c14.3,6.6,21.8-4.8,35-2.2C414.4,974.4,375.5,1027.8,355,1027.6z"/>
	<path class="st3" d="M250.6,1596.7c15.3,0.3,28.6,5.2,36.5,19c5.9,10.3,10.3,21.4,15,32.3c3.8,8.8,6.5,18,10.4,26.6
		c7.7,16.7,5.1,24.9-11.4,32.5c-15.8,7.3-16.8,11.2-6.8,25.8c4.2,6.1,7.8,12.7,12.4,18.6c13.5,17.4,9,35.1,1.4,52.8
		c-3.3,7.8-10.6,6.6-17.4,5.5c-12.6-2.1-25.1-4.8-37.8-6.2c-8.4-0.9-17-0.9-25.4,0c-14.1,1.6-25.7-1.7-34.9-13
		c-4.7-5.7-10.4-10.7-15.5-16.1c-2.9-3.1-6.1-6.1-8.2-9.7c-8-13.4-1.8-28.4,13.4-31.7c7-1.5,14.4-0.8,21.4-2
		c6.5-1.1,13.2-2.4,19-5.2c9.9-4.9,10.1-12.1,1-18.1c-8-5.3-16.7-9.4-24.8-14.6c-18.7-11.8-22.7-32.3-10.3-50.5
		c1.5-2.2,3.1-4.4,4.9-6.3c9.3-9.6,18.5-19.2,28-28.5C229.6,1600.2,239.4,1596.4,250.6,1596.7z"/>
	<path class="st3" d="M837.8,481c-13.9,0-16.8-3.2-15.6-13.3c1.2-9.6,2.6-19.3,3.9-28.8c1.2-8.5,6.1-13.3,14.6-14.6
		c4.7-0.7,9.5-0.9,14.1-1.8c4.2-0.7,8.6-1.4,12.4-2.9c13-5.1,15.2-9.9,10.3-22.9c-4.5-11.7-1.9-21.6,4-32.1c12-21.4,29.5-36,51.6-46
		c11.4-5.2,22.7-7.1,34.7-2c9.1,3.9,17.8,3,26.9-0.4c5.8-2.1,12.2-3.3,18.3-3.3c2.9,0,7.2,3.3,8.4,6.1c6.2,15.4-1.3,36.6-16.1,44
		c-20.5,10.4-35.2,26.4-47,45.5c-4.8,7.7-11.5,12.1-20.1,13.6c-7.1,1.3-14.3,2.7-21.4,2.6c-13.2-0.1-22.3,5.9-28.8,16.9
		c-2.4,4.1-5,8-7.2,12.3C871.2,473.5,855.3,481.8,837.8,481z"/>
	<path class="st3" d="M508.9,562c-7.3-6.8-8.9-18.4-3.9-26.6c1.4-2.3,2.9-4.4,4.5-6.4c3.4-4.6,5.2-9.6,4.9-15.5
		c-0.2-3.9,0.6-7.8,1.5-11.6c1.7-7,0.8-13.1-3.3-19.1c-9.3-13.4-6.2-21,9.4-26.2c5-1.7,9.9-5.2,13.5-9c6.7-7.1,13.6-13.4,23.7-15.6
		c3.8-0.8,7.1-3.9,10.4-6.3c3.6-2.6,7-4.9,11.6-2.7c4.7,2.2,7.2,6.1,7,10.9c-0.3,6.1-1.5,12.3-2.8,18.3c-1.5,6.8-4,13.5-5.4,20.3
		c-1.7,8-5.8,13.8-13.2,17.1c-2.3,1-4.4,2.1-6.7,3c-7.9,3.2-11.3,9.1-11.6,17.5c-0.1,3.9-1.4,8-3.2,11.5c-3.1,5.7-4.8,11.4-3.5,17.8
		c1.6,8.5-1.9,14.7-9.1,18.9c-3.7,2.1-7.5,4-11.4,5.7C516.4,566.2,512.1,565.1,508.9,562z"/>
	<path class="st3" d="M762.6,820.9c-0.5,6.3-0.9,12.5-1.5,18.8c-0.5,5.7-3.4,10-8.4,12.6c-6,3.2-9.8,8.3-14,13.5
		c-4.9,6.3-10.8,11.9-17,16.9c-4.7,3.8-10.4,3.1-15.7-0.1c-7.8-4.9-11.5-13.6-9.8-23.1c0.4-2,0.7-4.1,1.3-6
		c3.1-10.1-1.2-17.3-9.1-23c-2.4-1.7-4.9-3.1-7.5-4.6c-1.3-0.8-2.6-1.4-3.8-2.2c-3.6-2.3-5.3-5.7-4.1-9.8c1.2-4.1,5.1-4.6,8.6-4.6
		c4.4,0,8.7,0.3,13.1,0.6c8.6,0.6,16.4-1.3,23.6-6.4c3.5-2.5,7.6-4.8,11.8-5.7c11.5-2.6,21,2.5,28.7,10.3c2.8,2.8,3.1,8.2,4.5,12.4
		C763.2,820.7,762.9,820.8,762.6,820.9z"/>
	<path class="st3" d="M166.7,407c-2.9-0.6-8.1-1.5-13.3-2.6c-9.6-2-17.2,0.5-24.5,7.6c-11,10.7-22.7,20.9-35,30.1
		c-17.5,13.1-34.4,8.2-40.3-12.7c-4.8-16.9-14.2-26.7-30.8-30.7c-2.7-0.7-5.3-2.5-7.5-4.4c-6.4-5.6-6-13,1.8-15.8
		c14.6-5.2,20.7-16,24.5-29.9c4.1-15.1,16.8-18.8,29.9-10c15.2,10.4,17.8,10.3,33.1-0.5c13.7-9.7,28-17.3,45.7-15.6
		c17.1,1.6,25,8.9,28.7,25.7c1.5,6.9,4.9,13.3,7.6,19.9c0.7,1.7,2,3.1,2.9,4.8C199.5,391.2,189.9,407.3,166.7,407z"/>
	<path class="st3" d="M1763.3,215.8c2.8-4,5.2-10.2,9.8-13.6c9.3-7,15-14.8,16.3-26.8c1.7-14.5,17.9-24,33-19.5
		c15.8,4.7,29.1,13.2,38.9,27.4c5.3,7.8,13.7,13.6,21.2,19.7c12.8,10.4,26.9,19.3,38.5,30.7c5.1,5,7.4,14.8,7.6,22.4
		c0.3,15.5-13.8,23.6-27.9,17c-7.2-3.3-14.1-4.8-21.4-0.8c-9,5-17.5,2.6-25.7-2.1c-3.7-2.1-7-4.9-10.5-7.3
		c-8.3-5.6-16.5-6.7-24.9,0.1c-7.5,6-15.3,5.5-23.9,1.2C1775.1,254.8,1768.3,237.6,1763.3,215.8z"/>
	<path class="st3" d="M64.3,180.1c-8-1.7-16.3-2.7-24-5.2c-18.8-6.2-22.6-27.8-7.5-40.9c2.8-2.4,6.3-4,9.1-6.4
		c5.6-4.8,12.1-9.1,16.3-15c9.3-13,21.8-19.6,37-20.9c12.8-1.1,19.3-7.7,24.6-19.1c4.9-10.8,12.5-21,20.8-29.6
		c10.6-10.9,27.2-9.4,35.4,3.3c6.1,9.4,10.2,20.4,13.2,31.2c2.8,10.3-0.9,20-8.4,27.8c-2.2,2.3-4.2,5-6.7,6.8
		c-20.5,14.1-36.9,33.9-60.5,43.9c-4.1,1.7-7.7,4.8-11,7.8C89.2,175.8,82.5,178.6,64.3,180.1z"/>
	<path class="st3" d="M1293.4,1568.8c-36.6,2.8-54.4-26.9-59.6-51.9c-1.4-6.5,2.3-15.1,5.9-21.5c5.7-10,15.7-15.5,26.3-19.8
		c11.3-4.6,22.6-9.3,33.6-14.5c17.8-8.4,42.2,1.3,47.5,20.3c1.7,6.1-0.3,13.4-1.4,20c-1.3,7.5-5.7,15-5,22.2
		c2.6,27.3-18.2,43.8-43.6,45.2C1295.4,1568.8,1293.8,1568.8,1293.4,1568.8z"/>
	<path class="st3" d="M1087.7,665.6c13.2-63,48.8,37.7,87.9,38c15.7,0.1,29.4-23.6,44.6-22.3c5.7,0.5,45.4,25.6,45.2,34.2
		c-0.3,13.1-47.4,24.7-57.1,29.4c-24.6,11.8-19.5,25.6-47.3,15.3C1134.5,750.5,1090.1,694.7,1087.7,665.6z"/>
	<path class="st3" d="M285.5,277.8c-6.9-3.5-14.3-6.4-20.7-10.7c-9.9-6.7-19.7-13.8-28.4-22c-13.9-13.1-27.1-26.6-44.1-36.2
		c-4.8-2.7-8-9.3-10.4-14.7c-3.4-7.8-2.5-15.7,3.5-22.3c15.1-16.5,40.3-17.2,55.1-0.6c8.7,9.8,18.6,14.4,31.4,13.9
		c12.5-0.5,20.8,5.8,25,17.3c4.7,13.2,9.9,26.4,12.8,40c1.4,6.4-1.3,14.2-3.6,20.8C302.9,272.6,296.5,276.1,285.5,277.8z"/>
	<path class="st3" d="M1203.8,1949.1c-12.9-3.5-23,0.4-33,6.4c-17,10.2-30.9,7-41.7-9.7c-3.7-5.7-6.3-12.4-7.8-18.9
		c-2.8-12.5,2.8-21.7,15.3-24.6c12-2.8,19.8-9.7,27.1-19.3c6.8-9,15.2-17.2,24.3-23.9c12-8.8,20.7-6,29.9,5.6
		c5,6.3,11.5,11.6,18.1,16.4c11,7.9,14.5,14.2,7.7,25.5c-8.4,13.9-19.4,26.4-29.9,38.9C1211.6,1948.1,1206.6,1948.2,1203.8,1949.1z"
		/>
	<path class="st3" d="M428.4,1771.4c-1.2-26.2,63.2,17.7,70.3,32.7c9.2,19.4,4.9,31.5,1,49.3c-0.9,4.3-14,38.8-17,44
		c-9.2,16.5-24.1,37.8-37.8,12.1c-7.6-14.1,9.1-32.6,6.4-49.2C445.9,1826.8,430.2,1808.2,428.4,1771.4z"/>
	<path class="st3" d="M17.3,1219.8c9.5-0.4,18.1,4.7,25.3,13.7c6.3,7.8,13.3,15.1,20.8,21.7c8.9,7.9,13.5,17.3,14.6,29
		c0.9,9.7,1.7,19.9,5.4,28.7c6.1,14.8-6.4,33.6-20,37.2c-11,2.8-21.6,1.5-30.5-4.8c-4.3-3-8.2-9.9-8.2-15.1
		c-0.4-22-11.5-39.4-22.1-57.2c-4.2-7-8.9-14.1-11.3-21.8C-15.1,1231.7-5.5,1219.7,17.3,1219.8z"/>
	<path class="st3" d="M1369,1298.6c1.6-3,3.1-10,7.5-13.6c15.3-12.5,24.5-29.2,34.9-45.3c2.2-3.4,4.3-6.7,6.7-9.9
		c9.3-12.2,19-12.9,31.6-4.4c9.8,6.6,20.7,11.7,31.4,16.9c9.1,4.4,10.7,7,8,16.8c-4.3,15.8-15.7,28-29.4,27.1
		c-20.3-1.2-32.6,10.2-44.6,23.4c-2.5,2.7-4.8,5.8-7.4,8.4c-7.1,7.2-15.2,12.4-25.6,7.9C1371.8,1321.5,1370,1311.9,1369,1298.6z"/>
	<path class="st3" d="M1253.6,1785.1c0-15.1-1.1-25.6,0.3-35.7c1.4-10,4.7-20,8.7-29.3c1.3-2.9,7.4-5.2,11.3-5.4
		c14-0.4,23.8-6.2,30-18.7c2.1-4.2,4.5-9.1,8.2-11.6c3.9-2.7,10.3-5.1,14-3.6s8.3,8.6,7.5,12.2c-3.2,15.1-5.1,30.8-14.9,44
		c-4,5.4-6.3,12.8-7,19.5c-1.1,9.7,0.3,19.7-0.2,29.5c-1.2,22.9-16.5,31.8-37.6,22.5C1261.6,1803,1252.1,1795.8,1253.6,1785.1z"/>
	<path class="st3" d="M155,1872.1c19.3-0.1,30.8,10.2,34.7,31.3c4,21.6,1.9,41.2-16,56.8c-3.9,3.4-5.9,9.3-8.3,14.3
		c-5.9,12.3-14.6,13.9-24.6,4.7c-5.8-5.4-12.2-10.3-18.3-15.4c-7.1-6.1-8.2-11.4-2.3-18.5c8.6-10.5,10-21.7,5.8-34.4
		C116.3,1881.9,136.1,1873.4,155,1872.1z"/>
	<path class="st3" d="M1264.1,248.9c-29.9-1.6-51.9-36-39.8-62c4-8.6,7.7-17.5,11-26.5c4.3-11.8,9.8-16.3,18.6-14.4
		c9.8,2.1,16.6,12.3,15.4,23.1c-0.2,1.8-0.4,3.7-1,5.5c-3.1,9-0.4,16.5,6.4,22.3c13.8,11.8,15,21.7,3,42.6
		C1275.1,243.8,1268.7,245.8,1264.1,248.9z"/>
	<path class="st3" d="M742.8,1583.2c2.4,0,4.9,0.5,7.2-0.1c18.2-4.7,32.6,3.2,46.5,13.4c13,9.5,15.7,21.2,7.8,36.2
		c-6.5,12.4-19.8,17.7-33.3,12.5c-4.9-1.9-9.6-4.7-13.6-8.1c-10.7-9.1-21.1-18.8-31.5-28.2c-5.8-5.2-10-12.4-6.1-19
		c2.3-3.9,10.2-4.7,15.8-6.5c2.2-0.7,4.8-0.1,7.2-0.1C742.8,1583.3,742.8,1583.3,742.8,1583.2z"/>
	<path class="st3" d="M248.2,635c-0.9-9.8-1.8-19.5-2.7-29.3c-1.4-14.7,3.6-23.8,14.8-26.2c11.9-2.7,23.3,4.4,27.2,17.6
		c5,17.2,7.1,34.7-0.8,51.5c-3.3,7-8.3,13.9-14.2,18.6c-9.2,7.3-20,3.6-23.2-7.7c-2.2-7.7-2.1-16.1-3-24.2
		C246.9,635.2,247.6,635.1,248.2,635z"/>
	<path class="st3" d="M1054.4,1229.8c0.8-16.6,8.3-29.9,19-41.5c5.9-6.4,16.1-7.8,23.7-4.1c7.9,3.9,10.5,11.2,8.8,18.8
		c-2.8,12.9-3,25.6-2,38.7c0.9,10.9-9,20.8-20,22.5c-13.5,2-21.1-2.3-25.2-15C1056.6,1242.9,1055.7,1236.2,1054.4,1229.8z"/>
	<path class="st3" d="M183,518.9c-9.5-2.4-19.3-3.8-28.3-7.3c-13.5-5.1-21.9-19.5-20.7-32.8c0.9-9.4,6-14.3,15.2-13.4
		c11.1,1.1,22.2,2.3,33,4.8c11.6,2.8,19.3,11.1,23,22.4C210,507.8,201,518,183,518.9z"/>
	<path class="st3" d="M348.8,351.2c0.2-12,4.8-18.7,12.8-20.4c10.1-2,19.3,2.1,22.8,11.5c4.2,11.2,9,21.8,16.9,31.3
		c3.7,4.4,5,12.5,4.1,18.6c-2,14.3-16.7,20.1-28.5,11.6C358.7,390.5,351.2,371.3,348.8,351.2z"/>
	<path class="st3" d="M1460,1931.9c0-17.2,8.2-24.2,19.9-21.3c4.2,1.1,9,3.1,11.6,6.3c9.8,12,14.7,26.4,14.8,41.8
		c0.1,7.3-5.2,11.5-12.7,11.4c-9.4-0.1-17.8-3.9-22.3-11.7C1465.8,1948.7,1462.4,1937.8,1460,1931.9z"/>
	<path class="st3" d="M1660.5,221.7c0.2-18.9,14.3-34.3,30.3-33.1c11.4,0.9,17.6,7.9,16.2,19.1c-1.6,12.8-8.3,22.9-18.3,30.7
		c-5.7,4.5-12.4,4.6-18.8,1.3C1662.8,235.9,1660.3,229.4,1660.5,221.7z"/>
	<path class="st3" d="M1903.4,1681.2c-8.9-3.7-16.8-6.1-23.7-10.1c-6.6-3.8-8.3-10.8-6.9-18.2c1.6-8.3,16.4-22.4,24.7-22.5
		c3.2,0,7.4,2.5,9.6,5.2c4.1,5.1,7.1,11.2,10.6,16.8c3.6,5.9,6.9,12.7,1.9,18.4C1915.6,1675.4,1909.1,1677.7,1903.4,1681.2z"/>
	<path class="st3" d="M1234.2,1601.1c0.1,11.6-3,15.1-14.3,16.7c-7.4,1-14.7,3.1-22,3c-4.7,0-11.3-1.7-13.6-5.1
		c-2.4-3.5-2.6-10.7-0.6-14.7c5.5-11.2,15-18.5,27.8-20.2C1224.6,1579.1,1234.1,1587.7,1234.2,1601.1z"/>
	<path class="st3" d="M1509.4,810.1c-1.3,18.2-9.7,25.2-27.1,21.7c-2-0.4-4.1-1.3-5.6-2.6c-7.1-6.3-9-29.9-3.2-37.4
		c7.4-9.6,23.4-9.2,30,1.5C1506.4,798.2,1507.4,804.5,1509.4,810.1z"/>
	<path class="st3" d="M1352.1,166c0,0.4,0,1.5-0.1,2.6c-0.9,10-9.2,19.9-17.2,20.5c-8.4,0.6-18.6-8.1-20.9-17.9
		c-0.2-1-0.4-2.1-0.5-3.1c-1.7-14.7,6.5-27.2,18.4-28C1343.7,139.4,1352.1,149.8,1352.1,166z"/>
	<path class="st3" d="M1773.3,1707.5c6.3,2,12.7,3.4,18.7,6c10.3,4.5,13.9,12.5,10.6,21.7c-3,8.3-13.9,14.2-22.8,11.6
		c-10.1-3-17.9-9.5-22.3-19.1C1752.3,1716.3,1759.1,1708.2,1773.3,1707.5z"/>
	<path class="st3" d="M730.5,334c-0.3,14.4-8.2,25.1-18.4,24.8c-9.6-0.3-21.3-12.7-21.3-22.7c0-10.9,12.5-21.9,24.6-21.8
		C724.8,314.5,730.7,322.2,730.5,334z"/>
	<path class="st3" d="M538.5,1687.6c0.5-3.8,0.4-8.8,1.9-13.2c1.5-4.3,4.1-10.9,7.2-11.5c5-0.9,11.9,0.7,15.9,3.9
		c9.8,7.7,8.7,32.4-0.8,40.7c-8.7,7.6-20.9,3.4-23-7.9C539.1,1696,539,1692.2,538.5,1687.6z"/>
	<path class="st3" d="M301.3,1853.4c1.5-6.7,2.6-13.6,4.6-20.2c1.9-6.5,7.7-8.9,12.4-4.8c7.6,6.7,14.9,14.3,20.1,22.9
		c4.3,7-1.2,15.1-10.2,18.4C314.6,1874.7,301.9,1866.8,301.3,1853.4z"/>
	<path class="st3" d="M1630.8,1358.1c8.2,0.2,12.9,4.8,14.5,12.3c2.4,11.2,0.2,21.8-6.1,31.3c-4.4,6.7-9.5,6.8-13.8,0.2
		c-4.2-6.5-8.1-13.2-11.2-20.2C1609.3,1370.2,1618.1,1357.9,1630.8,1358.1z"/>
	<path class="st3" d="M1882.8,1419c5-5.4,8.1-11.3,12.9-13.5c6-2.8,7.7,4.1,10.4,8.3c2.8,4.4,6.1,8.5,9.8,12.2
		c6.9,6.9,8.4,14.5,3.3,19.5s-15.2,4.7-20.7-2.1C1893,1436.4,1888.7,1428.2,1882.8,1419z"/>
	<path class="st3" d="M149.7,581.7c4.1,0.9,8.7,0.9,12.3,2.8c3.4,1.8,7.6,5.3,8,8.5c0.4,3.7-2,8.8-4.8,11.6
		c-7.1,6.8-21.9,6.2-29.4-0.3c-8.1-6.9-6.2-17,3.8-20.4C142.7,582.7,146.2,582.4,149.7,581.7z"/>
	<path class="st3" d="M930.6,97.5c-0.2,1-0.3,3.7-1,6.2c-1.7,5.7-3.4,12-10.6,12.4c-7.3,0.5-12.7-3.6-16.1-9.9c-3.2-6-3-12.6,2-16.9
		c4.2-3.6,10-6.2,15.4-7.2C927.1,80.9,930.5,86.1,930.6,97.5z"/>
	<path class="st3" d="M677.6,688.7c-7.9,0-13.8-5.3-13.8-12.3c0-8.5,6.7-15.1,15.2-15c7.8,0.1,14.8,7.3,14.5,14.9
		C693.3,683.2,686.2,688.7,677.6,688.7z"/>
	<path class="st3" d="M1880.7,1354.7c0-9.5,7.3-17.1,16.4-16.9c6.7,0.1,9.5,3.7,9.6,10.1c0.1,9.6-7.9,21.8-14.2,21.6
		C1886.4,1369.4,1880.7,1362.1,1880.7,1354.7z"/>
	<path class="st3" d="M959,1792.9c-10.7-0.2-18.3-6.4-18.2-14.9c0-7.3,5.3-12.4,12.8-12.1c9.5,0.3,16.2,8.1,16,18.2
		C969.4,1791.3,965.1,1793.2,959,1792.9z"/>
	<path class="st3" d="M642.4,397.5c-9.4,0.1-19.2-9-19.9-18.4c-0.5-6.5,2.9-10,9.4-9.8c7.9,0.2,19.2,10.1,20.4,17.8
		C653.3,393.2,649.3,397.4,642.4,397.5z"/>
	<path class="st3" d="M554.8,1301.6c-1.1-13.9,5.5-44.6,24.9-47c17.7-2.2,26.2,17.4,26.9,31.6c0.7,13.1-9.3,39.6-23.9,43.4
		C571.6,1332.6,555.9,1315.6,554.8,1301.6z"/>
	<path class="st3" d="M415.7,470.6c0.1,9.7-3.7,15.1-10.4,14.9c-5.9-0.2-10.6-5.6-10.7-12.6c-0.2-8.4,5.5-15.6,12.5-15.8
		C412.8,457,415.7,461.4,415.7,470.6z"/>
	<path class="st3" d="M1623,964.9c8.5,0.3,17.4,8.4,16.1,13.3c-0.6,2.2-4.2,4.6-6.6,4.9c-6.3,0.6-15.6-7.1-14.6-12
		C1618.5,968.3,1621.9,966.2,1623,964.9z"/>
	<path class="st3" d="M510.1,841.3c-8.5-0.9-12.9-4.3-12.2-10.3c0.3-2.6,4.6-6.1,7.6-6.7c5.7-1.1,10.9,4.1,9.7,9.5
		C514.6,836.8,511.5,839.4,510.1,841.3z"/>
	<path class="st3" d="M1597.5,1048c4.1-3.5,6.2-6.9,8.8-7.2c5.4-0.8,7.9,3.6,7.2,8.1c-0.4,2.5-4.3,6.8-5.9,6.4
		C1604.5,1054.7,1601.9,1051.4,1597.5,1048z"/>
	<path class="st3" d="M565.7,623.4c-2.7-3.8-5-5.9-5.7-8.5c-0.3-1,3.3-4.6,4-4.3c2.5,1.1,5.2,2.9,6.4,5.2
		C570.9,616.8,568.1,619.6,565.7,623.4z"/>
</g>
<g>
	<path class="st4" d="M604.6-5.3c0.3,10,1.4,20,0.9,29.9c-0.4,8.3,2.6,13.6,10,16.9c9,3.9,17.3,8.9,24.2,16.2
		c9,9.4,13.7,20.8,15.5,33.2c1.9,12.6-4.1,20.2-17,21.3c-19.3,1.6-37.1-2.8-52.4-15.2c-3.1-2.5-5.9-5.3-8.8-8.2
		c-12.9-13.2-28.8-16.9-46.4-14.7c-9.3,1.2-16.6,6.3-21.9,13.9c-3.5,5.1-6.3,10.8-9.6,15.9c-3.6,5.6-6.8,11.5-11.3,16.4
		c-15.7,17.4-40.9,12.5-49.8-9.2c-6.8-16.4-3.2-34.3,9.4-46.8c2.5-2.5,5.3-4.7,8.2-6.8c1.9-1.5,3.9-2.9,6.2-4
		c24.8-12.2,42.1-32.2,57.1-54.6c1-1.5,2-2.9,3-4.4C549.5-5.3,577-5.3,604.6-5.3z M578.4,40.1c-2.9,0.5-6.3,0.8-9.4,1.8
		c-6.5,1.9-8.1,7.7-3.8,12.9c3.3,3.9,7.4,6.5,12.8,5.1c6-1.6,11.2-4.4,13-10.9c1.1-3.9-0.3-6.4-4.3-7.5
		C584.1,40.6,581.4,40.5,578.4,40.1z"/>
	<path class="st4" d="M-14.1,570.7c1.9-0.3,3.9-0.3,5.8-0.8c4.1-1.1,8.1-2.3,12.1-3.7c11-3.8,22.2-4.3,33.5-1.5
		c2.2,0.5,4.3,0.9,6.5,1.3c5.6,1.1,10.5-0.3,15-3.8c4.6-3.5,9.1-7.3,14.1-10c18.5-10.1,36.6-9.5,53.9,2.8
		c5.3,3.8,10.4,7.7,15.4,11.7c2.3,1.8,4.5,3.7,6.5,5.8c8.9,9.5,8.8,21.1-0.4,30.3c-6.6,6.6-14.7,10.9-23.4,13.9
		c-13.4,4.7-27,9-40.6,13.2c-10.9,3.4-20.7,1.7-28.7-6.8c-6.3-6.7-14.1-9.3-23-7.4c-15.9,3.3-31.4-0.3-46.8-3.6
		C-14.1,598.4-14.1,584.5-14.1,570.7z"/>
	<path class="st4" d="M-14.1,1778.7c9.8,1.1,19.8,1.2,29.2,3.6c17.3,4.3,25.3,16.9,23.2,34.8c-0.5,4.7-1.6,9.5-3.3,13.9
		c-3.8,9.9-8,19.7-12.2,29.5c-6.2,14.3-17,22.8-32.3,25.7c-1.6,0.3-3.1,0.8-4.6,1.2C-14.1,1851.1-14.1,1814.9-14.1,1778.7z"/>
	<path class="st4" d="M1910.3,4.5c2.4,7,4.7,14,7.1,21c2.3,6.6,2.1,13.1-1,19.3c-3.7,7.4-10.3,8.4-16,2.4c-2.9-3.1-5.4-6.6-7.7-10.1
		c-4.7-7.2-10.5-13.3-17.8-17.8c-6-3.7-10.8-8.5-14.1-14.7C1877.3,4.5,1893.8,4.5,1910.3,4.5z"/>
	<path class="st4" d="M230.5,4.5c-4.2,11.6-12.9,17.7-24.7,20c-15.9,3.1-27.3-3.8-32.9-20C192.1,4.5,211.3,4.5,230.5,4.5z"/>
	<path class="st4" d="M1176.5,91.4c-0.3,5.1-2.4,11.5-6.8,17.1c-6.5,8.2-17.9,7.6-23.5-1.3c-1.8-2.8-2.8-5.9-4.3-8.9
		c-1.8-4.1-3.9-7.9-7.2-11c-6.6-6.2-14-5.8-19.6,1.3c-1.8,2.3-3.3,5-4.6,7.7c-2.9,6.3-7.3,11.2-12.8,15.4c-0.9,0.7-1.8,1.4-2.8,2.1
		c-7.6,5.3-13.8,11.9-18,20.3c-5.1,10.1-13.7,15.7-24.5,18.4c-8.3,2-15.4-0.2-21.5-5.5c-6.8-5.9-11.9-13.1-15.1-21.5
		c-1.4-3.7-1.7-7.3-1-11.4c1-5.3,1.5-10.8,2.1-16.1c1.2-10.6,6.1-16.5,16.4-19.4c2.8-0.8,5.6-1.2,8.3-2c5.9-1.8,7.7-6.3,4.6-11.7
		c-1.3-2.3-3.3-3.9-5.8-4.8c-2.4-0.8-4.9-1.4-7.4-2c-5.2-1.2-7.9-4.6-8.3-9.6c-0.6-8.2,1.9-15.6,7.4-21.6c3.9-4.3,9.6-5.3,15-4.8
		c8.3,0.9,16.5-0.3,24.8-0.5c3.7-0.1,7.4,0.5,11.1,0.8c4.8,0.3,9.7,0.8,14.5,0.7c7.2-0.2,13.9,1.6,20,5.1c6.3,3.6,12.7,7.2,19,10.8
		c4.6,2.6,8.3,6,11.2,10.4c5.1,7.8,11.3,14.7,18.6,20.5C1173.1,74.6,1176.7,81.2,1176.5,91.4z"/>
	<path class="st4" d="M314,1230c15.1-10.8,23.8-8.6,39.2,0c6.3,3.7,13.3,5.2,20.5,4.7c8.8-0.7,17.5-0.6,26.1,0.8
		c12,1.8,20.7-3.3,27.1-13.1c4.3-6.8,7.8-13.9,10.3-21.7c1.6-5.3,3.1-10.6,4.8-15.9c5.1-16.4,15.5-28.6,29.5-38.2
		c27.6-19.2,47.5,1.6,71,9.1c18.8,6,43-13.3,45.3,14.1c4.4,52.6-111.1,0.9-96.9,39c1.5,4.1,4.3,7.3,7.4,10.4
		c3.3,3.2,6.8,6.4,9.5,10.1c5.2,6.9,5.1,13.8,0,20.8c-10.1,14-23.5,22.3-41.2,21.8c-11-0.3-21,2.2-30.6,7.6
		c-11.9,6.7-25,7.9-38.4,6.4c-6.8-0.8-12.4-4.3-17.5-8.7c-2.7-2.3-5.3-4.8-8.3-6.7c-7.4-4.8-14.4-4.3-21.1,1.6
		c-15.7,13.1-32.7,28.9-49.2,5.5c-5.3-7.6-7.2-16.9-4.4-25.7C298.2,1248.6,302.7,1242.7,314,1230z"/>
	<path class="st4" d="M175.9,298.2c-0.2,6.1-2.3,11.4-7,14.8c-9,6.4-14.6,15.4-20.5,24.5c-9.1,14.2-21,25.7-37.1,32.2
		c-5.8,2.3-11.5,5.3-17.4,7.9c-5.3,2.3-10.8,2.8-16.4,0.8c-6.8-2.4-9.6-7.1-7.8-14.2c0.8-3.1,2.1-6,3.2-8.9
		c1.8-4.8,4.1-9.5,5.3-14.4c3.9-14.9,12.5-26.7,23.3-37.2c2.5-2.3,5.8-3.8,8.6-5.8c3.6-2.5,7.4-4.8,10.6-7.8
		c6.1-5.8,5.3-12.9-1.7-17.5c-4.3-2.8-8.9-5.2-13.5-7.3c-5.2-2.5-10.2-5.3-14.4-9.3c-4.2-3.8-9.1-6.1-14.7-6.4
		c-13.8-0.8-23.5-8.7-32-18.5c-2.5-2.9-4-6.4-4-10.4c-0.1-5.4,3.2-9.5,8.6-9.8c3.3-0.2,6.6,0.6,9.8,1.3c6,1.3,11.9,3.2,18,4.4
		c4.3,0.9,8.5,2,12.4,4.1c5.6,2.9,8.6,2.3,12.9-2.2c1.6-1.6,3.1-3.3,4.6-5c4.7-5,10.4-5.9,16.6-3.9c4.8,1.5,8.5,4.6,11.3,8.7
		c2.1,3.1,4,6.4,5.5,9.9c4.5,10.2,10.3,19.5,18,27.6c6.3,6.6,10.1,14.6,12.4,23.4c1.1,3.9,2.5,7.8,3.6,11.7
		C175,293.2,175.4,295.7,175.9,298.2z"/>
	<path class="st4" d="M1472.9,1992.7c-6.3-0.7-11.7-2.4-16.4-6c-10.5-7.8-16.4-18.2-16.7-31.1c-0.3-11.9,4.9-21,16-26.2
		c2.3-1,4.4-2.1,6.7-3.1c8-3.5,13.3-9.4,15.7-17.9c0.3-1.1,0.8-2.1,1-3.2c1.9-9.4,7.3-16.3,14.9-22.1c5.4-4.2,10.3-9.2,14.9-14.3
		c7.9-8.8,17.6-13.3,29.3-13.7c4.9-0.2,9.8-0.5,14.7-0.4c13.7,0.3,27-1.9,39.9-6.6c4.6-1.7,9.3-3.3,14-4.3c12.1-2.7,22.5,4.6,24,17
		c1.2,9.7-1.5,18.1-9.4,24.3c-3.5,2.8-7.2,5.2-10.9,7.7c-15.6,10.4-23.9,25.3-26.5,43.6c-0.9,6.8-2.3,13.6-3.7,20.3
		c-1.7,8.1-7,12.6-15,14c-2,0.3-3.9,0.8-5.9,0.9c-23,0.8-44.5,8-65.9,15.7C1486.7,1989.6,1479.7,1991,1472.9,1992.7z"/>
	<path class="st4" d="M1684.8,1201.4c-0.4-19.6,4.8-37.8,15.1-54.4c6.5-10.5,18.5-13.6,30.6-8.2c8,3.6,14.9,8.9,20.3,15.9
		c5.8,7.6,7.8,16.3,5.6,25.8c-0.8,3-1.8,6-2.3,9c-1.7,8.6,0.5,14.8,8.3,18.5c12.8,6,24.1,13.9,35.5,22.3c4.7,3.4,10.7,5.5,16.4,6.8
		c10.5,2.6,19.3,7.7,26.8,15.4c12.4,12.7,22.3,27.1,29.5,43.3c2.5,5.8,4.4,11.7,4.2,18c-0.3,8.9-4.4,13.3-13.3,13.2
		c-5.3-0.1-10.6-1.2-15.7-2.5c-15.2-4.2-30.3-8.5-44.1-16.8c-4.6-2.8-10.4-4-15.8-5.2c-12.8-2.8-24.5-7.8-35.1-15.6
		c-10.4-7.7-17.5-17.5-21.7-29.6c-1.5-4.4-2.8-8.9-4.2-13.4c-2.7-8.3-8-13.7-16.4-16.1c-3.4-1-6.8-1.9-10.2-3.1
		c-10.4-3.6-13.4-7.8-13.5-18.6C1684.8,1204.6,1684.8,1203,1684.8,1201.4z"/>
	<path class="st4" d="M1722.2,435.5c-0.6,17.1-8.6,30.3-23.2,38.8c-11.1,6.4-23,11.5-34.9,16.4c-9.9,4.2-20,4-29.5-1.7
		c-5.9-3.6-10.3-8.5-12.4-15.2c-3.3-10.7-7.9-20.6-14.7-29.7c-2.5-3.3-3.2-8.2-4.4-12.4c-0.7-2.3-0.7-4.8-1.1-7.3
		c-1.1-6.8-5-11.2-11.6-13.2c-3.4-1-6.8-1.8-10.3-2.8c-3-0.8-6-1.7-8.9-2.8c-8.3-3.6-12.4-10.4-10.7-19.3c0.9-4.8,3.3-9.7,5.8-13.9
		c5.3-8.8,11.1-17.1,16.8-25.6c1.8-2.8,3.8-5.5,6-7.9c3.8-4.3,8.9-6.6,14.6-7.2c8.8-0.8,15.2,3.3,17.8,11.8c0.9,2.9,1.1,6.1,1.8,9.2
		c1,5,1.8,10.1,3.3,14.9c1.7,5.5,5.9,8.1,11.6,8.3c5.9,0.3,11.4-1.6,16.6-4.3c5.5-2.9,10.9-6,16.6-8.4c13.1-5.7,25.5-0.6,31.1,12.6
		c0.8,2,1.6,4.2,1.9,6.3c2,11.3,6.2,21.7,11.7,31.7C1720,420.5,1722.4,427.6,1722.2,435.5z"/>
	<path class="st4" d="M-5.1,1288.3c0.8-19.7,9.5-32.4,23.7-41.7c7.1-4.7,15.1-4.9,23.1-2.7c4.3,1.2,8.4,2.8,12.5,4.4
		c9.1,3.8,18,3.6,27.1-0.3c12.9-5.6,24.8-12.9,36.2-21.1c7.3-5.3,15.1-9.4,24-11.2c16.6-3.5,34.5,6.1,40.7,21.9
		c3,7.8,2.6,15.4-1.4,22.5c-2.3,4.3-5.3,8.3-8.6,11.8c-7.2,7.3-14.8,14.1-22.5,20.8c-11,9.5-24.1,13.9-38.7,13.9
		c-3.6,0-7.1,0.2-10.7,0.4c-8.3,0.6-15.4,3.8-22,8.8c-10.4,7.9-21.1,15.5-31.8,23.1c-2.3,1.7-5,2.9-7.6,4.1c-4.2,1.8-8.4,1.6-12.1-1
		c-3.8-2.6-7.8-5.3-10.8-8.9c-8.5-9.9-14.9-21-19-33.4C-4.2,1295.5-4.6,1290.8-5.1,1288.3z"/>
	<path class="st4" d="M419.2,306.1c-8-0.5-15.9-0.9-24-1.6c-7.3-0.5-13.1-3.8-17.8-9.4c-2.3-2.8-4.6-5.4-6.7-8.3
		c-4.7-6.5-11.1-10.1-18.9-11.4c-2.2-0.3-4.4-0.7-6.6-1.1c-12.6-2.4-19.3-10.1-19.9-23c-0.4-9,2.5-17.1,7.2-24.6
		c5.5-8.9,11.6-17.4,17.4-26.1c5.2-7.9,12.3-10.7,21.3-7.7c10.4,3.4,20.9,3.8,31.5,0.6c8-2.4,16-1.5,23.5,2
		c6.9,3.3,13.9,7,20.2,11.5c8,5.7,11.9,14.1,10,23.9c-2.8,14.5-1.2,28.2,4.8,41.7c1.5,3.3,2,7.3,2.3,11c0.8,8.8-2.4,14.8-10.8,17.8
		c-5.8,2.1-12,3-18.2,3.8c-5,0.6-10.2,0.1-15.4,0.1C419.2,305.6,419.2,305.9,419.2,306.1z"/>
	<path class="st4" d="M1325.8,980.9c-1.7,6.7-3.9,16.4-6.5,25.9c-1.1,3.9-4.2,5.9-8.2,6c-2.7,0-5.5,0.1-7.9-0.8
		c-14.9-5.5-30.6-6.5-46.2-6.8c-7.3-0.1-14.4-1.6-21.3-4.3c-8.8-3.5-15.4-9.3-18.4-18.4c-2.2-6.7-4.2-13.5-5.4-20.5
		c-1.9-10.6-5.5-20.1-12.4-28.5c-7-8.5-6.4-16.5,1.1-24.5c3.9-4.2,8.6-6.9,14-8.5c6.2-1.9,11.8-0.6,16.2,4.3
		c2.2,2.4,3.8,5.2,5.6,7.9c2.9,4.2,5.3,8.9,8.6,12.8c7.8,9.2,15.9,18.1,24.1,26.9c7.5,8,16.9,11.3,28,10.6
		c5.5-0.4,11.1-0.6,16.5,0.1C1322.1,964.3,1326,969.6,1325.8,980.9z"/>
	<path class="st4" d="M1232,1580.5c-1.1,4.5-1.8,9.2-3.4,13.4c-3.6,9.1-7.5,18-11.7,26.9c-1.8,3.8-4.2,7.3-6.8,10.6
		c-10.2,12.4-26.6,13.3-38.2,2.4c-8.8-8.2-12.6-18.6-13.7-30.2c-0.4-4.2-0.4-8.4-0.6-12.6c-0.4-11.3-4.3-21.2-11.6-29.8
		c-6.4-7.5-13.6-13.9-22.1-19c-7.5-4.4-14.2-9.9-19.4-17.1c-3.4-4.8-5.6-10.1-5.8-16.1c-0.3-8.3,3.4-13.5,11.2-16.1
		c7.3-2.4,14.6-1.9,21.3,1.8c5.2,2.9,10.2,6.3,14.9,10.1c6.1,4.8,12.7,8.1,20.1,10c4.5,1.2,9,2.5,13.4,3.9c8,2.5,14,7.5,18.1,14.9
		c1.3,2.3,2.6,4.7,3.7,7.1c3.6,8.3,9.2,14.6,17,19c1.5,0.8,3,1.9,4.4,3C1228.8,1567,1231.8,1572.8,1232,1580.5z"/>
	<path class="st4" d="M727.2,1860.8c1.5-6.4,2.3-13.1,4.6-19.3c4.4-12.4,4.8-24.5,1.9-37.3c-1.7-7.3-1.7-14.9-1.4-22.5
		c0.1-4,1.7-8.3,3.7-11.9c12.9-23,45.8-24.5,60.9-3.1c2.9,4.2,5.3,8.8,8,13.1c6,9.6,7,20,2.3,30c-6,12.4-8.3,25-7.2,38.7
		c0.7,8.2-2.7,15.7-7.4,22.4c-5.9,8.4-12.9,15.8-21.2,22c-1.9,1.4-4.1,2.8-6.3,3.8c-12.1,5.8-24.2,1.9-30.6-9.9
		C730.2,1878.7,728.1,1870.1,727.2,1860.8z"/>
	<path class="st4" d="M1514.5,1513.3c3.3,0,5.8,0,8.3,0c6.2-0.1,11.2-2.6,14.9-7.5c2.4-3.2,4.7-6.5,7.3-9.6
		c13-15.8,36.4-16.6,50.6-1.8c2.2,2.3,3.9,4.8,6.1,7.1c5.2,5.2,10.4,10.3,15.7,15.3c2.3,2.1,4.8,3.9,7.3,5.8
		c15,11.7,7.8,32.3-4.8,38.3c-6.3,3.1-13,4.8-20,3.4c-11.9-2.4-23.3-1.2-35.1,0.9c-7.1,1.3-14.5,1.2-21.9,1c-9.4-0.2-18.6-1-28-1.3
		c-11.7-0.4-22.4-3.2-30.9-11.9c-6.8-7-7.4-12.5-2.3-20.9c0.8-1.3,1.7-2.6,2.6-3.8C1492.1,1517.7,1501.5,1510.9,1514.5,1513.3z"/>
	<path class="st4" d="M1977.5,731.3c-3.7-0.8-10.8-2-17.6-4.2c-7.9-2.6-13.8-1.3-18.8,5.6c-9.8,13.4-23.3,19.5-39.9,20
		c-11.4,0.3-22.8,1.6-34.3,2.5c-12.6,1-25-0.1-37-4.2c-3.5-1.2-7-2.7-10.2-4.6c-13.3-7.9-16-23.6-6.3-35.6c2.2-2.6,4.8-5.1,7.6-7
		c13.5-8.8,25.3-19.5,36.3-31.1c4.8-5.1,10.3-9.2,17-11.6c11.2-4,20.6-1.5,27.5,8.2c3.9,5.4,7,11.3,10.3,17.1
		c4.5,7.8,10.4,14.1,19.1,17.3c9.8,3.6,15.3,1.9,21.3-6.7c4.3-6.1,8.5-12.3,13.3-18c5.8-7,13.6-10.1,22.7-9.4
		c18.9,1.5,29.5,16.6,24.8,34.9C2009.1,721.1,1996.3,731.6,1977.5,731.3z"/>
	<path class="st4" d="M897.6,976.4c-27.7-0.9-54.3-7.1-80.2-16.4c-5.7-2-11.1-5.4-15.9-9c-10.4-7.9-12.6-22.3-4.7-32.7
		c3.8-5,8.7-9.5,14-12.8c13.5-8.5,27.3-16.5,41.4-24c14.3-7.6,28.2-6.4,41,4c15.3,12.4,30.8,24.6,43,40.3c3.2,4.2,6.4,8.6,8.7,13.3
		c6.1,12.5,2.3,23.7-10.1,30.3c-8.9,4.7-18.6,6.3-28.5,7C903.5,976.5,900.5,976.4,897.6,976.4z"/>
	<path class="st4" d="M1207.7,1726.6c0,3.7,0.2,7.5,0,11.2c-2.1,26.9-30,45.4-55.5,36.4c-4.8-1.7-9.3-5.1-13.2-8.6
		c-3.3-2.9-6.1-6.7-8.4-10.5c-9.5-15.1-18.8-30.3-27.9-45.6c-4.7-7.9-7.7-16.4-7.1-25.8c0.6-9.1,4.2-16.6,12-21.4
		c12.8-7.9,26.5-13.5,41.5-15.7c9.4-1.4,18,0.8,25.5,6.7c17.5,14,29.4,31.3,32,54.1c0.7,6.3,1.2,12.7,1.7,19.1
		C1208,1726.6,1207.9,1726.6,1207.7,1726.6z"/>
	<path class="st4" d="M149.3,1538.5c-0.7-7.1-1.2-14.1-2.1-21.2c-2-16.2-1.3-32.3,1.8-48.3c1.6-8.2,5-15.6,10.1-22.2
		c6.4-8.3,14-15.5,23-21c4.1-2.5,8.9-4.2,13.5-5.3c9-2,16.1,1.5,21.1,9.1c6.3,9.5,6.5,20,4.8,30.8c-1.3,7.8-4.8,14.9-9.2,21.3
		c-6.2,8.9-9.4,18.5-8.9,29.4c0.2,3.1-0.6,6.2-0.8,9.3c-0.6,6.8-3.7,12.4-8.7,16.7c-8.7,7.6-17.4,15.3-26.2,22.6
		c-6.8,5.7-14.5,3.3-17-5.3c-1.4-5-1.6-10.4-2.3-15.7C148.7,1538.5,149,1538.5,149.3,1538.5z"/>
	<path class="st4" d="M190.1,1874.6c-1.4,7.6-2.6,15.3-4.2,22.9c-2.6,12.1-9.9,20.5-20.8,26.3c-6.8,3.6-13.9,6.1-21.5,6.5
		c-13,0.7-20.2-3.7-23.9-14.7c-0.9-2.8-1.8-5.5-2.8-8.2c-2.5-6.8-4.8-13.9-7.6-20.5c-4.2-9.9-4.7-19.9-1.2-30
		c3.1-8.8,6.4-17.5,10.3-26.1c6.3-13.7,19.7-17.7,32.8-10.3c2.3,1.3,4.6,2.8,6.4,4.7c7.2,7,14.4,13.9,21.1,21.3
		C185.9,1854.4,190,1863.6,190.1,1874.6z"/>
	<path class="st4" d="M1254.8,199.3c-0.2,11-4.2,19.7-9.4,27.9c-4.3,6.7-9.1,13.1-13.7,19.7c-5.3,7.7-4.7,11.4,3.5,16.1
		c5.5,3.2,11.4,5.7,17,8.8c5.1,2.8,10.3,5.6,14.9,9.2c13.2,10.2,18.1,29.1,12.1,44.7c-4.9,12.5-15,17.8-28.1,14.9
		c-6.5-1.5-11.8-4.9-16.3-9.6c-8.5-8.9-18.9-12.5-31-11.9c-4.5,0.2-9.1,0.1-13.6-0.3c-7.5-0.7-11.7-4.2-13.6-11.5
		c-2.2-8.4-1.2-16.5,4.4-23.4c2.8-3.5,6.2-6.6,9.5-9.7c2.5-2.4,5.3-4.4,7.9-6.7c9-8.2,9.1-10.9,1.2-20.5c-2.3-2.9-4.7-5.8-6.5-9.1
		c-8-14.5-8.8-29,1.4-42.8c4.1-5.5,9.2-10.3,13.9-15.3c0.9-1,2.1-1.7,3.2-2.4c9.5-5.8,19.7-9.1,30.3-3.6
		C1252.8,179,1254,189.7,1254.8,199.3z"/>
	<path class="st4" d="M933.2,1145.3c-3.3,9.4-6.2,18.7-9.8,27.8c-2.1,5.2-5.9,9.3-11.3,11.8c-4.5,2-8.9,2.4-13.6,0.9
		c-10.7-3.6-20.6-8.6-28.8-16.3c-3.6-3.4-6.4-7.8-9.1-12.1c-2.5-3.9-4.2-8.3-6.5-12.4c-3.5-6.4-8.9-9.8-16.2-10
		c-7.8-0.2-14.8-3-20.8-7.9c-8.9-7.4-13-16.8-10.6-28.4c2.8-13.3,14.7-18.4,25.9-10.8c4.4,2.9,7.9,7.1,11.4,11.1
		c2.5,2.8,4.5,6.1,6.7,9.1c4.9,6.3,11.1,8.7,18.8,6.5c3.2-0.9,6.3-2.1,9.6-2.8c6.2-1.6,12.5-3.7,18.8-4.4
		c14.7-1.7,30.1,8.2,34.2,22.3C933.6,1134.2,932.9,1139.9,933.2,1145.3z"/>
	<path class="st4" d="M729.3,1406.3c-14.5-1.2-29.4-2.2-44.2-3.6c-11.1-1-21.4-4.3-28.6-13.8c-9-11.8-14.7-24.7-13.7-39.8
		c0.4-6.3,3.8-11.2,9.1-14.2c4.8-2.7,10.1-4.8,15.3-6.7c11.2-4.2,22.4-8.3,33.8-11.9c6.8-2.1,13.8-3.8,20.8-4.6
		c7.6-0.9,14.5,2,19.1,8c9.7,12.7,19.4,25.4,27.8,38.9c7.6,12.1,7.6,30.8-11.7,41.6C748.5,1405,739.5,1407.6,729.3,1406.3z"/>
	<path class="st4" d="M185.3,881.8c16.5,0.3,31.4,6.1,42.5,20c8,10,11,21.4,6.3,33.7c-5.5,14.4-11.2,28.8-17.9,42.6
		c-6.7,13.9-20.5,18.5-35.2,12.6c-5.1-2.1-9.9-5.3-14-9c-10.1-9.1-19.9-18.4-29.4-28.1c-4-4.1-7.5-9-10.4-14
		c-6-10.6-5.3-21.4,0.8-31.9c4.6-7.8,11.2-13.5,19.3-17.4C159.1,884.7,171.4,882,185.3,881.8z"/>
	<path class="st4" d="M576.4,690.2c5.7-0.2,10.8,2.7,13.9,8.9c3.3,6.7,7.8,12.6,12.9,17.9c6,6.4,9.5,14.1,12.8,22.1
		c1.8,4.2,1.1,8.2-1.2,12c-4.8,7.6-11.5,11.5-20.7,10.6c-8.9-0.8-17.2-3.6-24.4-8.8c-3.3-2.4-6.4-5.6-8.7-8.9
		c-4.4-6.3-8.3-13-12.4-19.6c-0.9-1.6-1.7-3.3-2.3-5c-4-11-0.8-19,9.7-24.2C561.9,692.3,568.3,690.2,576.4,690.2z"/>
	<path class="st4" d="M923.2,696.5c-8.9,0.1-18.4-1.7-27.7-5.5c-8.4-3.4-14-9.4-17.2-17.8c-8.4-21.7-2.4-48.9,14.4-64.9
		c12.6-12.1,30.9-13.7,45.5-4c9.1,6.1,15.8,14.1,20.3,24.1c4.5,10.1,6.6,20.8,7.8,31.6c0.7,6.4-0.9,12.1-5,17.1
		C947.9,693.8,941.7,696.5,923.2,696.5z"/>
	<path class="st4" d="M1119.6,400c-0.2-23.2,9.7-35.7,29.2-39.8c11.3-2.4,21.7,0.5,29.4,8.5c11,11.5,21.3,23.8,30.9,36.5
		c7.1,9.3,6,20.1,1,30.3c-7.8,15.7-31.8,27.8-49.1,25.2c-8.5-1.3-15.7-5.1-21.3-11.6C1127,434.1,1121,416.5,1119.6,400z"/>
	<path class="st4" d="M467.5,1629.9c4.9,1.8,10.2,2.9,14.6,5.5c6.1,3.5,7.5,9.5,4.8,16c-1.3,3.2-3.2,6.1-5.1,9
		c-6.8,10.5-13.3,21.2-20.6,31.3c-3.5,4.9-7.9,9.3-12.6,13.1c-5,4.1-11,4.1-16.5,0.7c-13.2-8.3-24.7-18.7-32.8-32.1
		c-6.9-11.4-2-26.2,10.1-29.6c17.9-5.1,36.2-8.5,54.4-12.7c1-0.2,2.1-0.1,3.2-0.2C467.3,1630.6,467.4,1630.3,467.5,1629.9z"/>
	<path class="st4" d="M1700.2,1585.4c-0.4,8.5-2.8,16.2-9.2,22.2c-8.1,7.7-18.1,9-27.8,3.4c-2.1-1.2-4.1-2.6-5.8-4.2
		c-15.4-15.5-30.5-31.2-38.8-51.9c-1.5-3.7-3-7.4-3.7-11.3c-1.3-7.3,3.1-12.5,10.5-12.8c2.3-0.1,4.9,0.1,7,1
		c18.7,8.3,38,15.2,53.9,28.8c3,2.6,5.8,5.5,8.3,8.6C1698.3,1573.8,1700,1579.4,1700.2,1585.4z"/>
	<path class="st4" d="M408.2,1449.9c-18,0.2-31.3-8.2-37-21.2c-2.1-4.6-2.2-9.1-0.5-13.9c6.2-17.2,26.3-31.4,44.6-30.9
		c12.2,0.3,22.8,4.7,28.1,16.4c5.6,12.2,3.5,23.8-5.6,34.1C429,1444.2,418.5,1450.2,408.2,1449.9z"/>
	<path class="st4" d="M192.7,1625.3c7.1-0.1,13.7,1.6,19.8,5.3c7.3,4.4,10.8,11,9.4,19.5c-0.7,4.4-1.8,9-3.9,12.9
		c-5.2,9.6-11,18.8-16.8,28.1c-1.2,2-2.9,3.8-4.7,5.4c-6,5.5-12.4,6.2-18.7,1.2c-3.9-3.1-7.4-7-10-11.2c-6.2-9.8-9.3-20.8-10.7-32.3
		c-1.2-9.9,2.9-17,11.5-21.7C176.1,1628.4,183.9,1625.1,192.7,1625.3z"/>
	<path class="st4" d="M787.9,251.3c1.3-3.1,3-9.3,6.3-14.6c5.5-8.8,11.9-17,18.1-25.3c7.4-9.8,17.5-12.5,29.1-10.4
		c9.3,1.7,16.8,6.7,22.9,13.6c5.3,6,4.3,12.6-2.5,16.9c-2.9,1.8-6.2,3.1-9.5,4c-12.9,3.5-23.2,10.2-29.7,22.3
		c-1.5,2.8-3.5,5.4-5.5,7.8c-5.3,6.5-12,8.9-18.2,6.6C792.3,270,787.7,262.6,787.9,251.3z"/>
	<path class="st4" d="M105.1,1610.1c5.4,1.7,12.6,3.5,19.4,6.2c5.4,2.1,8.8,6.7,10.5,12.4c1.6,5.3,0.9,10.2-3.2,13.9
		c-13.1,11.7-27.7,20.8-45.4,23.4c-13.3,2-23.7-5.4-26.8-18.2c-2-8.4,0.3-15.7,6.1-22C75.8,1614.7,89.2,1612.1,105.1,1610.1z"/>
	<path class="st4" d="M703.7,200.5c25-3.4,31.1,52.6-6.1,56.3c-15.5,1.5-29.2-9.5-30.7-25.3C664.8,208.4,678.7,203.9,703.7,200.5z"
		/>
	<path class="st4" d="M1857.5,382.8c16,0.2,24.5,10.4,21.8,26.2c-1.7,9.4-6.2,17-14.7,21.7c-6.5,3.6-12.9,7.5-19.8,10.3
		c-11.8,4.9-23.6-2.3-25.3-14.9C1816.7,405.9,1837.3,382.5,1857.5,382.8z"/>
	<path class="st4" d="M264.4,1335.3c2.1,0.3,5.6,0.5,9,1.3c12.5,2.8,18.3,11.8,15.7,24.3c-4.4,21.5-24.8,29.7-42.6,16.8
		c-4-2.9-7.7-6.6-10.8-10.5c-7.2-9.2-5.9-17.2,3.5-23.9C246.3,1338.2,254.4,1335.7,264.4,1335.3z"/>
	<path class="st4" d="M1645.4,1284.4c-5.9-1.1-12.4-1.6-18.4-3.5c-9.9-3.1-14.3-11-12.6-21.1c2.2-12.6,9.6-21.1,21.4-25.7
		c6.7-2.6,12.7-1.2,17.4,4.2c2.6,3,4.9,6.4,6.3,10c3.1,7.9,5.7,16,8.2,24.2c1.7,5.5,0.4,8-5.4,9.5
		C1657,1283.3,1651.4,1283.6,1645.4,1284.4z"/>
	<path class="st4" d="M507.9,1824.2c6.3,2,13,3.1,18.7,6.1c10,5.2,11.7,15.1,5.3,24.3c-7.4,10.5-21.6,15.9-33.8,12.9
		c-11.1-2.8-19.1-13-18.8-23.8c0.2-6.4,2.8-11.6,8.9-13.9C494.4,1827.4,500.9,1826.1,507.9,1824.2z"/>
	<path class="st4" d="M1811.1,996.9c9.4,0.2,16.5,1.9,23.1,5.7c9.7,5.7,13.7,14.4,12.9,25.4c-0.8,10.7-8.7,17.3-19.4,16.4
		c-7.5-0.6-13.9-4.1-18.5-9.8c-5-6.1-9.6-12.7-13.5-19.6c-4.3-7.8-1.4-14.1,7.1-16.7C1806,997.4,1809.5,997.2,1811.1,996.9z"/>
	<path class="st4" d="M272.9,252.3c0,9.1-4.2,15-12.4,17.3c-9.6,2.8-20,0.1-24.3-7.3c-6.9-12-9.4-24.9-5.2-38.4
		c2.4-7.7,7.4-10.2,14.8-8C259.8,220,273,237.8,272.9,252.3z"/>
	<path class="st4" d="M531.6,1272.5c22.9-47.6,52.5,73.1,12.2,46.4C526.4,1307.4,522.1,1292.2,531.6,1272.5z"/>
	<path class="st4" d="M1944,335.2c-11.8-0.5-21-7.6-23.4-18c-2.5-10.6,3.2-19.8,13.9-22.3c8.7-2,16.6-0.1,22.4,6.7
		c6,6.9,7.3,15.3,4.5,23.9C1959.3,332.3,1952.8,335.6,1944,335.2z"/>
	<path class="st4" d="M1280.7,1224.5c-0.3,6.5-2.6,12.2-6.9,16.7c-5.2,5.3-10.8,10.2-16.5,15c-1.6,1.3-3.7,2.3-5.7,2.8
		c-6,1.5-9.9-1.9-9.6-8.1c0-0.5,0-1.1,0.2-1.6c3.7-11.6,7-23.4,11.3-34.8c2.8-7.4,9.3-9.7,16.3-7.1c4.2,1.5,7.3,4.4,8.9,8.6
		C1279.7,1218.7,1280,1221.6,1280.7,1224.5z"/>
	<path class="st4" d="M939.4,742.1c13,0.2,19.6,8.2,16.7,20.8c-1,4.5-3,9.1-5.5,13c-4.3,6.5-12.7,8.9-20.5,6.7
		c-7.2-2-11.6-7.5-12.5-15.7C915.9,751.9,924.7,741.9,939.4,742.1z"/>
	<path class="st4" d="M808.6,1716.2c9.5,0.1,17.2,6,19.1,14.9c2.9,13-5.9,22.9-19.1,21.1c-3.6-0.5-7.3-1.6-10.5-3.4
		c-7.1-3.9-10.4-12.3-8.3-19.7C791.9,1721.1,799.2,1716.1,808.6,1716.2z"/>
	<path class="st4" d="M752.2,998.2c-1.1,0.7-2.1,1.5-3.2,2c-2.5,1.2-4.8,0.7-5.8-1.9c-3.3-8.4-4.7-16.9,0.5-25.1
		c3-4.8,7-6.7,11.1-5.7c4,1.1,7.9,5.8,8.2,10.5c0.1,2.1,0.1,4.5-0.9,6.2c-2.8,5-6.1,9.6-9.2,14.4
		C752.6,998.4,752.4,998.3,752.2,998.2z"/>
	<path class="st4" d="M1027.9,1610.9c-0.2,12-10.3,20.4-22.1,18.3c-5.2-0.9-8.6-4-9.8-9.2c-2.3-9.2,3.3-19.2,12.4-22.1
		c0.8-0.2,1.5-0.4,2.3-0.6C1022.5,1594.5,1028.1,1598.9,1027.9,1610.9z"/>
	<path class="st4" d="M954.4,1240.8c5.7,0.3,8.6,3.6,8.6,8.6c0.1,9.2-11.9,21.4-21.2,21.6c-6.1,0.1-10.2-4-9.2-10.1
		c0.4-2.8,1.6-5.7,3.2-8C940.6,1246.3,947.3,1242.2,954.4,1240.8z"/>
	<path class="st4" d="M644.8,1538.8c6.4-0.1,11.5,4.9,11.7,11.6c0.3,7-4.2,12.5-10.4,12.7c-6.8,0.3-12.9-6.2-12.8-13.5
		C633.3,1543.5,638.2,1538.9,644.8,1538.8z"/>
	<path class="st4" d="M1845.9,93.3c0.2,5.9-4.1,10.8-9.5,10.7c-5,0-9.1-4.1-9.2-9.2c-0.1-5.7,5-11.4,10.2-11.4
		C1842,83.5,1845.8,87.8,1845.9,93.3z"/>
	<path class="st4" d="M1176.5,1069.6c0,4.3-3.4,8.6-6.8,8.6c-3.6-0.1-6.9-4.7-6.8-9.5c0.1-4.7,2.5-7.8,6.2-7.9
		C1173.1,1060.7,1176.5,1064.7,1176.5,1069.6z"/>
	<path class="st4" d="M1156.8,639.1c0.1,4.4-3.3,8.9-7,9.2s-7.6-3.6-7.6-7.5c0-4,4-8,8.2-8.1C1154,632.5,1156.7,635.3,1156.8,639.1z
		"/>
	<path class="st4" d="M1733.5,624.7c1.6,0.6,3.3,1.1,4.8,1.8c0.1,0-0.3,2.1-0.9,2.4C1735.1,629.9,1733.6,628.8,1733.5,624.7z"/>
</g>
<g>
	<line class="st5" x1="2024" y1="1000" x2="-24" y2="1000"/>
	<line class="st5" x1="2024" y1="1000" x2="-24" y2="1000"/>
	<line class="st5" x1="1000" y1="2024" x2="1000" y2="-24"/>
</g>
</svg>
